<?xml version="1.0" encoding="UTF-8"?>
<svg id="Layer_2" data-name="Layer 2" xmlns="http://www.w3.org/2000/svg" xmlns:xlink="http://www.w3.org/1999/xlink" viewBox="0 0 511.994 113.319">
  <defs>
    <linearGradient id="linear-gradient" x1="255.996" y1="35.498" x2="255.998" y2="42.165" gradientUnits="userSpaceOnUse">
      <stop offset="0" stop-color="#2a34ec"/>
      <stop offset="1" stop-color="#80def3"/>
    </linearGradient>
  </defs>
  <g id="Layer_1-2" data-name="Layer 1">
    <g>
      <g>
        <path d="M511.983,103.123c-.004.473.004.946,0,1.42H.01c-.004-.473.004-.946,0-1.42h511.973Z" fill="#262f25" stroke-width="0"/>
        <path d="M98.005,59.499c-13.393.024-26.879.435-40.248.516-21.04.127-36.71-.834-57.747.645,0-.43,0-.86,0-1.291,32.701.178,65.342-.589,97.995.129Z" fill="#242423" stroke-width="0"/>
        <path d="M511.983,59.241c0,.301,0,.602,0,.903l-30.498-.645c10.17-.115,20.287-.407,30.498-.258Z" fill="#242423" stroke-width="0"/>
        <path d="M472.485,59.499c-8.046.089-15.991.482-20.249.516-9.974.081-24.018-.438-38.998-.387-4.643.016-9.866.381-14.499.387-18.114.026-36.397.119-54.497,0-8.887-.059-17.851-.43-26.749-.516,22.662-.553,45.499-.492,68.246-.516q43.373.258,86.745.516Z" fill="#262f25" stroke-width="0"/>
        <path d="M253.497,59.886c-40.412-.17-80.835.021-121.243,0-3.123-.002-6.553-.256-9.749-.258.05-.084,1.65-.255,1.75-.258,4.874-.177,32.872.06,43.498,0,5.41-.03,11.122-.371,16.499-.387,23.061-.07,45.933.577,68.996.645l.25.258Z" fill="#262f25" stroke-width="0"/>
        <path d="M305.994,59.37c-15.167.083-31.237,1.154-45.998.387,13.745-.158,28.543-1.132,45.998-.387Z" fill="#2f332d" stroke-width="0"/>
        <g>
          <path d="M511.983,109.576c-.016,1.075.03,2.151,0,3.227-69.997.109-139.994-.098-209.989-.129-72.329-.032-144.659.024-216.988,0H.01c-.03-1.118.015-2.237,0-3.356,170.656.205,341.33-.284,511.973.258Z" fill="#75db28" stroke-width="0"/>
          <path d="M511.983,104.543c-.006.645.007,1.291,0,1.936-112.501-.27-224.981-.054-337.482,0-39.831.019-79.663-.014-119.494,0H.01c-.007-.645.006-1.291,0-1.936h511.973Z" fill="#7ef3db" stroke-width="0"/>
          <path d="M479.485,108.028c-.729.716-4.613.32-3.25,1.162h35.748c-.002.129.002.258,0,.387-170.642-.542-341.316-.054-511.973-.258-.006-.43.006-.86,0-1.291,18.998-.016,37.999.021,56.997,0,37.511-.042,74.988.004,112.494,0,63.247-.007,126.493,0,189.74,0,.255,0,2.111-.258,5-.258.09,0,1.41.258,1.5.258,37.91.003,75.83-.167,113.744,0Z" fill="#00f3e5" stroke-width="0"/>
          <path d="M511.983,106.479c-.006.516.007,1.033,0,1.549h-32.498c-37.914-.167-75.834.003-113.744,0-.09,0-1.41-.258-1.5-.258-2.889,0-4.745.258-5,.258-63.247,0-126.493-.007-189.74,0,.512-1.45,11.142.229,5-1.549,112.501-.054,224.981-.27,337.482,0Z" fill="#00f3e5" stroke-width="0"/>
          <path d="M511.983,112.803c-.005.172.006.344,0,.516h-209.489l-.5-.645c69.995.031,139.992.238,209.989.129Z" fill="#59944b" stroke-width="0"/>
          <path d="M55.008,106.479l-4.75.129c-1.903,1.526,6.392.077,6.75,1.42-18.998.021-37.998-.016-56.997,0-.007-.516.006-1.033,0-1.549h54.997Z" fill="#00f3e5" stroke-width="0"/>
          <path d="M85.006,112.674c.148,1.052-9.44.175-15.499.645H.01c-.007-.215.006-.43,0-.645h84.995Z" fill="#4d6145" stroke-width="0"/>
          <path d="M511.983,108.028c-.005.387.005.774,0,1.162h-35.748c-1.363-.841,2.52-.446,3.25-1.162h32.498Z" fill="#24eb52" stroke-width="0"/>
          <path d="M301.994,112.674l.5.645H69.507c6.059-.47,15.647.406,15.499-.645,72.329.024,144.659-.032,216.988,0Z" fill="#59944b" stroke-width="0"/>
          <path d="M174.501,106.479c6.142,1.778-4.487.099-5,1.549-37.506.004-74.983-.042-112.494,0-.357-1.343-8.653.107-6.75-1.42l4.75-.129c39.831-.014,79.663.019,119.494,0Z" fill="#18c3ff" stroke-width="0"/>
        </g>
        <g>
          <path d="M511.983,92.282c-.012,2.495.017,4.991,0,7.486-26.498.009-52.997-.012-79.496,0-43.835.02-87.659.004-131.493,0-100.328-.009-200.656.007-300.984,0-.017-2.495.012-4.991,0-7.486,20.243-.107,40.587.253,60.747-.258,150.442-.093,300.819.16,451.226.258Z" fill="#2463ef" stroke-width="0"/>
          <path d="M511.983,88.281c-.005,1.334.006,2.667,0,4.001-150.407-.098-300.783-.351-451.226-.258-20.16.511-40.504.151-60.747.258-.006-1.334.005-2.667,0-4.001h511.973Z" fill="#8ef3e1" stroke-width="0"/>
          <path d="M511.983,85.699c-.003.86.003,1.721,0,2.581H.01c-.003-.817.003-1.635,0-2.452q255.986-.065,511.973-.129Z" fill="#7cdb69" stroke-width="0"/>
          <path d="M511.983,83.634c-.002.688.002,1.377,0,2.065q-255.986.065-511.973.129c-.003-.817.003-1.635,0-2.452,170.649.466,341.314.194,511.973.258Z" fill="#b9f0e1" stroke-width="0"/>
          <path d="M84.506,101.187c120.82.047,241.662.09,362.481,0,21.663-.016,43.336-.195,64.997,0-.005.645.006,1.291,0,1.936H.01c-.006-.688.005-1.377,0-2.065,28.164.18,56.328.118,84.495.129Z" fill="#2463ef" stroke-width="0"/>
          <path d="M511.983,82.731c0,.301.001.602,0,.903-170.658-.064-341.324.207-511.973-.258-.001-.387.001-.774,0-1.162,5.346.173,7.815-.5,8.25-.516,1.725-.063,26.94-.064,29.998,0,.463.01.038.379.5.387,7.404.136,23.42.527,28.498.516,6.478-.014,13.564-.519,19.999-.516,8.686.003,16.546.257,18.499.258,42.507.033,85.008-.002,127.493-.387,92.92.399,185.864-.298,278.735.774Z" fill="#37552e" stroke-width="0"/>
          <path d="M300.994,99.767c2.472.559,21.899-.049,18.749.774-3.374.267-8.17.2-9,.516l-226.238.129c-28.168-.011-56.331.051-84.495-.129-.003-.43.003-.86,0-1.291,100.328.007,200.656-.009,300.984,0Z" fill="#85c9ed" stroke-width="0"/>
          <path d="M62.007,81.44c29.031.069,57.976-.007,86.995,0,5.499.001,10.999,0,16.499,0,74.994.008,149.995-.059,224.988,0,40.494.032,80.995.244,121.493.129-.001.387.001.774,0,1.162-92.871-1.072-185.815-.376-278.735-.774-42.486.385-84.986.421-127.493.387-1.953-.002-9.813-.255-18.499-.258-6.435-.002-13.521.503-19.999.516-5.078.011-21.095-.38-28.498-.516-.462-.008-.037-.377-.5-.387-3.059-.064-28.273-.063-29.998,0-.435.016-2.904.689-8.25.516,0-.301,0-.602,0-.903,20.664.085,41.333.08,61.997.129Z" fill="#508944" stroke-width="0"/>
          <path d="M511.983,99.767c-.003.473.004.946,0,1.42-21.66-.195-43.333-.016-64.997,0-5.662-.456-12.364.402-16.999-.71,1.015-.319,2.965-.214,2.5-.71,26.498-.012,52.997.009,79.496,0Z" fill="#85c9ed" stroke-width="0"/>
          <path d="M73.007,80.795c1.053,1.029-6.45.192-10.999.645-20.664-.049-41.333-.044-61.997-.129,0-.172,0-.344,0-.516,24.332.015,48.664-.018,72.996,0Z" fill="#3dc0a8" stroke-width="0"/>
          <path d="M432.487,99.767c.465.496-1.485.391-2.5.71,4.635,1.112,11.337.254,16.999.71-120.819.09-241.661.047-362.481,0l226.238-.129c.83-.316,5.626-.25,9-.516,3.15-.823-16.277-.216-18.749-.774,43.834.004,87.658.02,131.493,0Z" fill="#5260f3" stroke-width="0"/>
          <path d="M149.002,80.924v.516c-29.019-.007-57.964.069-86.995,0,4.549-.453,12.053.383,10.999-.645,25.328.018,50.667.116,75.996.129Z" fill="#778772" stroke-width="0"/>
          <g>
            <path d="M317.493,59.499c8.898.086,17.862.458,26.749.516,18.1.119,36.383.026,54.497,0,4.633-.007,9.856-.371,14.499-.387,14.98-.051,29.024.468,38.998.387,4.258-.035,12.202-.427,20.249-.516,3.019-.033,5.999.034,9,0l30.498.645c-.003,1.979.004,3.958,0,5.937-170.667.303-341.305-.185-511.973.129-.004-1.85.003-3.7,0-5.55,21.037-1.48,36.707-.518,57.747-.645,13.369-.081,26.855-.492,40.248-.516,8.185-.015,16.348.123,24.499.129,3.196.003,6.626.257,9.749.258,40.409.021,80.832-.17,121.243,0,2.104-.065,4.393-.105,6.5-.129,14.761.767,30.83-.304,45.998-.387,5.522-.03,7.143.087,11.499.129Z" fill="#8094f3" stroke-width="0"/>
            <path d="M511.983,66.081c-.003,1.506.003,3.012,0,4.517h-32.498c-136.5-.321-272.977-.229-409.478,0H.01c-.003-1.463.003-2.925,0-4.388,170.668-.314,341.306.174,511.973-.129Z" fill="#5cee59" stroke-width="0"/>
            <path d="M511.983,72.147c-.002.86.002,1.721,0,2.581-170.654.445-341.314.275-511.973,0-.002-.86.002-1.721,0-2.581h511.973Z" fill="#5cee59" stroke-width="0"/>
            <path d="M511.983,76.794c-.002.774.002,1.549,0,2.323-167.764.212-335.459-.457-503.223-.258-2.301.476-5.855.179-8.75.258-.002-.86.002-1.721,0-2.581q255.986.129,511.973.258Z" fill="#2463ef" stroke-width="0"/>
            <path d="M511.983,79.117c-.002.602.002,1.205,0,1.807-38.667-.16-77.328.011-115.994,0-77.826-.022-155.662-.107-233.487-.129-4.499-.001-9.066.131-13.499.129-25.329-.013-50.667-.111-75.996-.129-24.332-.018-48.664.015-72.996,0-.002-.559.001-1.119,0-1.678,2.894-.079,6.448.218,8.75-.258,167.764-.199,335.459.47,503.223.258Z" fill="#85c9ed" stroke-width="0"/>
            <path d="M511.983,74.729c-.001.688.002,1.377,0,2.065q-255.986-.129-511.973-.258c-.001-.602.001-1.205,0-1.807,170.659.275,341.319.445,511.973,0Z" fill="#b9f0e1" stroke-width="0"/>
            <path d="M70.007,70.599l-2.5.581,3.25.839c138.298.171,276.663.105,414.978,0,5.624-1.654-4.29-.714-6.25-1.42h32.498c-.001.516.001,1.033,0,1.549H.01c-.001-.516.001-1.033,0-1.549h69.996Z" fill="#b3c2c5" stroke-width="0"/>
            <path d="M511.983,80.924c0,.215,0,.43,0,.645-40.498.115-81-.097-121.493-.129-.252-.564,5.964.384,5.5-.516,38.666.011,77.327-.16,115.994,0Z" fill="#80867b" stroke-width="0"/>
            <path d="M479.485,70.599c1.96.706,11.874-.234,6.25,1.42-138.314.105-276.68.171-414.978,0l-3.25-.839,2.5-.581c136.501-.229,272.978-.321,409.478,0Z" fill="#b9f0e1" stroke-width="0"/>
            <path d="M395.989,80.924c.464.9-5.752-.048-5.5.516-74.993-.059-149.994.008-224.988,0,.108-.572-3.541.104-3-.645,77.826.022,155.661.107,233.487.129Z" fill="#778772" stroke-width="0"/>
            <path d="M162.502,80.795c-.541.75,3.108.073,3,.645-5.5,0-11,.001-16.499,0v-.516c4.433.002,9.001-.13,13.499-.129Z" fill="#3dc0a8" stroke-width="0"/>
          </g>
        </g>
        <g>
          <path d="M511.983,11.616c.004.774-.004,1.549,0,2.323-42.001-.104-84.003.321-125.993.387-128.646.203-257.33-.167-385.979,0,.004-.86-.004-1.721,0-2.581q255.986-.065,511.973-.129Z" fill="#8094f3" stroke-width="0"/>
          <path d="M511.983,26.458c.002.817-.002,1.635,0,2.452h-110.994c-53.664,0-107.328-.003-160.991,0-43.838.002-87.652.03-131.493,0-36.159-.025-72.34-.089-108.494.129.002-.903-.003-1.807,0-2.71,92.745.054,185.49.116,278.235.129,21.637.003,43.353-.26,64.997-.258,6.721,0,13.778.256,20.499.258,49.414.013,98.828-.01,148.242,0Z" fill="#2463ef" stroke-width="0"/>
          <path d="M437.987,14.713c.043.108-.191.348.25.387,3.488.309,63.876-.239,73.746,0,.004.731-.003,1.463,0,2.194-170.655.545-341.314.21-511.973.129.003-.817-.004-1.635,0-2.452,31.332-.081,62.663-.003,93.995,0l.25.258c83.492.158,166.99.417,250.487.258,11.008-.021,72.721-.099,76.496-.258.128-.005,1.779-.246,1.75-.387,4.997-.013,9.98-.115,14.999-.129Z" fill="#88987e" stroke-width="0"/>
          <path d="M511.983,23.103c.002.688-.002,1.377,0,2.065-12.008.071-23.996-.103-35.998-.129-115.477-.253-230.998-.092-346.481-.129-7.166-.002-14.333.003-21.499,0-35.99-.013-71.996.272-107.994,0,.002-.602-.002-1.205,0-1.807h511.973Z" fill="#2463ef" stroke-width="0"/>
          <path d="M138.003,20.005c124.659-.082,249.322.031,373.98.129.002.559-.002,1.119,0,1.678H.01c.002-.559-.002-1.119,0-1.678,45.999.102,91.996-.099,137.993-.129Z" fill="#3433f2" stroke-width="0"/>
          <path d="M154.502,8.776c119.159.021,238.323.044,357.481.258.004.559-.003,1.119,0,1.678H.01c0-.086,0-.172,0-.258h148.742c3.301-.918-.932-.809,6.75-1.097-3.709-.306-8.41-.002-8-.452,2.26,0,4.739-.129,7-.129Z" fill="#bef0dd" stroke-width="0"/>
          <path d="M511.983,21.812c.001.43-.002.86,0,1.291H.01c.002-.43-.001-.86,0-1.291h511.973Z" fill="#66a15b" stroke-width="0"/>
          <path d="M511.983,18.714c-122.493-.008-244.987.011-367.48,0-48.163-.004-96.333.101-144.492-.129.001-.387-.002-.774,0-1.162,170.658.081,341.317.416,511.973-.129.002.473-.002.946,0,1.42Z" fill="#5f41e1" stroke-width="0"/>
          <path d="M511.983,10.712c.002.301-.002.602,0,.903Q255.997,11.68.01,11.745c.002-.344-.002-.688,0-1.033h511.973Z" fill="#324c2b" stroke-width="0"/>
          <path d="M511.983,9.035c-119.158-.214-238.321-.237-357.481-.258-2.606-.681-1.615-.427-1-1.291,119.493-.02,238.99.123,358.481-.129.004.559-.004,1.119,0,1.678Z" fill="#bef0dd" stroke-width="0"/>
          <path d="M511.983,18.714c.002.473-.002.946,0,1.42-124.658-.099-249.321-.212-373.98-.129,2.661-.301,2.944-.907,3.75-1.033.635-.099,3.106.21,2.75-.258,122.493.011,244.987-.008,367.48,0Z" fill="#5f804a" stroke-width="0"/>
          <path d="M108.505,28.911l.25.258c17.728-.3,124.621.391,130.993,0,.372-.023.255-.171.25-.258,53.664-.003,107.328,0,160.991,0l.25.258c13.584-.203,85.142.267,89.495,0,.372-.023.255-.171.25-.258h20.999c0,.258,0,.516,0,.774L.01,29.814c0-.258,0-.516,0-.774,36.154-.218,72.335-.154,108.494-.129Z" fill="#2c322b" stroke-width="0"/>
          <path d="M475.985,25.039c-.005.087-.122.235.25.258,4.953.304,28.255-.327,35.748.129,0,.172,0,.344,0,.516q-255.986.065-511.973.129c0-.086,0-.172,0-.258,20.867-.283,139.547.371,146.742,0,.276-.014,4.614-.621,4-.645-5.131-.12-18.357.162-20.999,0-.372-.023-.255-.171-.25-.258,115.483.037,231.004-.124,346.481.129Z" fill="#66a15b" stroke-width="0"/>
          <path d="M385.99,14.326c1.942.617,11.961-.059,18.499.516-103.49.207-206.992.139-310.483.129-31.332-.003-62.663-.081-93.995,0,.001-.215-.001-.43,0-.645,128.649-.167,257.334.203,385.979,0Z" fill="#acc893" stroke-width="0"/>
          <path d="M147.503,8.905c-.41.45,4.29.146,8,.452-7.682.288-3.449.179-6.75,1.097H.01c.003-.559-.004-1.119,0-1.678,49.164-.011,98.328.118,147.492.129Z" fill="#bef0dd" stroke-width="0"/>
          <path d="M511.983,25.942c0,.172,0,.344,0,.516-49.414-.01-98.828.013-148.242,0-6.721-.002-13.778-.258-20.499-.258-21.644-.002-43.36.261-64.997.258-92.745-.013-185.49-.075-278.235-.129,0-.086,0-.172,0-.258q255.986-.065,511.973-.129Z" fill="#8094f3" stroke-width="0"/>
          <path d="M153.502,7.486c-.615.863-1.606.61,1,1.291-2.26,0-4.74.13-7,.129-49.164-.011-98.328-.14-147.492-.129.003-.387-.003-.774,0-1.162,51.162-.203,102.327-.12,153.492-.129Z" fill="#bef0dd" stroke-width="0"/>
          <path d="M144.503,18.714c.356.468-2.114.159-2.75.258-.806.126-1.089.732-3.75,1.033-45.996.03-91.993.231-137.993.129.002-.516-.002-1.033,0-1.549,48.159.23,96.33.125,144.492.129Z" fill="#37552e" stroke-width="0"/>
          <path d="M129.504,24.91c-.005.087-.122.235.25.258,2.642.162,15.868-.12,20.999,0,.614.024-3.724.631-4,.645-7.195.371-125.875-.283-146.742,0,0-.215,0-.43,0-.645,15.161-.246,102.503.322,107.744,0,.372-.023.255-.171.25-.258,7.166.003,14.333-.002,21.499,0Z" fill="#8e9e84" stroke-width="0"/>
          <path d="M511.983,13.939c.001.258-.001.516,0,.774-24.669-.186-49.328-.071-73.996,0-5.02.014-10.002.116-14.999.129-1.166.003-2.333-.003-3.5,0-.479-.34-1.483-.356-2,0-4.332.01-8.667-.009-12.999,0-6.538-.576-16.557.101-18.499-.516,41.99-.066,83.992-.491,125.993-.387Z" fill="#8fc0cd" stroke-width="0"/>
          <path d="M511.983,14.713c0,.129,0,.258,0,.387-9.87-.239-70.258.309-73.746,0-.441-.039-.207-.279-.25-.387,24.668-.071,49.327-.186,73.996,0Z" fill="#acc893" stroke-width="0"/>
          <path d="M108.005,24.91c.005.087.122.235-.25.258-5.241.322-92.584-.246-107.744,0,0-.086,0-.172,0-.258,35.998.272,72.004-.013,107.994,0Z" fill="#80867b" stroke-width="0"/>
          <path d="M511.983,25.168c0,.086,0,.172,0,.258-7.494-.456-30.795.175-35.748-.129-.372-.023-.255-.171-.25-.258,12.002.026,23.99.2,35.998.129Z" fill="#59944b" stroke-width="0"/>
          <g>
            <path d="M290.495,3.227h221.488c.009,1.033-.009,2.065,0,3.098H.01C.02,5.206,0,4.087.01,2.968c96.829.137,193.654.23,290.484.258Z" fill="#7bccf3" stroke-width="0"/>
            <path d="M511.983,6.324c.003.344-.003.688,0,1.033-119.491.252-238.988.109-358.481.129-51.164.009-102.33-.074-153.492.129.003-.43-.004-.86,0-1.291h511.973Z" fill="#1da01e" stroke-width="0"/>
            <path d="M482.985,3.227h-192.49c64.163.019,128.327-.014,192.49,0Z" fill="#cbd2f3" stroke-width="0"/>
          </g>
          <path d="M239.998,28.911c.005.087.122.235-.25.258-6.372.391-113.265-.3-130.993,0l-.25-.258c43.841.03,87.655.002,131.493,0Z" fill="#262f25" stroke-width="0"/>
          <path d="M490.984,28.911c.005.087.122.235-.25.258-4.353.267-75.911-.203-89.495,0l-.25-.258h89.995Z" fill="#262f25" stroke-width="0"/>
          <path d="M404.489,14.842c4.333-.009,8.667.01,12.999,0,.667-.002,1.333.002,2,0,1.166-.003,2.333.003,3.5,0,.029.141-1.622.382-1.75.387-3.775.159-65.488.237-76.496.258-83.496.159-166.995-.1-250.487-.258l-.25-.258c103.491.01,206.994.078,310.483-.129Z" fill="#88987e" stroke-width="0"/>
          <g>
            <path d="M511.983,46.593c.005,3.184.005,6.367,0,9.551-53.896-.158-107.926.325-161.741-.258-116.726.51-233.487.152-350.231.258-.005-3.184-.005-6.367,0-9.551h511.973Z" fill="#00f3e5" stroke-width="0"/>
            <path d="M511.983,34.589c.007,2.882-.005,5.765,0,8.647-116.408.09-232.825-.121-349.231,0-2.593.003-5.906.255-8.5.258-19.531.022-38.981-.283-58.497-.258-.698,0-5.306.257-6,.258-29.914.033-59.831-.024-89.745,0,.005-3.012-.007-6.023,0-9.035h374.73c.448-.001.051-.386.5-.387,30.108-.087,60.398-.079,90.495.129.379.003.121.255.5.258,15.22.108,30.52-.016,45.748.129Z" fill="url(#linear-gradient)" stroke-width="0"/>
            <path d="M511.983,43.237c.002,1.119-.002,2.237,0,3.356H.01c.002-1.033-.002-2.065,0-3.098,29.914-.024,59.831.033,89.745,0,.694,0,5.302-.257,6-.258,19.516-.025,38.966.28,58.497.258,2.593-.003,5.907-.255,8.5-.258,116.407-.121,232.824.09,349.231,0Z" fill="#3433f2" stroke-width="0"/>
            <path d="M511.983,57.047c-.001.731.001,1.463,0,2.194-10.211-.149-20.328.143-30.498.258-3.001.034-5.981-.033-9,0q-43.373-.258-86.745-.516c-22.747.025-45.584-.036-68.246.516-4.357-.042-5.978-.159-11.499-.129-17.455-.745-32.253.229-45.998.387-2.106.024-4.395.064-6.5.129l-.25-.258c-23.064-.068-45.935-.715-68.996-.645-5.377.016-11.089.357-16.499.387-10.625.06-38.623-.177-43.498,0-.1.004-1.7.174-1.75.258-8.15-.006-16.314-.144-24.499-.129-32.653-.718-65.294.049-97.995-.129-.001-.731.001-1.463,0-2.194q255.986-.065,511.973-.129Z" fill="#3433f2" stroke-width="0"/>
            <path d="M511.983,31.879c-16.505-.098-33.001.099-49.497.129-88.971.159-178.009.031-266.986,0-65.165-.023-130.325-.131-195.49-.129.002-.688-.002-1.377,0-2.065l511.973-.129c.002.731-.002,1.463,0,2.194Z" fill="#bef0dd" stroke-width="0"/>
            <path d="M511.983,56.143c0,.301,0,.602,0,.903q-255.986.065-511.973.129c0-.344,0-.688,0-1.033,116.744-.106,233.506.252,350.231-.258,53.815.583,107.845.1,161.741.258Z" fill="#a8a3f3" stroke-width="0"/>
            <path d="M195.5,32.008c-3.584.819-18.45-.442-20.249.774-12.997.198-67.125-.302-71.996-.129-2.71.096-6.973,1.067-14.499.774-.877.515,2.478.052,3.25.387-30.664-.032-61.331.024-91.995,0,.001-.645-.001-1.291,0-1.936,65.165-.002,130.325.106,195.49.129Z" fill="#88987e" stroke-width="0"/>
            <path d="M511.983,34.589c-15.228-.145-30.528-.021-45.748-.129-.379-.003-.121-.256-.5-.258-30.097-.208-60.388-.216-90.495-.129-.448.001-.051.386-.5.387H.01c0-.215,0-.43,0-.645,30.664.024,61.331-.032,91.995,0,123.674.129,247.31.005,370.98,0,16.325,0,32.684.108,48.997-.129,0,.301,0,.602,0,.903Z" fill="#8094f3" stroke-width="0"/>
            <path d="M511.983,31.879c.001.602-.001,1.205,0,1.807-16.313.237-32.673.128-48.997.129,5.932-.805-10.897-1.232,4.5-1.484l-5-.323c16.497-.03,32.993-.227,49.497-.129Z" fill="#88987e" stroke-width="0"/>
            <path d="M462.486,32.008l5,.323c-15.397.252,1.432.679-4.5,1.484-123.67.005-247.307.129-370.98,0-.772-.335-4.127.127-3.25-.387,7.527.293,11.789-.678,14.499-.774,4.871-.173,58.999.327,71.996.129,1.799-1.217,16.664.045,20.249-.774,88.976.031,178.014.159,266.986,0Z" fill="#a4df7d" stroke-width="0"/>
          </g>
          <path d="M419.488,14.842c-.667.002-1.333-.002-2,0,.517-.356,1.52-.34,2,0Z" fill="#acc893" stroke-width="0"/>
        </g>
      </g>
      <path d="M511.983.129c.014,1.032-.009,2.065,0,3.098h-28.998c-64.163-.014-128.327.019-192.49,0-96.83-.028-193.656-.122-290.484-.258C.02,1.979-.004.989.01,0l511.973.129Z" fill="#a4df7d" stroke-width="0"/>
    </g>
  </g>
</svg>