<?xml version="1.0" encoding="UTF-8"?>
<svg id="Layer_2" data-name="Layer 2" xmlns="http://www.w3.org/2000/svg" xmlns:xlink="http://www.w3.org/1999/xlink" viewBox="0 0 1007 200.248">
  <defs>
    <linearGradient id="linear-gradient" x1="-1000.245" y1="-599.22" x2="-1088.74" y2="-313.116" gradientTransform="translate(1187.491 311.012) scale(.459)" gradientUnits="userSpaceOnUse">
      <stop offset="0" stop-color="#8d1f3b"/>
      <stop offset=".46" stop-color="#be6929"/>
      <stop offset="1" stop-color="#e39334"/>
    </linearGradient>
    <linearGradient id="linear-gradient-2" x1="-1371.53" y1="-592.016" x2="-1382.89" y2="-557.724" gradientTransform="translate(1187.491 311.012) scale(.459)" gradientUnits="userSpaceOnUse">
      <stop offset="0" stop-color="#c0dfe6"/>
      <stop offset="1" stop-color="#84d0e2"/>
    </linearGradient>
  </defs>
  <g id="Layer_1-2" data-name="Layer 1">
    <g id="shape4">
      <g>
        <path d="M1006.804,124.054c-.017,5.111.021,10.223,0,15.334-13.571-5.079-30.579-9.375-46.209-13.989-16.439-4.853-18.368-7.16-43.751-12.375-7.983-1.64-30.73-4.437-32.936-6.591-1.723-1.682,6.851-1.574-16.222-4.17-23.854-1.134-49.667-.049-68.821,5.111-3.038.818-13.297,4.699-14.256,5.515-3.182,2.707.4,9.914-3.933,12.913,1.174,6.599-12.637,15.989-23.596,21.925-4.765-.809,1.877-3.459,3.933-7.129,4.91-8.765,11.944-27.991-1.475-35.646-3.351,2.504.463,2.154.492,2.287,2.304,10.786-2.101,29.835-24.579,39.008-19.632,8.012-70.317,15.627-105.69,14.662-6.879-.188-13.832-1.24-15.239-1.345-5.309-.398-10.644-.756-15.731-1.345v-2.421c31.148,4.449,65.232,3.986,93.892-1.614,17.369-3.394,22.747-6.802,29.003-12.106,29.923-25.367-15.402-38.281,50.633-53.267,47.066-10.681,85.9-5.823,128.794,3.228,41.994,8.861,73.404,20.666,105.69,32.014Z" fill="#edac37" stroke-width="0"/>
        <path d="M298.927,76.168c-18.001,8.612-34.023,17.483-52.108,26.095-31.347,6.013-66.274,9.085-104.707,8.34-4.133-.08-27.31-1.79-29.003-1.211,9.341,2.824,59.766,15.304,65.38,16.276,14.851,2.57,27.096,2.799,42.768,3.766-4.445.784-15.004,2.318-19.663,2.69-19.709,1.575-41.777.867-59.973-1.883-14.669-2.217-37.831-8.778-47.192-12.644-14.306-5.908-21.477-12.661-32.444-18.966-17.463-10.04-35.911-19.677-50.141-30.131-2.206-1.621-5.666-6.813-11.798-8.205.012-2.87-.013-5.739,0-8.609,23.807,16.781,54.687,40.698,118.471,48.962,81.13,10.512,137.267-8.456,180.41-24.481Z" fill="#f3f6f3" stroke-width="0"/>
        <path d="M933.067,55.453c19.871,5.947,49.675,8.269,73.737,12.644.004,1.166-.003,2.332,0,3.497-15.546-3.105-31.523-5.965-48.175-8.609-.938-.149-7.481-1.934-18.189-3.228-33.662-4.068-76.696-4.723-113.064-4.304-34.722,2.018-66.703,3.934-97.825,8.609-7.13,1.071-10.25,1.686-16.714,2.959-11.179,2.202-18.787,3.41-27.529,6.591-2.155.784-22.779,10.431-23.596,11.03-.198.145,1.982.37,1.966.404-.184.401-3.76.815-.983,1.076-2.972,1.254-2.776,1.537-2.949,1.614-.036.016-.233-.077-.983.269-7.477,3.449-13.625,7.146-21.63,10.492-20.754,5.055-48.945,10.128-78.161,8.609-5.924-.308-13.185-1.635-19.172-2.152-6.522-1.971-10.992-3.002-4.916-5.65,4.918-2.143,15.817-2.192,24.087-1.883,2.676.1,2.267.802,2.458.807-23.565,2.978,27.737,3.836,49.65-.538,20.493-4.091,23.269-12.753,35.885-18.428l-1.966-.942c7.964-3.818,13.272-8.503,23.596-12.51,27.319-10.601,65.733-14.184,111.097-15.469,53.637-1.519,103.244-.255,153.373,5.111Z" fill="#f8d781" stroke-width="0"/>
        <path d="M49.203,102.532c12.11,4.357,21.595,9.296,33.428,13.72,14.873,5.561,35.442,12.07,58.498,14.796l.492-.807c18.196,2.75,40.264,3.458,59.973,1.883,3.066.981,19,.065,27.529-.538-26.719,2.768-36.153,5.562-67.347,4.573-32.886-1.043-80.15-11.32-94.384-19.639-11.223,3.181-15.655-4.347-30.478-8.609-11.104.877,1.842,4.79,9.34,8.878-4.19,1.025,2.522,5.204,3.933,7.129.282.385-4.344,1.596,6.882,7.264h-1.966C29.697,121.802,13.099,111.157.045,100.111c.002-2.69-.006-5.38,0-8.071,13.603,3.593,17.099,2.145,30.97,4.573,7.007,1.756,12.488,3.867,18.189,5.919Z" fill="#96d9e8" stroke-width="0"/>
        <path d="M408.058,131.587c2.438,1.056-13.6,5.804-22.613,9.685-25.58,11.015-32.188,17.313-37.36,30.4-15.725,9.044-23.148,18.364-57.515,23.943-11.073,1.798-24.906,2.522-34.902,4.573-3.933,0-7.865,0-11.798,0v-2.421c31.816-4.115,75.568-19.028,89.468-27.844,17.418-11.047,19.985-28.358,74.72-38.336Z" fill="#c3e0e5" stroke-width="0"/>
        <path d="M978.292,80.203c1.869,1.178,23.064,9.802,28.512,12.106.002.717-.001,1.435,0,2.152-14.568-4.07-35.142-14.038-57.023-13.451-12.141-3.304-38.344-7.76-54.074-9.685,0-.583-9.276-1.677-11.306-1.883-34.447-3.494-63.835-.251-42.768-4.304,57.55-1.215,96.218,4.398,136.66,15.065Z" fill="#1a2644" stroke-width="0"/>
        <path d="M139.654,162.525c-5.272,1.004,26.366,2.362,30.97,2.421,14.367.184,24.71-1.164,37.852-1.345-6.091.874-16.804,2.309-23.104,2.69-22.188,1.341-51.514.024-72.754-2.152-20.023-2.051-58.774-9.061-72.262-13.586-17.493-5.868-23.998-13.745-40.31-19.773-.014-4.394.012-8.788,0-13.182,24.43,19.608,48.879,43.719,139.609,44.927Z" fill="#bc3f73" stroke-width="0"/>
        <path d="M94.429,117.598c-5.738.245-6.728-3.1-11.798-1.345-11.832-4.424-21.318-9.363-33.428-13.72C30.271,90.488,15.71,78.044.045,65.676c.006-1.793-.007-3.587,0-5.38,6.132,1.393,9.592,6.584,11.798,8.205,14.23,10.453,32.678,20.091,50.141,30.131,10.967,6.305,18.138,13.058,32.444,18.966Z" fill="#dbe5dc" stroke-width="0"/>
        <path d="M49.203,102.532c-5.701-2.051-11.181-4.163-18.189-5.919-13.87-2.428-17.366-.98-30.97-4.573.019-8.788-.03-17.576,0-26.364,15.665,12.368,30.226,24.812,49.158,36.856Z" fill="#edac37" stroke-width="0"/>
        <path d="M995.006.034c-1.056.889-1.494,1.768-1.966,2.69-.848,1.656-.465,3.005-.983,4.304-.975,2.444-3.701,1.165-4.916,2.287-.738.682.998,8.323-3.933,14.124-1.29,1.518-5.851,6.395-13.273,6.457-26.699-2.154-21.786-4.14-26.054-8.878,12.676,1.373,17.177-2.995,21.63-5.38.18-.097,1.737-.19,3.933-1.883,1.11,3.472-7.303,10.53-2.458,10.492,4.731-3.232,18.991-9.57,16.222-12.913,4.21-6.996-.75-5.029-1.966-5.515-.6-.24-1.136-5.066-1.966-5.784,5.229.022,10.512-.062,15.731,0Z" fill="#d35b6b" stroke-width="0"/>
        <path d="M1006.804,94.462c.009,4.573.01,9.147,0,13.72-16.831-9.256-29.571-19.701-57.023-27.171,21.882-.587,42.456,9.381,57.023,13.451Z" fill="#023e56" stroke-width="0"/>
        <path d="M958.629,62.986c16.652,2.644,32.629,5.504,48.175,8.609.006,2.152-.006,4.304,0,6.457-19.971-6.938-41.28-11.322-71.771-14.258,8.571-1.072,19.259,1.013,20.646-.807.563.061,1.964-.036,2.949,0Z" fill="#016081" stroke-width="0"/>
        <path d="M953.713,57.874c6.8.872,14.062,1.718,20.646,2.69,11.116,1.641,21.023,3.876,32.444,5.38.002.717-.002,1.435,0,2.152-24.062-4.375-53.866-6.697-73.737-12.644,7.001.749,13.839,1.548,20.646,2.421Z" fill="#e28fa3" stroke-width="0"/>
        <g>
          <path d="M19.708,175.976c5.454,1.58,8.173,2.432,14.747,3.766,14.446,2.932,90.653,14.068,111.589,15.065,7.815-.03,15.309.423,23.104.538,42.575.626,82.874-1.49,114.047-9.954-27.503,7.863-30.483,6.241-58.99,12.241-2.43,2.864,15.28.701,19.663.135v2.421c-53.744-.013-107.496.062-161.239,0-24.067-7.145-58.448-10.63-82.586-17.756-.078-4.304.038-8.609,0-12.913,7.126,2.019,12.622,4.416,19.663,6.457Z" fill="#2ba8cf" stroke-width="0"/>
          <g>
            <path d="M82.631,200.188c-21.928-.025-43.96.147-65.872,0-4.983-3.12-9.178-6.406-16.714-9.147-.124-2.869.052-5.74,0-8.609,24.138,7.126,58.519,10.611,82.586,17.756Z" fill="#1a98c1" stroke-width="0"/>
            <path d="M16.759,200.188c-5.565-.037-11.147.027-16.714,0-.097-3.048.132-6.099,0-9.147,7.535,2.741,11.73,6.026,16.714,9.147Z" fill="#006a87" stroke-width="0"/>
          </g>
        </g>
        <g>
          <path d="M977.309.034c-6.176,6.387,5.189,10.441,5.899,11.299,2.769,3.343-11.491,9.681-16.222,12.913-4.845.038,3.567-7.02,2.458-10.492-.389-1.216,1.391-1.913-3.933-2.69-.894-1.798-9.193-5.733-6.882-11.03,6.225.013,12.455-.022,18.68,0Z" fill="#edac37" stroke-width="0"/>
          <path d="M979.275.034c.831.719,1.367,5.544,1.966,5.784,1.217.486,6.176-1.481,1.966,5.515-.71-.858-12.075-4.912-5.899-11.299.655.002,1.311-.003,1.966,0Z" fill="#ff975c" stroke-width="0"/>
        </g>
        <path d="M1002.871.034c.607.895-.942,1.415-.983,1.883-1.083.415-2.218,1.126-2.949,1.614l-5.899-.807c.472-.922.91-1.801,1.966-2.69,2.527.03,5.622-.09,7.865,0Z" fill="#1a98c1" stroke-width="0"/>
        <path d="M1004.838.034l1.966,1.076c.263.492-.101,1.093,0,1.614l-4.916-.538c-.025-.088-.008-.181,0-.269.041-.468,1.59-.988.983-1.883.632.025,1.321-.012,1.966,0Z" fill="#dac4dc" stroke-width="0"/>
        <path d="M1006.804,2.724c.155.802-.058,1.617,0,2.421-3.403-.761-4.581-1.806-4.916-2.959l4.916.538Z" fill="#e28fa3" stroke-width="0"/>
        <path d="M1004.838.034c3.158-.163,1.568.331,1.966,1.076l-1.966-1.076Z" fill="#cba78f" stroke-width="0"/>
        <g>
          <path d="M861.296,20.211c9.222,1.205,18.972,1.848,28.02,3.228,16.966,2.588,58.639,14.539,69.313,19.773-21.52-.569-61.012-10.98-67.838-5.515-18.871-3.725-59.264-6.722-82.094-5.919-6.958.245-35.431,3.121-32.936,5.65-.736-.196-2.788-.391-2.949-.807,11.77-3.915,16.911-9.388,36.869-13.182,24.294-4.619,42.25-2.967,51.616-3.228Z" fill="#1a2644" stroke-width="0"/>
          <path d="M775.761,37.428c6.927,1.848,12.541,4.511,29.986,6.457,34.96,3.899,63.605.488,146.983,12.644l.983,1.345c-6.807-.873-13.645-1.672-20.646-2.421-50.13-5.366-99.736-6.63-153.373-5.111-20.594.45-27.008-2.097-43.751-4.842l1.475-.807c4.623-.822,8.463-1.784,12.781-2.69,8.454-1.775,15.561-3.035,22.613-5.38.161.416,2.213.611,2.949.807Z" fill="#023e56" stroke-width="0"/>
        </g>
        <path d="M543.734,66.483c-2.415.46,1.075,1.586-3.933,1.345-8.806-2.635-14.532-5.395-29.986-8.34-48.466-9.235-110.18-5.067-112.572-.269-47.301,1.013-72.405,8.858-94.384,19.37-1.317-.749,2.924-4.739,3.933-5.38,4.047-2.572,23.763-8.991,31.953-10.761,17.511-3.784,25.209-3.053,26.545-3.228,6.276-.823,16.3-2.58,17.205-2.69,34.806-4.247,52.485-7.005,93.892-4.842,35.606,1.86,49.455,7.228,67.347,14.796Z" fill="#f0bab6" stroke-width="0"/>
        <path d="M302.859,78.589c-11.562,5.53-28.624,15.539-36.377,21.522,2.318-3.19-16.319,4.695-25.071,7.533l-2.458-.807c4.015-1.868,7.352-4.329,7.865-4.573,18.085-8.613,34.107-17.484,52.108-26.095,2.145-1.026,4.833-2.102,7.865-2.959-1.009.641-5.25,4.632-3.933,5.38Z" fill="#f0cdba" stroke-width="0"/>
        <path d="M750.198,42.002c-4.318.906-8.158,1.869-12.781,2.69-25.481,4.528-50.837,5.978-72.754,15.872-4.919-.667,15.593-3.864-.983-3.766,21.086-8.183,50.439-13.193,86.518-14.796Z" fill="#9d1f48" stroke-width="0"/>
        <path d="M664.663,60.565c-10.152,4.583-11.136,7.383-16.714,12.106q-4.424-.135-8.848-.269c.043-.088-.034-.18,0-.269,5.712-4.59,10.408-9.259,19.663-13.451.758-.343,3.591-1.369,4.916-1.883,16.576-.098-3.936,3.099.983,3.766Z" fill="#ac2f63" stroke-width="0"/>
        <path d="M575.195,137.774c4.451,1.304,14.874,3.518,20.646,4.304,16.35,6.172,41.835,8.756,68.33,6.188,8.157-.791,18.169-3.088,19.172-3.228,2.383-.333,1.87-.731,2.458-.807,3.458-.45,28.288-1.397,35.885-2.152-6.256,5.304-11.634,8.712-29.003,12.106-28.66,5.6-62.744,6.063-93.892,1.614-47.424-6.774-69.437-25.063-92.417-37.663,1.543.175,4.192-.255,4.916-.135,4.216.701,37.464,19.626,63.906,19.773Z" fill="#edac37" stroke-width="0"/>
        <path d="M757.081,147.728c-8.44,4.572-25.499,11.737-39.327,15.065-1.77.426-10.205,2.328-10.815,2.421-1.253.191-12.437,1.356-15.239,1.614-1.376.127-16.35.346-16.222,1.076-10.347.299-20.066.307-30.478.269-4.701-4.026-42.53-3.083-30.478-8.609,1.407.105,8.36,1.157,15.239,1.345,35.373.965,86.058-6.65,105.69-14.662,22.478-9.173,26.883-28.222,24.579-39.008-.028-.133-3.842.218-.492-2.287,13.419,7.655,6.385,26.88,1.475,35.646-2.055,3.67-8.698,6.321-3.933,7.129Z" fill="#f49419" stroke-width="0"/>
        <path d="M461.149,108.451c2.292,1.334,28.692,9.08,30.97,9.147.722.021,2.02-1.319,13.273-.538.34.184.643.89.983,1.076,22.981,12.6,44.993,30.89,92.417,37.663v2.421c-25.834-2.991-51.223-10.714-65.872-17.218-13.455-5.974-21.341-16.232-36.377-21.656-19.75-7.125-32.904-6.086-34.902-6.322-1.181-.139-1.459-2.56-21.138-3.228-18.595-.632-52.565-.127-57.023,6.188-7.669.028-12.785,2.005-19.663,2.69.262-.35-1.462-3.451,5.899-6.86,5.089-2.357,11.395-2.957,18.68-4.17,2.314,2.486,21.883-2.549,45.717-1.883,15.272.427,22.51,3.391,27.037,2.69Z" fill="#e46623" stroke-width="0"/>
        <path d="M598.791,158.22c5.087.589,10.421.947,15.731,1.345-12.052,5.526,25.777,4.583,30.478,8.609-21.36-.077-44.275-.577-62.922-3.766-10.907-1.865-48.164-13.113-55.057-16.949.782.181,13.421,1.748,17.697,2.825-4.555-2.896-19.69-6.645-11.798-9.281,14.649,6.504,40.038,14.226,65.872,17.218Z" fill="#d35752" stroke-width="0"/>
        <path d="M534.886,99.304c-6.076,2.648-1.606,3.678,4.916,5.65-1.311-.113-3.995.107-5.407,0-4.253-.324-12.513-2.709-12.29,0-3.588-.59-7.745-1.289-11.798-1.614-3.67-1.144-25.401-5.767-39.327-10.088-3.992-1.239-10.029-5.878-23.596-7.398-60.956-13.615-139.075,4.071-144.525,22.329-4.051,3.338-10.992,12.006-13.764,15.872-2.202,3.072-4.494,6.837-4.916,9.954-13.009,12.18-33.179,23.492-75.704,29.593-13.142.181-23.485,1.529-37.852,1.345-4.604-.059-36.242-1.418-30.97-2.421,62.34.83,98.008-9.342,120.929-23.943,27.908-17.777,16.502-29.102,41.293-44.792,25.873-16.375,78.224-25.666,143.05-18.428,39.47,4.407,45.683,12.307,57.515,17.083,6.494,2.622,20.831,7.931,32.444,6.86Z" fill="#ca588d" stroke-width="0"/>
        <path d="M423.788,91.502c.381.062.979.722,1.475.807.447.077,4.511.379,9.34,1.345,18.117,4.513,4.679,1.742-1.475,1.076-33.909-3.668-65.856.841-89.959,7.264-.254.068-2.174-.078-2.458,0-33.844,9.34-30.325,21.319-32.936,33.493l4.916.673c5.371.572,5.968-2.082,6.882-3.497l2.949-.673c.857,7.566-.963,14.722-9.832,21.925-2.097.008-2.911.143-2.949-.404-.067-.959,15.21-12.616,3.933-10.626-4.404-1.52-7.594-3.238-12.781-4.573.201-2.148-.068-4.307,0-6.457.03-.95-.987-2.296-.983-4.304.007-3.78,1.579-7.521.983-11.299,8.022-7.353,14.084-14.862,34.411-20.715,16.316-4.698,46.39-8.207,70.296-6.726,5.142.319,13.486,1.926,18.189,2.69Z" fill="#f49419" stroke-width="0"/>
        <g>
          <path d="M300.893,131.856c-13.425,14.793-19.96,29.607-58.99,41.43-15.505,4.697-38.74,8.571-40.31,9.147-4.325-1.274-27.25,1.377-42.768,1.614-34.974.535-77.356-5.967-101.757-12.644-20.242-5.539-40.459-15.744-57.023-22.329-.027-6.098.019-12.196,0-18.294,16.312,6.028,22.817,13.905,40.31,19.773,13.489,4.525,52.24,11.534,72.262,13.586,21.24,2.176,50.566,3.493,72.754,2.152,6.301-.381,17.013-1.816,23.104-2.69,42.525-6.101,62.694-17.412,75.704-29.593,2.079-1.947,2.926-3.978,4.916-5.919l10.815-.538c-.004,2.009,1.013,3.355.983,4.304Z" fill="#016081" stroke-width="0"/>
          <path d="M57.069,171.402c-41.633,3.146-18.529,8.844-37.36,4.573-7.041-2.04-12.537-4.438-19.663-6.457-.06-6.815.03-13.631,0-20.446,16.564,6.585,36.781,16.79,57.023,22.329Z" fill="#1a2644" stroke-width="0"/>
          <path d="M201.594,182.432c-.121.044-.851.857-.983,1.076-18.784,2.609-30.853,3.746-52.108,4.304-52.623,1.382-69.608-2.857-113.555-9.685l-.492,1.614c-6.575-1.334-9.293-2.186-14.747-3.766,18.831,4.27-4.273-1.428,37.36-4.573,24.401,6.677,66.783,13.179,101.757,12.644,15.517-.237,38.442-2.888,42.768-1.614Z" fill="#1a2644" stroke-width="0"/>
        </g>
        <path d="M300.893,138.312c-.28,2.989-.543,4.046-1.966,6.995-.126.262.144.547,0,.807-3.716,6.69-16.687,15.67-31.461,21.118-5.627,2.075-16.488,4.674-23.596,6.86-1.37.421-2.257,1.118-4.916,1.076,1.204-.578,3.113-1.17,2.949-1.883,39.03-11.823,45.565-26.637,58.99-41.43-.068,2.15.201,4.308,0,6.457Z" fill="#96d9e8" stroke-width="0"/>
        <path d="M299.91,127.551l-10.815.538c.811-.791,1.119-1.609,1.966-2.421,3.293-3.157,6.391-6.262,9.832-9.416.596,3.778-.976,7.519-.983,11.299Z" fill="#1a98c1" stroke-width="0"/>
        <path d="M238.954,175.169c-6.919,3.32-22.444,5.975-34.411,7.802-1.275.195-2.628.357-3.933.538.133-.219.862-1.032.983-1.076,1.57-.576,24.805-4.45,40.31-9.147.164.714-1.746,1.306-2.949,1.883Z" fill="#1a98c1" stroke-width="0"/>
        <path d="M291.061,125.668c-.847.812-1.156,1.631-1.966,2.421-1.99,1.941-2.837,3.972-4.916,5.919.422-3.117,2.714-6.882,4.916-9.954l1.966,1.614Z" fill="#dddde0" stroke-width="0"/>
        <path d="M834.751,68.904c15.637-.001,30.062,2.714,24.579,5.246-3.015,1.392-63.311,5.809-74.229,7.129-47.629,5.759-52.558,15.788-60.465,28.517-1.23-1.391,2.433-2.99-2.949-2.018-11.073,12.626-30.433,24.954-58.99,35.377-23.834,1.674-43.999,2.037-66.855-1.076-5.772-.786-16.195-3-20.646-4.304-9.206-2.698-15.752-6.447-19.663-9.954,14.252,2.365,48.906,1.419,64.397-.269,51.091-5.566,61.46-25.298,93.892-39.816,23.658-7.176,86.6-18.829,120.929-18.832Z" fill="url(#linear-gradient)" stroke-width="0"/>
        <path d="M724.636,109.796c-2.486,4.002.743,7.887-10.815,16.814-11.865,9.164-31.054,14.144-32.444,14.931-5.839.949-12.304,1.166-18.68,1.614,28.557-10.423,47.917-22.75,58.99-35.377,5.382-.972,1.72.627,2.949,2.018Z" fill="#f49419" stroke-width="0"/>
        <path d="M683.343,145.038c-1.002.14-11.015,2.438-19.172,3.228-26.495,2.568-51.98-.016-68.33-6.188,22.856,3.113,43.021,2.75,66.855,1.076,6.376-.448,12.841-.665,18.68-1.614-2.274,1.287-4.143,3.025,1.966,3.497Z" fill="#edac37" stroke-width="0"/>
        <g>
          <path d="M895.707,71.325c15.73,1.925,41.933,6.381,54.074,9.685,27.452,7.47,40.193,17.915,57.023,27.171-.012,5.291.017,10.582,0,15.872-32.286-11.348-63.696-23.152-105.69-32.014-42.894-9.051-81.728-13.91-128.794-3.228-66.035,14.986-20.71,27.9-50.633,53.267-7.597.755-32.428,1.702-35.885,2.152-.588.077-.075.474-2.458.807-6.109-.472-4.24-2.211-1.966-3.497,1.391-.787,20.58-5.767,32.444-14.931,11.558-8.927,8.329-12.812,10.815-16.814,7.907-12.728,12.836-22.758,60.465-28.517,10.918-1.32,71.214-5.737,74.229-7.129,5.483-2.532-8.942-5.247-24.579-5.246l.983-1.076c22.834-.111,39.408.981,59.973,3.497Z" fill="#2ba8cf" stroke-width="0"/>
          <path d="M835.734,67.828l-.983,1.076c-34.329.002-97.271,11.656-120.929,18.832,16.213-7.258,34.317-12.051,62.922-15.872,17.508-2.339,39.489-3.941,58.99-4.035Z" fill="#0387b2" stroke-width="0"/>
        </g>
        <path d="M841.633,65.138c-21.067,4.054,8.321.81,42.768,4.304,2.031.206,11.306,1.3,11.306,1.883-20.565-2.516-37.139-3.608-59.973-3.497-19.501.095-41.481,1.696-58.99,4.035.011-1.647,11.584-3.428,16.714-4.035,10.74-1.271,35.952-2.432,48.175-2.69Z" fill="#25233d" stroke-width="0"/>
        <path d="M397.243,59.219c-3.496,7.012,42.416,7.892,46.7,8.34,27.275,2.851,51.703,19.382,74.72,24.212,34.764,7.294,79.539,4.476,106.673-4.304.737-.238,2.54-.534,3.933-1.076,2.017,3.326-12.364,8.31-22.121,9.954-14.272,2.405-29.755,2.345-45.717,1.883-.191-.006.219-.707-2.458-.807-8.27-.309-19.169-.26-24.087,1.883-11.613,1.071-25.95-4.239-32.444-6.86-11.832-4.776-18.045-12.676-57.515-17.083-64.826-7.237-117.178,2.053-143.05,18.428-24.791,15.69-13.385,27.015-41.293,44.792l-1.966-.404c-7.473,4.356-30.542,11.001-47.192,12.51-22.403-5.408,16.293-2.246,18.68-13.989,8.723-3.826,11.862-7.582,15.731-11.837.967-1.063-.171-3.584,0-3.766.04-.042,2.718.116,2.949-.135,4.205-4.557,13.236-10.606,7.865-10.895,3.865-3.095,6.432-7.33,9.832-9.954,7.753-5.983,24.815-15.992,36.377-21.522,21.978-10.512,47.083-18.357,94.384-19.37Z" fill="#f0bab6" stroke-width="0"/>
        <path d="M246.819,102.263c-.513.244-3.85,2.706-7.865,4.573-11.012,5.123-11.792,5.53-31.461,9.012,1.638,5.718,38.384,1.425,24.579,5.919l.983.673c2.605.68,10.158-1.044,10.815-1.614,1.759-.267,2.071-.436,1.966.269-.171.182.967,2.703,0,3.766-2.725-.799,1.339-2.725-3.441-2.421-1.675.106,4.094,2.544-21.138,6.995-15.672-.967-27.916-1.196-42.768-3.766-5.614-.972-56.039-13.452-65.38-16.276,1.693-.579,24.87,1.13,29.003,1.211,38.433.746,73.36-2.327,104.707-8.34Z" fill="#c3e0e5" stroke-width="0"/>
        <path d="M229.122,131.587l1.966.404c-25.539,10.742-58.966,12.633-102.741,9.012-47.462-3.926-62.008-13.26-82.094-24.212-7.498-4.088-20.444-8.001-9.34-8.878,14.823,4.262,19.255,11.79,30.478,8.609,14.234,8.319,61.497,18.596,94.384,19.639,31.193.989,40.628-1.806,67.347-4.573Z" fill="#2ba8cf" stroke-width="0"/>
        <g>
          <path d="M46.254,116.791c20.086,10.952,34.632,20.286,82.094,24.212,43.774,3.621,77.202,1.73,102.741-9.012l-1.966-.404c-8.529.603-24.463,1.519-27.529.538,4.66-.372,15.218-1.906,19.663-2.69,25.232-4.45,19.463-6.888,21.138-6.995,4.78-.304.716,1.623,3.441,2.421-3.869,4.255-7.008,8.011-15.731,11.837-16.365,7.179-40.477,6.929-41.293,13.048,3.401,2.929,15.162,1.617,22.613.942,16.65-1.508,39.719-8.154,47.192-12.51l1.966.404c-22.921,14.601-58.589,24.773-120.929,23.943C48.924,161.317,24.475,137.205.045,117.598c-.016-5.829-.004-11.658,0-17.487,13.054,11.046,29.652,21.691,55.057,31.072h1.966c-11.227-5.668-6.6-6.879-6.882-7.264-1.411-1.925-8.123-6.104-3.933-7.129Z" fill="#c3e0e5" stroke-width="0"/>
          <path d="M49.695,136.16c61.905,20.999,131.558,15.29,131.252,17.352-13.949.465-35.659,3.467-43.751,3.632-36.306.738-85.751-10.549-87.502-20.984Z" fill="#96d9e8" stroke-width="0"/>
        </g>
        <path d="M211.425,150.688c-7.451.675-19.212,1.987-22.613-.942.816-6.119,24.928-5.869,41.293-13.048-2.387,11.743-41.083,8.581-18.68,13.989Z" fill="#ca588d" stroke-width="0"/>
        <path d="M94.429,117.598c9.361,3.866,32.522,10.427,47.192,12.644l-.492.807c-23.056-2.727-43.625-9.235-58.498-14.796,5.07-1.755,6.06,1.59,11.798,1.345Z" fill="#c3e0e5" stroke-width="0"/>
        <path d="M794.441,67.29l-.983.538c-5.13.607-16.703,2.389-16.714,4.035-28.605,3.821-46.709,8.615-62.922,15.872-32.432,14.518-42.801,34.249-93.892,39.816-15.492,1.688-50.146,2.634-64.397.269-5.284-.877-10.007-3.418-12.781-4.842,6.025-.88,20.36.586,30.97.269,30.269-.905,61.607-8.819,75.212-16.007,5.566-2.941,28.729-19.733,10.815-19.504.173-.077-.023-.36,2.949-1.614.823-.347,2.177-.61,1.966-1.076,1.206.029.924-.259.983-.269,3.261-.565,8.702-2.04,12.781-1.883l3.933.673c-2.046,17.607-24.817,35.928-84.552,44.658l1.475.404c63.341-2.974,79.302-22.133,98.808-35.915.46-.325-1.074-1.281-.983-1.345.257-.18,2.124.483,7.865-2.959.436-.262-.437-1.087,0-1.345,7.668-4.527,18.495-8.357,32.936-11.434,11.99-2.555,26.23-3.867,30.97-5.65,8.698-.798,16.768-1.914,25.562-2.69Z" fill="#9d1f48" stroke-width="0"/>
        <path d="M542.751,122.978c-.083-.043-.442.082-1.966-.807-6.069-3.542-9.368-8.59-14.747-11.837,26.433-1.904,26.802,1.421,40.801,3.228,53.472,6.902,80.928-15.207,91.926-25.557.751-.346.947-.253.983-.269,17.914-.228-5.249,16.564-10.815,19.504-13.605,7.188-44.943,15.102-75.212,16.007-10.61.317-24.945-1.149-30.97-.269Z" fill="#1a2644" stroke-width="0"/>
        <path d="M737.417,44.692l-1.475.807c16.743,2.745,23.156,5.293,43.751,4.842-45.365,1.285-83.778,4.868-111.097,15.469-10.324,4.006-15.632,8.692-23.596,12.51-.474.227-.779.523-1.966.538,2.053-1.633,3.027-4.588,4.916-6.188,5.578-4.723,6.562-7.523,16.714-12.106,21.917-9.895,47.273-11.344,72.754-15.872Z" fill="#1a2644" stroke-width="0"/>
        <path d="M526.037,110.334c-1.762-1.064-13.395-6.267-15.731-6.995,4.053.325,8.21,1.024,11.798,1.614,8.279,1.361,19.915,3.583,29.003,4.304,39.225,3.112,65.527-2.193,86.027-10.761,8.004-3.345,14.153-7.043,21.63-10.492-10.998,10.35-38.454,32.459-91.926,25.557-13.999-1.807-14.368-5.132-40.801-3.228Z" fill="#9d1f48" stroke-width="0"/>
        <path d="M637.135,98.497c-20.5,8.568-46.802,13.873-86.027,10.761-9.088-.721-20.724-2.944-29.003-4.304-.224-2.709,8.036-.324,12.29,0,1.413.107,4.096-.113,5.407,0,5.986.517,13.247,1.844,19.172,2.152,29.217,1.519,57.407-3.554,78.161-8.609Z" fill="#e28fa3" stroke-width="0"/>
        <path d="M958.629,62.986c-.985-.036-2.387.061-2.949,0-13.574-1.467-26.524-3.309-40.801-4.304-40.842-2.849-90.637-2.563-131.252.538-15.169,1.158-30.579,2.969-44.242,5.111l-9.832-.269c31.122-4.675,63.103-6.591,97.825-8.609,36.367-.419,79.402.236,113.064,4.304,10.708,1.294,17.251,3.079,18.189,3.228Z" fill="#c3e0e5" stroke-width="0"/>
        <path d="M561.431,98.228c15.963.462,31.445.522,45.717-1.883,9.757-1.644,24.138-6.628,22.121-9.954,2.466-.96,12.367-6.421,13.764-7.533,1.187-.015,1.493-.311,1.966-.538l1.966.942c-12.617,5.675-15.392,14.337-35.885,18.428-21.913,4.374-73.215,3.516-49.65.538Z" fill="#f47927" stroke-width="0"/>
        <path d="M712.838,67.021c1.076,2.086.296,1.697-.983,2.421-2.083,1.179-29.184,6.963-33.428,13.451-4.079-.156-9.52,1.318-12.781,1.883l-1.966.269c.015-.033-2.164-.258-1.966-.404.816-.599,21.441-10.246,23.596-11.03,8.741-3.181,16.349-4.389,27.529-6.591Z" fill="#f19c85" stroke-width="0"/>
        <path d="M729.552,64.062l9.832.269c-9.525,1.493-18.123,3.555-27.529,5.111,1.279-.724,2.06-.335.983-2.421,6.464-1.273,9.584-1.888,16.714-2.959Z" fill="#e19ea4" stroke-width="0"/>
        <path d="M662.697,86.122c-2.777-.261.8-.675.983-1.076h.983c.21.466-1.143.729-1.966,1.076Z" fill="#f19c85" stroke-width="0"/>
        <g>
          <path d="M890.791,37.697c4.915.97,11.935,3.482,16.222,4.304,9.281,1.78,23.462,3.626,29.495,4.842,23.958,4.832,45.714,10.45,70.296,15.065.004,1.076-.004,2.152,0,3.228-10.399-1.651-21.071-3.19-31.461-4.842-7.556-1.202-14.927-2.646-22.613-3.766-83.378-12.156-112.023-8.746-146.983-12.644-17.445-1.945-23.059-4.609-29.986-6.457-2.495-2.528,25.978-5.405,32.936-5.65,22.83-.803,63.223,2.194,82.094,5.919Z" fill="#f49419" stroke-width="0"/>
          <path d="M1006.804,65.138c0,.269,0,.538,0,.807-11.421-1.504-21.328-3.739-32.444-5.38l.983-.269c10.39,1.653,21.063,3.191,31.461,4.842Z" fill="#b6596c" stroke-width="0"/>
          <path d="M975.343,60.295l-.983.269c-6.584-.972-13.847-1.818-20.646-2.69l-.983-1.345c7.686,1.121,15.057,2.564,22.613,3.766Z" fill="#5b204c" stroke-width="0"/>
        </g>
        <path d="M446.401,127.82c-19.592.325-23.353,1.034-38.343,3.766-54.735,9.978-57.302,27.289-74.72,38.336-13.9,8.816-57.652,23.729-89.468,27.844-4.383.567-22.093,2.73-19.663-.135,28.507-6,31.487-4.378,58.99-12.241,15.685-4.484,19.233-5.544,30.478-11.03,29.552-14.418,26.766-25.026,48.175-35.78,6.569-3.3,12.986-6.181,24.579-8.34,18.449-3.436,38.726-4.099,59.973-2.421Z" fill="#f3f6f3" stroke-width="0"/>
        <path d="M148.503,187.813c8.811.511-4.98,2.182,11.306,4.573,9.362,1.375,23.911,1.011,24.087,1.883-5.038.255-10.011.517-14.747,1.076-7.796-.115-15.289-.568-23.104-.538-20.936-.997-97.143-12.134-111.589-15.065l.492-1.614c43.947,6.828,60.932,11.067,113.555,9.685Z" fill="#d35752" stroke-width="0"/>
        <path d="M313.674,174.362c-11.245,5.486-14.793,6.546-30.478,11.03-31.173,8.464-71.472,10.58-114.047,9.954,4.736-.559,9.71-.821,14.747-1.076,6.763-.342,12.819-.388,15.731-.538,48.234-2.479,82.947-8.722,106.182-20.715,3.616-.231,5.557.685,7.865,1.345Z" fill="#ac2f63" stroke-width="0"/>
        <g>
          <path d="M1006.804,60.295c.002.538-.002,1.076,0,1.614-24.582-4.615-46.338-10.233-70.296-15.065-6.033-1.217-20.214-3.062-29.495-4.842-4.288-.822-11.307-3.334-16.222-4.304,6.826-5.465,46.319,4.946,67.838,5.515-10.674-5.234-52.347-17.185-69.313-19.773-9.048-1.38-18.798-2.023-28.02-3.228,38.736-1.079,28.557-11.196,45.225-12.913,1.692-.174,13.834-.381,14.747.135-14.409,10.767,24.588,22.509,42.276,31.476,14.046,7.121,21.662,15.462,43.259,21.387Z" fill="#9d1f48" stroke-width="0"/>
          <path d="M995.006,7.029c-1.853,4.092,4.185,14.073,11.798,18.025.022,1.793-.016,3.587,0,5.38-2.033-1.063-12.804-7.104-15.239-7.264-1.397-.092-5.451.951-8.357.269,4.931-5.801,3.195-13.442,3.933-14.124,1.215-1.122,3.941.157,4.916-2.287h2.949Z" fill="#9d1f48" stroke-width="0"/>
          <path d="M1001.888,2.186c.335,1.153,1.513,2.198,4.916,2.959.48,6.627-.083,13.278,0,19.908-7.613-3.951-13.651-13.932-11.798-18.025.613-1.355,2.092-2.27,3.933-3.497.731-.488,1.867-1.199,2.949-1.614-.008.088-.025.181,0,.269Z" fill="#ac2f63" stroke-width="0"/>
          <g>
            <path d="M943.882,21.018c4.268,4.738-.645,6.724,26.054,8.878,7.422-.062,11.983-4.939,13.273-6.457,2.906.682,6.96-.361,8.357-.269,2.435.16,13.206,6.201,15.239,7.264.087,9.954-.04,19.908,0,29.862-21.598-5.925-29.213-14.267-43.259-21.387-17.688-8.967-56.685-20.708-42.276-31.476-.913-.516-13.055-.309-14.747-.135v-.269c36.239-1.626,29.648,6.461,31.461,8.743,1.212,1.526,4.505,3.699,5.899,5.246Z" fill="#ac2f63" stroke-width="0"/>
            <path d="M958.137,30.703l3.441.404c1.314,3.87-7.784.009-3.441-.404Z" fill="#c93d6c" stroke-width="0"/>
          </g>
        </g>
        <path d="M454.266,128.628c27.336,3.12,45.058,10.07,64.889,15.738,2.828.808,4.569,2.194,4.916,2.287l-12.781-1.883c-12.394-5.803-43.668-13.311-69.313-12.644-9.13.238-8.799,1.043-9.34,1.076-2.503.154-3.376-.352-4.424-.269-11.681.927-23.964,3.252-32.444,5.65-2.323.657-1.316,1.032-1.475,1.076-2.341.658-5.357,1.476-8.848,1.614,9.013-3.881,25.051-8.629,22.613-9.685,14.99-2.733,18.751-3.442,38.343-3.766,2.521.199,5.423.528,7.865.807Z" fill="#c3e0e5" stroke-width="0"/>
        <path d="M421.822,138.312c2.035.056,2.159.226,2.949.269-15.12,1.451-27.717,2.088-37.36,6.053-10.672,4.388-6.538,7.914-10.815,11.837-.892.819-21.553,11.198-28.512,15.2,5.172-13.087,11.78-19.385,37.36-30.4,3.492-.138,6.507-.956,8.848-1.614,8.845-.991,17.949-1.607,27.529-1.345Z" fill="#f3f6f3" stroke-width="0"/>
        <path d="M955.68,62.986c-1.387,1.82-12.075-.265-20.646.807-61.602-5.933-83.7-2.906-135.676-.807-7.349.297-15.134.788-22.613.538,1.616-.263,5.318-.428,5.899-.673.391-.165,3.608-3.661.983-3.632,40.615-3.101,90.41-3.387,131.252-.538,14.277.996,27.227,2.837,40.801,4.304Z" fill="#ac2f63" stroke-width="0"/>
        <g>
          <path d="M935.033,63.793c30.491,2.936,51.8,7.32,71.771,14.258.008,2.87-.007,5.739,0,8.609-7.312-3.353-18.072-5.969-28.512-8.609-41.048-10.379-79.579-15.052-136.66-13.72-8.343.195-22.307.812-30.478,1.345-10.47-.051-16.344,1.254-11.798-2.69,51.976-2.099,74.075-5.126,135.676.807Z" fill="#c3e0e5" stroke-width="0"/>
          <path d="M1006.804,86.66c.005,1.883-.004,3.766,0,5.65-5.448-2.304-26.642-10.929-28.512-12.106-.856-.539-1.023-1.579,0-2.152,10.44,2.64,21.2,5.255,28.512,8.609Z" fill="#ca588d" stroke-width="0"/>
          <path d="M799.357,62.986c-4.546,3.944,1.328,2.639,11.798,2.69-5.927.387-11.093,1.118-16.714,1.614-8.794.776-16.864,1.892-25.562,2.69-9.567.878-25.759,2.357-23.596,1.211,11.276-6.464,18.274-5.522,31.461-7.667,7.479.25,15.264-.241,22.613-.538Z" fill="#f3f6f3" stroke-width="0"/>
          <path d="M978.292,78.051c-1.023.574-.856,1.613,0,2.152-40.442-10.667-79.109-16.28-136.66-15.065v-.807c57.081-1.332,95.611,3.341,136.66,13.72Z" fill="#be558e" stroke-width="0"/>
          <path d="M841.633,64.331v.807c-12.223.258-37.435,1.419-48.175,2.69l.983-.538c5.621-.496,10.786-1.227,16.714-1.614,8.171-.534,22.135-1.15,30.478-1.345Z" fill="#8e426f" stroke-width="0"/>
        </g>
        <g>
          <path d="M958.629.034c-2.311,5.297,5.988,9.232,6.882,11.03.658,1.324-.479,3.159,0,4.573-4.453,2.385-8.954,6.754-21.63,5.38-1.394-1.547-4.687-3.72-5.899-5.246-1.813-2.282,4.777-10.369-31.461-8.743,4.133-2.209,7.353-4.516,7.865-6.995,14.746.013,29.497-.031,44.242,0Z" fill="#016081" stroke-width="0"/>
          <path d="M969.444,13.754c-2.196,1.693-3.752,1.787-3.933,1.883-.479-1.415.658-3.25,0-4.573,5.324.777,3.544,1.475,3.933,2.69Z" fill="#2ba8cf" stroke-width="0"/>
        </g>
        <path d="M998.939,3.531c-1.841,1.228-3.319,2.142-3.933,3.497h-2.949c.518-1.3.136-2.649.983-4.304l5.899.807Z" fill="#016081" stroke-width="0"/>
        <path d="M539.802,67.828c6.678,1.998,6.853,3.256,19.663,5.38,2.877.477,6.372.425,8.848.807,5.395.833,3.65.925,4.916,1.345-4.55,1.406-9.223,1.428-15.731.807-8.023-.766-74.186-15.452-84.06-16.679-.311-.039-3.979.077-4.916,0-.983-.081-.005-.737-.983-.807-.226-.016-1.731.552-1.966.538-14.136-.858-28.757-1.932-42.768-.135,13.89,3.441,32.194,4.804,47.683,8.205,26.994,5.927,47.84,17.061,91.926,20.446,19.486,8.547,50.52-.312,65.872-5.111,1.523,1.676,2.947,1.652,2.949,1.749.013.605-8.048,2.873-5.899,3.094-27.134,8.781-71.909,11.599-106.673,4.304-23.018-4.83-47.445-21.361-74.72-24.212-4.284-.448-50.196-1.328-46.7-8.34,2.392-4.798,64.106-8.966,112.572.269,15.454,2.945,21.18,5.705,29.986,8.34Z" fill="#ca588d" stroke-width="0"/>
        <g>
          <path d="M534.886,50.611c2.097.316,22.592,4.716,25.071,5.38,16.958,4.544,23.252,9.035,22.121,15.603q-6.882,1.211-13.764,2.421c-2.477-.382-5.971-.33-8.848-.807-4.451-2.357-10.468-4.5-15.731-6.726-17.891-7.568-31.741-12.937-67.347-14.796-41.407-2.163-59.086.595-93.892,4.842,13.449-5.902,40.175-9.546,64.889-10.223,22.739-.623,67.443,1.283,87.502,4.304Z" fill="#f3f6f3" stroke-width="0"/>
          <path d="M559.465,73.209c-12.81-2.125-12.985-3.382-19.663-5.38,5.007.241,1.518-.885,3.933-1.345,5.262,2.226,11.28,4.369,15.731,6.726Z" fill="#f0cdba" stroke-width="0"/>
        </g>
        <path d="M578.145,76.706c-1.289-.387-4.044-1.056-4.916-1.345-1.266-.42.479-.512-4.916-1.345q6.882-1.211,13.764-2.421c-.615,3.569-3.422,4.463-3.933,5.111Z" fill="#f0bab6" stroke-width="0"/>
        <g>
          <path d="M658.764,58.681c-9.255,4.192-13.951,8.861-19.663,13.451,1.524-3.971-2.933-8.405-5.899-7.936-10.08,6.006-10.306,1.589-15.731-1.345-1.893-1.024-6.305-2.282-7.865-3.228-.373-.226-.422-2.91-3.933-4.842-9.362-5.151-54.274-9.055-73.737-7.264-.686,1.329,1.876,1.661,1.966,1.749.466.452.255.918.983,1.345-20.059-3.021-64.763-4.927-87.502-4.304-1.227-1.558,36.411-3.544,43.751-3.766,31.591-.958,74.555-.042,104.215,3.228,20.744,2.287,51.203,8.028,63.414,12.913Z" fill="url(#linear-gradient-2)" stroke-width="0"/>
          <path d="M636.152,75.092c-1.284,1.32-6.442,5.572-8.848,6.457-5.733,2.109-25.674,3.926-29.003,3.497-1.626-.21-2.22-3.536-24.087-2.825-.047-1.905,2.49-3.683,3.933-5.515.51-.648,3.318-1.542,3.933-5.111,1.131-6.568-5.163-11.06-22.121-15.603-2.479-.664-22.974-5.065-25.071-5.38-.729-.428-.517-.893-.983-1.345,49.2,6.275,48.254,15.885,54.074,19.235,1.221.703,6.511,1.414,7.865,2.421,2.413,1.794-3.973,7.671,7.374,9.012,12.773,1.51,25.879-2.293,32.936-4.842Z" fill="#c3e0e5" stroke-width="0"/>
          <path d="M639.101,72.133c-.034.089.043.181,0,.269-.49,1.002-2.04,1.755-2.949,2.69-7.057,2.549-20.163,6.352-32.936,4.842-11.347-1.341-4.961-7.218-7.374-9.012-1.354-1.007-6.644-1.718-7.865-2.421-5.819-3.35-4.874-12.961-54.074-19.235-.091-.088-2.652-.42-1.966-1.749,19.463-1.791,64.376,2.113,73.737,7.264,3.511,1.932,3.56,4.616,3.933,4.842,1.56.946,5.973,2.204,7.865,3.228,5.424,2.935,5.651,7.351,15.731,1.345,2.966-.469,7.423,3.966,5.899,7.936Z" fill="#4dc3ec" stroke-width="0"/>
        </g>
        <path d="M266.482,100.111c-3.399,2.623-5.967,6.859-9.832,9.954-2.096,1.679-6.118,4.101-8.848,5.784-.939.579,1.926.422-3.933,2.556-1.59.579-9.597,1.732-10.815,4.035l-.983-.673c13.805-4.494-22.941-.201-24.579-5.919,19.669-3.482,20.449-3.889,31.461-9.012l2.458.807c8.752-2.838,27.388-10.723,25.071-7.533Z" fill="#bacfca" stroke-width="0"/>
        <path d="M647.95,72.671c-1.889,1.599-2.863,4.554-4.916,6.188-1.397,1.112-11.298,6.573-13.764,7.533-1.392.542-3.196.838-3.933,1.076-2.149-.221,5.912-2.489,5.899-3.094-.002-.096-1.426-.073-2.949-1.749-.333-.366-.856-.702-.983-1.076,2.406-.885,7.565-5.137,8.848-6.457.909-.935,2.459-1.688,2.949-2.69q4.424.135,8.848.269Z" fill="#ca588d" stroke-width="0"/>
        <path d="M511.29,144.769c4.992,2.337,24.903,14.617,21.63,17.218-5.226-1.153-10.19-2.744-15.731-3.766-18.509-3.413-27.317-2.044-35.885-3.497-10.544-1.788-29.26-14.655-56.532-16.141-.79-.043-.914-.213-2.949-.269,3.319-1.709,10.062-3.167,10.815-5.111.541-.033.21-.839,9.34-1.076,25.645-.667,56.919,6.841,69.313,12.644Z" fill="#016081" stroke-width="0"/>
        <path d="M524.071,146.652c.99.265,1.891.562,2.949.807,6.893,3.835,44.15,15.083,55.057,16.949-10.06.94-15.083,2.036-11.798,5.111-20.15-2.536-22.317-4.213-37.36-7.533,3.274-2.601-16.637-14.88-21.63-17.218l12.781,1.883Z" fill="#2ba8cf" stroke-width="0"/>
        <g>
          <g>
            <path d="M906.521,117.867c.706.18,8.541,3.285,11.798,4.17,49.067,13.334,54.718,15.795,88.485,33.493-.035,6.187.075,12.375,0,18.563-27.455-14.467-67.69-36.11-116.505-45.734-7.454-1.47-26.208-4.575-34.902-4.573,8.971-6.705,39.911,2.738,37.852-8.071.805-.172,11.665,1.743,13.273,2.152Z" fill="#dbe5dc" stroke-width="0"/>
            <path d="M960.595,125.399c15.63,4.614,32.638,8.911,46.209,13.989-.022,5.38.031,10.761,0,16.141-33.767-17.698-39.418-20.16-88.485-33.493-3.257-.885-11.092-3.99-11.798-4.17,20.079,1.397,37.022,4.482,54.074,7.533Z" fill="#f3f6f3" stroke-width="0"/>
          </g>
          <path d="M532.919,161.987c15.043,3.32,17.21,4.997,37.36,7.533,25.969,3.268,69.453,5.158,95.367,1.076,2.539,2.021,47.528-4.218,41.293-5.38.61-.093,9.045-1.995,10.815-2.421,8.973,1.148,8.306-.579,10.323-.538,6.233,1.47,4.132,3.144,4.424,5.246-9.033,3.056-20.233,6.645-30.97,9.281-8.925,2.192-23.83,4.135-21.138,5.111-5.015.161-12.456-.059-18.189,0-.22.002-3.713.537-3.933.538-4.668.021-27.175-.381-30.478-.538-.796-.038-.184-.496-.983-.538-10.036-.529-20.038-.915-29.495-2.152-1.019-.133.039-.664-.983-.807-2.752-.385-3.122.121-3.933,0-11.754-1.747-11.117-2.577-11.798-2.69-3.267-.543-6.951-.723-10.323-1.345-.277-.051-1.302.451-6.391-.538-1.446-.281-24.869-6.23-26.054-6.591-8.695-2.651-14.074-5.989-20.646-9.012,5.541,1.022,10.505,2.613,15.731,3.766Z" fill="#c3e0e5" stroke-width="0"/>
          <g>
            <path d="M960.595,125.399c-17.052-3.05-33.995-6.136-54.074-7.533-1.608-.409-12.468-2.324-13.273-2.152,2.059,10.809-28.881,1.365-37.852,8.071-12.033.002-30.009,4.063-37.36,6.591-31.931,10.982-11.236,25.049-58.007,40.354-21.65,7.084-46.635,10.107-79.636,11.164-2.692-.977,12.213-2.92,21.138-5.111,10.737-2.637,21.937-6.226,30.97-9.281-.292-2.102,1.809-3.776-4.424-5.246-2.017-.041-1.351,1.686-10.323.538,13.828-3.328,30.886-10.493,39.327-15.065,10.959-5.936,24.77-15.326,23.596-21.925,4.333-2.999.75-10.206,3.933-12.913.959-.816,11.218-4.697,14.256-5.515,19.154-5.16,44.968-6.245,68.821-5.111,23.073,2.596,14.499,2.487,16.222,4.17,2.206,2.154,24.953,4.951,32.936,6.591,25.382,5.215,27.311,7.522,43.751,12.375Z" fill="#c3e0e5" stroke-width="0"/>
            <path d="M785.101,124.861l3.441.404c6.19,3.87-15.378,14.34-3.441-.404Z" fill="#f8d781" stroke-width="0"/>
          </g>
          <path d="M645,168.174c10.412.038,20.131.03,30.478-.269-19.808,1.569,8.28-.163-9.832,2.69-25.914,4.082-69.398,2.192-95.367-1.076-3.285-3.076,1.738-4.171,11.798-5.111,18.647,3.189,41.562,3.689,62.922,3.766Z" fill="#4dc3ec" stroke-width="0"/>
          <path d="M706.939,165.215c6.235,1.163-38.754,7.402-41.293,5.38,18.112-2.853-9.976-1.121,9.832-2.69-.128-.73,14.846-.949,16.222-1.076,2.802-.258,13.986-1.423,15.239-1.614Z" fill="#96d9e8" stroke-width="0"/>
        </g>
        <path d="M540.785,122.171c1.524.889,1.883.764,1.966.807,2.774,1.425,7.497,3.965,12.781,4.842,3.911,3.507,10.457,7.256,19.663,9.954-26.441-.147-59.69-19.072-63.906-19.773-.724-.12-3.373.31-4.916.135-.34-.186-.643-.892-.983-1.076,1.363.095,5.294,2.342,6.882-1.749-28.665-5.96-.437-6.951,12.781-1.345,3.158,1.34,10.539,8.2,15.731,8.205Z" fill="#edac37" stroke-width="0"/>
        <path d="M532.919,141.003c-7.892,2.636,7.243,6.385,11.798,9.281-4.276-1.076-16.915-2.644-17.697-2.825-1.058-.245-1.96-.542-2.949-.807-.347-.093-2.088-1.478-4.916-2.287-19.83-5.667-37.553-12.618-64.889-15.738l.983-.538c41.095,4.838,58.155,15.486,61.448,14.796,9.853-2.065-31.838-13.622-38.343-15.065-31.035-6.885-65.833-6.495-95.858.538-12.187,2.855-24.457,7.109-25.071,11.568l4.424-1.345c-21.409,10.755-18.623,21.363-48.175,35.78-2.308-.66-4.249-1.576-7.865-1.345,1.701-.878,3.405-1.787,4.916-2.69,22.37-13.381,20.358-22.167,29.495-32.552,1.041-1.184,1.488-2.621,2.949-3.766,4.69-3.676,10.305-4.716,10.815-4.977,4.233-2.17,7.403-4.437,12.781-6.457,6.365-2.391,14.679-4.108,22.613-6.053,6.952-1.705,16.556-4.858,26.054-5.65,9-.75,25.331-.091,25.071-1.076,19.679.668,19.957,3.089,21.138,3.228,1.998.236,15.153-.803,34.902,6.322,15.036,5.425,22.922,15.683,36.377,21.656Z" fill="#9d1f48" stroke-width="0"/>
        <path d="M448.367,101.994c8.387,1.233,30.74,7.19,24.579,1.614,19.586,6.034,19.213,6.28,32.444,13.451-11.252-.78-12.551.559-13.273.538-2.278-.066-28.678-7.812-30.97-9.147-8.281-4.108-33.28-5.366-48.667-4.304-8.3.572-14.848,2.836-15.731,2.959-.382.053-2.195-.488-8.357.538-7.285,1.213-13.591,1.813-18.68,4.17-7.361,3.409-5.637,6.51-5.899,6.86-5.417,7.249-10.994,2.671-16.714,5.515-1.12.557-6.125,8.605-3.933,9.819-1.461,1.145-1.908,2.583-2.949,3.766-4.967.57-1.252,4.366-9.832,3.766,5.944-10.935,1.673-17.965,21.63-27.709,21.217-10.36,37.838-15.317,84.06-12.375,3.615.23,9.44,1.875,12.29.538Z" fill="#f49419" stroke-width="0"/>
        <path d="M383.479,115.983c2.118-.008,4.932-.231,5.899.538-7.934,1.945-16.248,3.662-22.613,6.053-5.378,2.02-8.548,4.286-12.781,6.457-.509.261-6.125,1.301-10.815,4.977-2.192-1.215,2.812-9.262,3.933-9.819,5.72-2.844,11.296,1.734,16.714-5.515,6.879-.686,11.994-2.662,19.663-2.69Z" fill="#b92425" stroke-width="0"/>
        <path d="M461.149,108.451c-4.526.701-11.765-2.264-27.037-2.69-23.834-.666-43.403,4.369-45.717,1.883,6.162-1.026,7.975-.485,8.357-.538.883-.123,7.431-2.387,15.731-2.959,15.386-1.061,40.386.196,48.667,4.304Z" fill="#f28722" stroke-width="0"/>
        <path d="M440.502,109.796c.26.985-16.071.326-25.071,1.076-9.497.792-19.101,3.945-26.054,5.65-.966-.769-3.781-.546-5.899-.538,4.459-6.315,38.429-6.819,57.023-6.188Z" fill="#92404d" stroke-width="0"/>
        <path d="M440.502,85.315c-19.889-1.405-44.962-1.384-64.397.538-10.424,1.031-40.47,6.222-40.801,9.685-20.327,5.852-26.389,13.362-34.411,20.715-3.441,3.154-6.538,6.259-9.832,9.416l-1.966-1.614c2.772-3.867,9.713-12.535,13.764-15.872,9.49-7.818,32.83-17.943,59.481-22.06,22.562-3.486,55.759-4.91,78.161-.807Z" fill="#96d9e8" stroke-width="0"/>
        <path d="M447.384,85.853c-1.948-.218-4.766-.389-6.882-.538-22.403-4.103-55.599-2.679-78.161.807-26.651,4.117-49.992,14.242-59.481,22.06,5.45-18.258,83.568-35.944,144.525-22.329Z" fill="#e19ea4" stroke-width="0"/>
        <path d="M434.603,93.654c16.434,3.286,25.003,5.844,38.343,9.954,6.161,5.576-16.192-.381-24.579-1.614-26.06-3.83-54.952-5.316-80.128,0-15.722,3.32-19.398,6.546-16.222,11.837-19.956,9.745-15.685,16.775-21.63,27.709-2.729,5.02-9.686,18.423-18.68,22.194-1.662.697-4.899,1.097-6.882,1.749-20.956,6.888-28.419,9.227-10.815-.807,6.297-3.589,13.978-6.942,18.68-10.761,8.868-7.203,10.688-14.359,9.832-21.925l-2.949.673c1.241-1.92,1.221-3.965,1.966-5.919,3.64-9.541,1.538-15.037,21.63-24.75,24.103-6.423,56.051-10.931,89.959-7.264,6.154.666,19.592,3.437,1.475-1.076Z" fill="#edac37" stroke-width="0"/>
        <path d="M343.169,101.994c-20.092,9.713-17.99,15.209-21.63,24.75-5.054,1.311-8.39,6.839-8.848,9.416l-4.916-.673c2.611-12.174-.908-24.153,32.936-33.493.284-.078,2.204.068,2.458,0Z" fill="#f49419" stroke-width="0"/>
        <path d="M312.691,153.916c-4.702,3.819-12.384,7.172-18.68,10.761-5.557.032-.845-3.052-5.899-4.304,5.376-3.497,13.227-10.665,10.815-14.258.144-.26-.126-.545,0-.807,7.631-.076,14.097.064,17.697-2.018-.21-.242-1.579.07-2.949-.404,11.278-1.99-3.999,9.668-3.933,10.626.038.547.853.411,2.949.404Z" fill="#c26932" stroke-width="0"/>
        <path d="M313.674,142.886c1.37.473,2.739.162,2.949.404-3.6,2.082-10.066,1.942-17.697,2.018,1.424-2.949,1.686-4.005,1.966-6.995,5.187,1.336,8.377,3.053,12.781,4.573Z" fill="#e46623" stroke-width="0"/>
        <path d="M321.539,126.744c-.745,1.953-.726,3.999-1.966,5.919-.915,1.415-1.511,4.07-6.882,3.497.459-2.577,3.794-8.105,8.848-9.416Z" fill="#1c7782" stroke-width="0"/>
        <g>
          <path d="M440.502,85.315c2.116.15,4.934.32,6.882.538,13.567,1.52,19.604,6.159,23.596,7.398,13.925,4.322,35.657,8.944,39.327,10.088,2.336.728,13.969,5.931,15.731,6.995,5.379,3.248,8.678,8.295,14.747,11.837-5.191-.006-12.572-6.866-15.731-8.205-13.219-5.606-41.446-4.615-12.781,1.345-1.589,4.091-5.519,1.843-6.882,1.749-13.232-7.172-12.858-7.417-32.444-13.451-13.34-4.11-21.91-6.668-38.343-9.954-3.341-.832-6.066-1.837-10.815-2.152-4.702-.765-13.047-2.372-18.189-2.69-23.906-1.481-53.98,2.028-70.296,6.726.332-3.463,30.378-8.654,40.801-9.685,19.435-1.922,44.509-1.943,64.397-.538Z" fill="#2ba8cf" stroke-width="0"/>
          <path d="M434.603,93.654c-4.829-.966-8.893-1.268-9.34-1.345-.496-.085-1.094-.745-1.475-.807,4.749.316,7.473,1.32,10.815,2.152Z" fill="#edac37" stroke-width="0"/>
        </g>
        <path d="M199.627,193.731c-2.912.15-8.968.196-15.731.538-.177-.873-14.726-.508-24.087-1.883-16.287-2.392-2.495-4.062-11.306-4.573,21.255-.558,33.323-1.695,52.108-4.304,1.304-.181,2.658-.343,3.933-.538l3.933.942c-22.001,2.936.293,7.717-8.848,9.819Z" fill="#e9572f" stroke-width="0"/>
        <path d="M294.011,164.677c-17.604,10.034-10.141,7.695,10.815.807,2.64,1.209.294,4.351,5.899,4.842-1.51.903-3.214,1.812-4.916,2.69-23.234,11.993-57.947,18.236-106.182,20.715,9.141-2.102-13.153-6.883,8.848-9.819l-3.933-.942c11.966-1.827,27.491-4.482,34.411-7.802,2.659.042,3.545-.655,4.916-1.076l1.475.538c19.228-3.392,33.93-8.509,42.768-14.258,5.054,1.252.342,4.336,5.899,4.304Z" fill="#ff975c" stroke-width="0"/>
        <path d="M288.112,160.372c-8.838,5.749-23.54,10.866-42.768,14.258l-1.475-.538c7.107-2.186,17.969-4.785,23.596-6.86,14.774-5.448,27.745-14.429,31.461-21.118,2.412,3.593-5.439,10.761-10.815,14.258Z" fill="#f49419" stroke-width="0"/>
        <path d="M245.836,121.095c.105-.705-.208-.536-1.966-.269.52-.451-.363-1.701,0-2.421,5.858-2.134,2.994-1.977,3.933-2.556,2.73-1.683,6.753-4.106,8.848-5.784,5.37.289-3.66,6.339-7.865,10.895-.231.251-2.91.092-2.949.135Z" fill="#f0bab6" stroke-width="0"/>
        <path d="M243.87,120.826c-.657.57-8.21,2.294-10.815,1.614,1.218-2.303,9.225-3.456,10.815-4.035-.363.72.52,1.971,0,2.421Z" fill="#ca588d" stroke-width="0"/>
        <path d="M776.744,63.524c-13.187,2.145-20.185,1.203-31.461,7.667-2.163,1.147,14.029-.333,23.596-1.211-4.74,1.782-18.979,3.095-30.97,5.65-14.441,3.077-25.268,6.907-32.936,11.434-.437.258.436,1.084,0,1.345-5.741,3.442-7.609,2.78-7.865,2.959-.091.064,1.444,1.02.983,1.345-19.506,13.782-35.467,32.94-98.808,35.915l-1.475-.404c59.735-8.73,82.506-27.051,84.552-44.658l-3.933-.673c4.243-6.488,31.344-12.272,33.428-13.451,9.406-1.556,18.003-3.618,27.529-5.111,13.663-2.142,29.073-3.953,44.242-5.111,2.625-.029-.592,3.467-.983,3.632-.581.244-4.283.41-5.899.673Z" fill="#ac2f63" stroke-width="0"/>
        <path d="M665.646,84.777c-.059.01.223.298-.983.269h-.983l1.966-.269Z" fill="#f8d781" stroke-width="0"/>
        <path d="M406.091,126.744c-5.417,1.078-17.706,1.736-19.663,3.497-11.593,2.159-18.01,5.04-24.579,8.34l-4.424,1.345c.614-4.459,12.884-8.713,25.071-11.568-.999,4.051,1.049-.248,23.596-1.614Z" fill="#25233d" stroke-width="0"/>
        <path d="M455.25,128.09l-.983.538c-2.442-.279-5.344-.608-7.865-.807-21.247-1.677-41.524-1.015-59.973,2.421,1.957-1.761,14.247-2.419,19.663-3.497,18.669-1.132,31.902-.686,49.158,1.345Z" fill="#a7427d" stroke-width="0"/>
        <path d="M432.637,133.201c-.753,1.945-7.496,3.402-10.815,5.111-9.58-.262-18.684.354-27.529,1.345.158-.045-.848-.419,1.475-1.076,8.48-2.398,20.763-4.722,32.444-5.65,1.048-.083,1.921.423,4.424.269Z" fill="#96d9e8" stroke-width="0"/>
        <path d="M557.499,76.168c-1.951-.359-3.035,4.708-2.949,4.977.301.95,6.114,5.823,7.865,6.591-44.086-3.385-64.932-14.518-91.926-20.446-15.49-3.401-33.794-4.765-47.683-8.205,14.011-1.798,28.632-.723,42.768.135.236.014,1.74-.554,1.966-.538.978.07,0,.726.983.807.937.077,4.605-.039,4.916,0,9.875,1.228,76.037,15.913,84.06,16.679Z" fill="#ca588d" stroke-width="0"/>
        <path d="M578.145,76.706c-1.443,1.832-3.979,3.61-3.933,5.515,21.868-.711,22.461,2.615,24.087,2.825,3.329.429,23.27-1.389,29.003-3.497.127.374.651.71.983,1.076-15.352,4.8-46.386,13.659-65.872,5.111-1.752-.768-7.564-5.641-7.865-6.591-.085-.269.999-5.336,2.949-4.977,6.508.621,11.181.598,15.731-.807.872.289,3.626.958,4.916,1.345Z" fill="#e28fa3" stroke-width="0"/>
        <path d="M455.25,128.09c-17.256-2.031-30.489-2.477-49.158-1.345-22.546,1.367-24.595,5.666-23.596,1.614,30.025-7.033,64.824-7.423,95.858-.538,6.505,1.443,48.196,13.001,38.343,15.065-3.293.69-20.353-9.959-61.448-14.796Z" fill="#1a2644" stroke-width="0"/>
        <path d="M340.22,137.774c-9.137,10.385-7.125,19.171-29.495,32.552-5.605-.492-3.259-3.634-5.899-4.842,1.984-.652,5.22-1.052,6.882-1.749,8.994-3.771,15.951-17.174,18.68-22.194,8.579.599,4.864-3.196,9.832-3.766Z" fill="#f47927" stroke-width="0"/>
        <path d="M448.367,101.994c-2.85,1.337-8.674-.308-12.29-.538-46.222-2.941-62.843,2.015-84.06,12.375-3.176-5.291.501-8.517,16.222-11.837,25.176-5.316,54.068-3.83,80.128,0Z" fill="#edac37" stroke-width="0"/>
      </g>
    </g>
  </g>
</svg>