<?xml version="1.0" encoding="UTF-8"?>
<svg id="Layer_2" data-name="Layer 2" xmlns="http://www.w3.org/2000/svg" xmlns:xlink="http://www.w3.org/1999/xlink" viewBox="0 0 687.258 187.809">
  <defs>
    <linearGradient id="linear-gradient" x1="100.654" y1="-107.237" x2="485.009" y2="152.984" gradientUnits="userSpaceOnUse">
      <stop offset="0" stop-color="#4ef762"/>
      <stop offset=".15" stop-color="#d1ef9d"/>
      <stop offset=".666" stop-color="#caec90"/>
      <stop offset="1" stop-color="#cde576"/>
    </linearGradient>
    <linearGradient id="linear-gradient-2" x1="406.963" y1="-45.317" x2="33.364" y2="86.212" gradientUnits="userSpaceOnUse">
      <stop offset=".224" stop-color="#a0f298"/>
      <stop offset="1" stop-color="#bef18e"/>
    </linearGradient>
    <linearGradient id="linear-gradient-3" x1="382.293" y1="-4.4" x2="541.937" y2="85.378" gradientUnits="userSpaceOnUse">
      <stop offset="0" stop-color="#dceca3"/>
      <stop offset="1" stop-color="#7bf988"/>
    </linearGradient>
    <linearGradient id="linear-gradient-4" x1="24.368" y1="89.61" x2="489.913" y2="208.797" gradientUnits="userSpaceOnUse">
      <stop offset="0" stop-color="#80f67f"/>
      <stop offset=".275" stop-color="#cbe67a"/>
      <stop offset=".317" stop-color="#cce778"/>
      <stop offset=".545" stop-color="#c5f5a6"/>
      <stop offset=".884" stop-color="#97faac"/>
    </linearGradient>
    <linearGradient id="linear-gradient-5" x1="649.921" y1="74.111" x2="400.543" y2="174.226" gradientUnits="userSpaceOnUse">
      <stop offset="0" stop-color="#7debf6"/>
      <stop offset="1" stop-color="#acc5f3"/>
    </linearGradient>
  </defs>
  <g id="Layer_1-2" data-name="Layer 1">
    <g>
      <g>
        <path d="M463.673,21.274c13.697,1.629,36.32,2.238,50.988,1.65-1.292,1.277,17.729.015,32.539.367,8.709.207,17.377,1.099,25.83,1.65,12.785,3.301,31.131,6.097,47.634,7.7-.861.232-2.136.558-3.355.55-3.249-.02-39.517-3.015-63.4-3.85-23.221-.812-51.756-.623-73.464-1.467-21.905-.851-30.054-2.9-61.723-3.667-19.236-.466-38.864-.026-58.033-.367-12.094-.215-24.052-1.082-36.229-1.1l-50.988-4.4c-17.674-.54-37.092-1.557-53.672.367-16.514.091-28.673,3.391-43.609,5.133-2.767,1.714-31.787,6.094-36.9,6.6-1.139.113-4.67-.111-6.038,0-.671.054.547.554-13.083,1.1-33.572,1.345-83.243.045-120.091,5.317.014-2.933-.019-5.867,0-8.8,63.537.817,106.737,4.417,165.377-4.95,8.031-1.283,15.277-3.181,23.482-4.4,27.899-4.144,60.766-4.927,91.913-4.217.725-.399-10.578-1.963-14.089-2.383-34.714-4.153-81.938-4.584-116.737-.367-19.788,2.398-41.26,8.372-57.697,9.533-20.901,1.476-40.99-.628-54.008-.733,16.544-.405,33.251-.039,48.64-2.017,3.171-.408,37.127-7.341,44.279-8.8.867-.177,3.495-1.013,2.348-.917,15.375-1.837,23.872-2.629,40.925-2.933,7.364-.131,4.986-.507,5.703-.55,1.365-.082,20.542-.056,24.152,0,58.239.9,113.035,11.651,158.333,13.933,33.003,1.663,67.895.092,100.971,2.017Z" fill="url(#linear-gradient)" stroke-width="0"/>
        <path d="M480.445,27.874c3.344,1.043-2.938.968-6.038,1.1-7.653.325-15.6.27-23.817.733-14.156.798-27.631,2.69-41.596,3.667-67.198,4.699-115.355-1.803-163.029,1.833-10.271.783-23.332,2.83-32.203,3.667-44.24,4.171-69.244,1.06-97.281,1.467-11.324.164-22.686,1.255-33.88,1.65-10.508.371-28.109,1.177-37.235,1.283-15.189.176-30.137-.531-45.286-.55,0-.061,0-.122,0-.183,45.049,1.101,54.835-2.479,83.527-4.767,10.158-.81,21.405-1.401,31.868-1.833,5.669-.234,15.954-.15,21.133-.367,58.939-2.462,86.506-9.08,146.256-8.067,31.473,1.022,62.131.869,92.584-.367,10.048-.978,19.366-1.249,29.52-1.833.553-.032.119-.336.671-.367,3.812-.213,13.401-.158,13.083-.733,31.669.767,39.818,2.816,61.723,3.667Z" fill="#81e5f8" stroke-width="0"/>
        <path d="M185.249.007l-.671.275c22.242.957,45.177,1.408,67.426,2.658,22.712,1.276,44.354,3.557,66.755,5.133,8.714.613,17.478,1.196,26.165,1.833,10.171.746,20.622,1.283,30.861,2.017,13.92.997,27.648,2.165,41.931,2.75q21.637,3.025,43.273,6.05c.401.052,2.338.509,2.684.55-33.076-1.925-67.968-.354-100.971-2.017-45.298-2.283-100.093-13.034-158.333-13.933-3.611-.056-22.788-.082-24.152,0-.717.043,1.661.419-5.703.55l.335-.55c-29.361.006-54.392.986-81.85,3.85-11.136,1.162-22.028,3.119-33.545,4.033-11.431.908-23.739.972-35.222,1.833-6.556.04-17.133.782-24.152.917.022-1.528-.03-3.056,0-4.583,11.989-.357,44.215-.351,46.292-3.3,9.353-.687,18.84-1.599,27.842-2.567,2.9-.312,7.476-1.293,9.057-1.467,1.248-.137,2.671-.399,4.025-.55,12.423-1.383,26.37-2.163,39.583-2.75,4.674-.208,9.624-.279,14.089-.733,14.76-.005,29.52.004,44.279,0Z" fill="url(#linear-gradient-2)" stroke-width="0"/>
        <path d="M474.407,28.974c21.504.84,43.28,1.283,64.742,2.2,17.041.728,45.104,2.715,59.039,3.117,5.115.147,21.462.648,19.121-1.1,1.219.008,2.493-.318,3.355-.55,21.335,2.073,43.787,2.978,66.419,2.933.004.672-.003,1.344,0,2.017-21.76.778-55.193.35-76.818-.55-12.424-.517-45.157-3.033-55.685-2.933-3.895.037-3.13.519-8.386.733-33.647-1.498-54.302-1.89-88.894-1.1-27.958,2.082-54.875,5.212-83.863,6.233-5.493.193-17.632.491-22.475.367-12.698-.325-44.267-5.039-88.894-1.65-9.951.756-16.085,1.967-24.488,3.117-10.281,1.407-25.752,4.068-34.887,4.95-37.5,3.619-55.89-1.095-82.185-2.75-6.116-.385-12.28-.486-18.45-.733-4.455-.179-17.023-.155-19.456-1.283,11.195-.395,22.556-1.486,33.88-1.65,28.037-.407,53.04,2.704,97.281-1.467,8.871-.836,21.932-2.883,32.203-3.667,47.674-3.636,95.831,2.866,163.029-1.833,13.965-.977,27.44-2.869,41.596-3.667,8.217-.463,16.164-.408,23.817-.733Z" fill="#cae393" stroke-width="0"/>
        <path d="M.08,28.057c.01-1.528-.011-3.056,0-4.583,8.85-2.015,26.931-3.025,38.241-2.933,13.018.105,33.106,2.21,54.008.733,16.438-1.161,37.909-7.135,57.697-9.533,34.799-4.218,82.022-3.786,116.737.367,3.511.42,14.814,1.984,14.089,2.383-31.148-.71-64.014.073-91.913,4.217-8.204,1.219-15.451,3.117-23.482,4.4C106.817,32.474,63.617,28.874.08,28.057Z" fill="#ab484b" stroke-width="0"/>
        <path d="M414.697,49.141c49.69-3.633,80.439,7.691,108.015,11,7.494.899,11.373,1.147,19.456,1.467,23.564.933,44.27-.214,65.077-3.483,20.469-.706,34.14-.828,54.343.55,9.11.621,17.205,1.552,25.494,2.75,0,.428,0,.856,0,1.283-11.653-1.985-26.142-3.36-39.919-3.667-42.6-.947-62.269,6.277-114.724,2.75-8.865-.596-45.277-4.718-28.178-1.833,8.145,1.374,24.339,2.571,33.88,2.933-.042.094-1.125.329-1.342.367-10.038-.392-19.135-1.45-28.513-2.383-.597-.059.706.66-5.032-.183-2.634-.387-4.884-1.189-5.367-1.283-.689-2.607-31.191-7.828-32.874-7.058l.335.458c5.759.589,9.799,1.73,14.424,2.75-10.514-1.96-20.405-3.702-32.874-4.583-13.901-.982-18.391-1.02-32.203.367-16.681,1.675-32.46,5.697-56.02,5.317-35.264-.569-44.981-11.359-88.894-6.783-13.382,1.394-14.935,2.515-19.456,3.483-.909.195-1.409.414-2.013.55-1.088.245-6.73,1.206-7.044,1.283-10.38,2.556-17.461,5.658-30.526,7.883-7.74,1.318-22.603,2.933-31.532,3.117-45.161.927-66.366-7.321-101.977-8.433,1.655-.407,3.222.192,2.684-1.1,35.019,1.872,59.487,9.506,98.287,8.617,18.647-.427,35.536-2.954,47.299-6.875,14.386-4.795,12.12-4.672-2.684-2.292-25.415,2.718-39.963,5.427-68.432,5.133-3.215-.033-13.461-.381-16.773-.55-12.557-.642-23.011-2.627-34.887-3.85-11.586-1.194-16.42-1.728-29.52-1.833-19.018-.153-29.629,1.159-46.292,3.392l1.342.092c1.813.553,3.177.527,3.355.55,25.357,3.232,46.376,4.829,73.799,6.233l1.342.733c-11.605-.528-23.351-.766-34.887-1.467-32.633-1.982-46.654-5.27-49.311-5.317-2.827-.049-5.544.804-7.715,1.1-4.388.598-8.704,1.262-12.747,2.017-.665.124-1.277.278-2.013.367.005-2.261-.006-4.522,0-6.783,17.41-1.061,53.697-4.416,69.103-4.583,48.206-.523,63.823,10.326,114.389,6.6,12.989-.957,17.509-2.409,27.171-4.033,15.363-2.584,26.281-4.773,44.279-6.6,56.064-5.69,74.297,3.472,94.262,5.683,25.807,2.859,45.173-2.37,65.413-3.85Z" fill="#f5f3f6" stroke-width="0"/>
        <path d="M504.598,11.924c1.759.01,18.342,1.457,25.83,1.65,25.142.649,32.031-1.037,69.438,2.2,5.631.487,9.002,1.399,20.127,2.2,20.53,3.123,43.326,5.411,67.09,5.133.022,3.056-.016,6.111,0,9.167-43.962.029-81.05-7.591-122.775-10.267-.082-.005-.424-.333-1.006-.367-1.887-.11-5.614.083-8.051,0-.144-.005-1.892-.364-2.013-.367-18.594-.423-32.53,1.408-38.577,1.65-14.669.588-37.291-.021-50.988-1.65-.345-.041-2.283-.498-2.684-.55-12.633-1.635-24.68-3.966-37.235-5.683,22.763.963,75.292-3.147,80.844-3.117Z" fill="#cf2b3b" stroke-width="0"/>
        <path d="M687.083,37.591c.005,1.039-.004,2.078,0,3.117-37.319,1.084-75.736-5.051-111.705-1.467-5.981.596-22.081,3.241-30.861,4.033-32.758,2.958-62.382.022-100.635,1.833-.207.01-.583.383-3.69.55-6.019.323-12.165.491-18.114.917-3.748-.099-3.187.173-3.355.183-1.741.103-10.191.535-10.734.55-59.545,1.687-71.68-8.379-133.845-6.6-10.097.289-20.707,1.642-29.855,2.75-.906.11-1.726.247-2.684.367-.607.076-2.866.122-3.355.183,3.027-1.17,3.163-1.289-.671-2.2,8.403-1.15,14.537-2.361,24.488-3.117,44.627-3.389,76.196,1.325,88.894,1.65.754.938,6.686.615,8.386.733.556.039.115.329.671.367,21.953,1.504,43.166,2.155,65.748,1.467,6.948-.212,82.561-3.912,89.901-4.4,2.22-.148,36.761-3.029,35.222-3.575-.579-.205-3.607-.043-4.696-.092,5.256-.214,4.491-.697,8.386-.733,10.528-.099,43.261,2.416,55.685,2.933,21.625.9,55.058,1.328,76.818.55Z" fill="url(#linear-gradient-3)" stroke-width="0"/>
        <path d="M687.083,40.707c.007,1.65-.005,3.3,0,4.95-22.228-.261-45.33-.281-67.426.55-34.519,1.298-66.456,6.338-101.977,5.5-18.826-1.129-38.381-4.23-20.462-.183l-.671.55c-15.294-2.95-32.726-5.871-52.33-5.317-2.215-.203-4.412-.34-4.025-1.1,3.107-.167,3.483-.54,3.69-.55,38.253-1.812,67.877,1.124,100.635-1.833,8.78-.793,24.881-3.437,30.861-4.033,35.969-3.584,74.386,2.55,111.705,1.467Z" fill="#cf2b3b" stroke-width="0"/>
        <path d="M82.601,41.991c2.433,1.128,15.002,1.105,19.456,1.283.271.427,7.574.867,12.412,1.467,31.402,3.894,45.982,7.953,87.553,4.217,17.227-1.548,31.17-4.312,36.229-4.95.489-.062,2.747-.108,3.355-.183-13.025,2.897-24.573,8.347-38.912,10.633-5.602.893-6.116.765-12.076,1.283-16.181.843-34.395-.161-48.976-2.2-12.407-1.735-24.106-5.374-38.577-5.867-24.124-.821-60.907,4.884-102.983,1.1.007-2.017-.007-4.033,0-6.05,15.149.019,30.097.727,45.286.55,9.126-.106,26.727-.913,37.235-1.283Z" fill="#56ff6a" stroke-width="0"/>
        <path d="M120.171,31.541c-7.471.451-3.984,1.403-4.696,4.4-10.463.432-21.709,1.023-31.868,1.833-28.692,2.288-38.478,5.868-83.527,4.767.007-1.894-.009-3.789,0-5.683,36.848-5.271,86.519-3.972,120.091-5.317Z" fill="#e896a2" stroke-width="0"/>
        <path d="M353.645.007c29.844,4.772,64.539,4.505,94.597,0,7.827.001,15.654-.001,23.482,0,3.224.802,7.699,1.098,11.405,1.65,2.391.356,30.171,4.904,28.178,5.592l-23.482.275c-4.688-.431-9.402-.851-14.089-1.283-.284-.026-3.448-.572-5.367-.733-8.671-.73-10.733-.971-20.127-1.1-11.603-.16-18.637.496-29.52.917-6.426.248-13.31.972-19.792,1.1-26.219.518-50.865-2.44-75.476-4.4-5.744-.594-10.974-.844-16.773-1.283-1.104-.084-4.382-.492-5.367-.733,17.443-.002,34.887-.002,52.33,0Z" fill="#323720" stroke-width="0"/>
        <path d="M632.069.007c15.825,3.116,35.822,4.214,55.014,3.483.131,1.893-.056,3.79,0,5.683-37.527,2.874-75.019-2.745-103.319-9.167,16.101.008,32.204-.019,48.305,0Z" fill="#cf2b3b" stroke-width="0"/>
        <path d="M583.764.007c28.3,6.422,65.792,12.041,103.319,9.167.031,1.039-.018,2.078,0,3.117-19.912,2.952-38.964,2.121-59.71.367-3.803-.702-11.211-1.437-18.114-2.75-18.911-3.597-33.079-8.721-58.368-9.9,10.958.004,21.916-.005,32.874,0Z" fill="#cae393" stroke-width="0"/>
        <path d="M133.589,8.807c1.147-.097-1.482.74-2.348.917-7.153,1.459-41.108,8.393-44.279,8.8-15.389,1.978-32.096,1.612-48.64,2.017-11.311-.091-29.391.918-38.241,2.933.018-2.506-.036-5.011,0-7.517,7.019-.134,17.597-.876,24.152-.917,15.216-.093,35.56,1.558,42.602,1.65,25.095.327,40.186-4.71,66.755-7.883Z" fill="#81e5f8" stroke-width="0"/>
        <path d="M687.083,32.274c.006,1.1-.006,2.2,0,3.3-22.632.044-45.084-.86-66.419-2.933-16.503-1.603-34.849-4.4-47.634-7.7-3.273-.845-6.146-1.923-8.722-2.933,41.725,2.676,78.813,10.296,122.775,10.267Z" fill="#81e5f8" stroke-width="0"/>
        <path d="M141.64,53.541c-1.29,1.197-17.037-1.464-23.146-2.017-9.246-.836-42.588-3.11-39.919-.733-2.637.056-7.66.071-9.393.55-15.406.167-51.693,3.522-69.103,4.583.006-2.383-.008-4.767,0-7.15,42.077,3.784,78.86-1.921,102.983-1.1,14.471.492,26.17,4.132,38.577,5.867Z" fill="#e0dedd" stroke-width="0"/>
        <path d="M264.415.007c4.522.599,11.942,1.318,16.773,1.65,11.528,2.564,23.515,5.061,38.241,6.05l-.671.367c-22.4-1.577-44.043-3.857-66.755-5.133-22.248-1.25-45.184-1.701-67.426-2.658l.671-.275C211.638,0,238.026.011,264.415.007Z" fill="#ddd7c9" stroke-width="0"/>
        <path d="M687.083,15.041c.042,2.689-.02,5.378,0,8.067-23.764.278-46.56-2.01-67.09-5.133,20.704,1.49,31.864.973,50.988-1.1,5.432-.589,10.854-1.121,16.102-1.833Z" fill="#d7c7b7" stroke-width="0"/>
        <path d="M687.083,62.708c0,.428,0,.856,0,1.283-55.547-9.251-81.246,1.474-148.94-1.1-9.541-.363-25.735-1.559-33.88-2.933-17.099-2.884,19.312,1.237,28.178,1.833,52.455,3.527,72.124-3.697,114.724-2.75,13.777.306,28.266,1.681,39.919,3.667Z" fill="#e6c0c6" stroke-width="0"/>
        <path d="M301.315.007c.986.241,4.263.65,5.367.733-3.084.396-1.099,1.609.671,2.2-.45-.033-.758.054-.671.183-8.356-.668-17.106-.891-25.494-1.467-4.83-.332-12.25-1.051-16.773-1.65,12.3-.002,24.6.001,36.9,0Z" fill="#c35665" stroke-width="0"/>
        <path d="M.08,11.374c.01-.489-.013-.978,0-1.467,18.499-.319,28.383-.518,46.292-1.833C44.295,11.023,12.07,11.017.08,11.374Z" fill="#cae393" stroke-width="0"/>
        <g>
          <path d="M523.383.007c13.05.77,27.373.674,40.59,2.017,16.811,1.708,29.844,5.666,45.286,7.883,6.903,1.313,14.312,2.048,18.114,2.75.05.009-1.453.114-.671.275.283.058,4.017-.183,4.696,1.1l-5.032.092c-5.103,1.54,20.342,1.323,27.171,2.75-11.055-.207-36.121-1.45-47.634-2.2-12.437-.81-25.971-1.79-36.9-3.667-7.086-1.217-13.546-3.233-21.133-4.4-19.707-3.031-43.343-3.236-64.742-4.95-3.706-.552-8.181-.848-11.405-1.65,17.22.003,34.44-.004,51.659,0Z" fill="#81e5f8" stroke-width="0"/>
          <path d="M687.083,12.291c.016.917-.014,1.833,0,2.75-5.248.713-10.67,1.244-16.102,1.833-5.777-.079-11.682.108-17.443,0-6.829-1.427-32.275-1.21-27.171-2.75l5.032-.092c-.679-1.283-4.413-1.042-4.696-1.1-.782-.161.721-.266.671-.275,20.746,1.754,39.798,2.585,59.71-.367Z" fill="#81e5f8" stroke-width="0"/>
          <path d="M550.89.007c25.289,1.18,39.457,6.303,58.368,9.9-15.441-2.218-28.474-6.175-45.286-7.883-13.217-1.343-27.54-1.247-40.59-2.017,9.169.002,18.338-.003,27.507,0Z" fill="#f5f3f6" stroke-width="0"/>
        </g>
        <path d="M687.083,59.958c.001.489-.001.978,0,1.467-8.289-1.199-16.384-2.129-25.494-2.75,8.364-.508,17.349.797,25.494,1.283Z" fill="#d08cb6" stroke-width="0"/>
        <g>
          <path d="M654.209.007l9.728,1.1c7.862-.044,15.688.249,23.146-.55.056.794-.078,1.59,0,2.383-14.234,1.186-30.569.191-43.944-1.467-3.182-.394-7.993-1.015-7.044-1.467,6.037.006,12.077-.014,18.114,0Z" fill="#51f1c8" stroke-width="0"/>
          <path d="M654.209.007c10.956.026,21.917-.019,32.874,0v.55c-7.458.799-15.284.506-23.146.55L654.209.007Z" fill="#b7b1e1" stroke-width="0"/>
          <path d="M636.094.007c-.948.451,3.863,1.072,7.044,1.467,13.375,1.658,29.71,2.653,43.944,1.467.018.183-.013.367,0,.55-19.192.73-39.189-.368-55.014-3.483,1.342.002,2.684-.001,4.025,0Z" fill="#f5f3f6" stroke-width="0"/>
        </g>
        <path d="M414.697,51.341c-.078.168.144.38,0,.458-.696.38-17.059,3.606-20.798,6.142-.522.116-.634.175-.671.183-6.249.315-17.246,1.925-18.45,2.017-1.157.088-3.422-.081-4.696,0-1.297.082-6.068.692-7.38.733-50.252,1.601-53.101-8.34-88.894-7.333l-.671-.733v-.183c29.293-.743,36.304.299-3.355-2.75,43.913-4.576,53.63,6.214,88.894,6.783,23.561.38,39.339-3.642,56.02-5.317Z" fill="#81e5f8" stroke-width="0"/>
        <path d="M273.808,53.541c35.793-1.007,38.642,8.935,88.894,7.333,1.312-.042,6.083-.651,7.38-.733,1.275-.081,3.539.088,4.696,0,1.204-.091,12.201-1.702,18.45-2.017-5.882,1.311-14.085,5.397-35.222,6.233-38.385,1.518-50.672-8.268-83.192-8.8-5.389-.088-17.64.747-19.121,0,.063-.011.606-.356.671-.367,3.344-.542,13.768-1.547,17.443-1.65Z" fill="#c9e0c9" stroke-width="0"/>
        <path d="M459.647,54.274c2.142.242,29.245,4.993,39.583,6.6,4.713.733,7.731,1.005,13.418,2.017q-20.127-1.283-40.254-2.567c-17.764-5.628-40.384-5.173-65.077-4.767,17.011-2.619,33.529-3.409,52.33-1.283Z" fill="#ececec" stroke-width="0"/>
        <path d="M446.9,50.974q6.374,1.65,12.747,3.3c-18.801-2.126-35.319-1.335-52.33,1.283-4.391.676-9.535,1.517-13.418,2.383,3.739-2.536,20.102-5.762,20.798-6.142.144-.078-.078-.29,0-.458,13.812-1.387,18.302-1.349,32.203-.367Z" fill="#56ff6a" stroke-width="0"/>
        <path d="M71.867,64.541c-1.657.707-4.261.796-4.025,1.833-6.563-.262-12.95-.568-19.456-.917.173-.707-3.465-.346-3.69-.367-6.422-.581-22.869-3.569-29.855-4.767,2.171-.296,4.888-1.149,7.715-1.1,2.657.046,16.678,3.335,49.311,5.317Z" fill="#e896a2" stroke-width="0"/>
        <path d="M512.648,62.891c2.405.428,6.219.933,7.38,1.65-12.651.529-31.783.899-41.931-1.65-4.966-1.247-5.344-2.453-5.703-2.567q20.127,1.283,40.254,2.567Z" fill="#c9e0c9" stroke-width="0"/>
        <path d="M106.753,66.008c10.422.474,20.185,1.325,30.861,1.65l-.335.733c-23.046-.735-46.444-1.098-69.438-2.017-.235-1.038,2.369-1.126,4.025-1.833,11.535.7,23.282.939,34.887,1.467Z" fill="#e6c0c6" stroke-width="0"/>
        <path d="M178.54,66.741c4.025-.119,13.327-.38,16.102-.55l1.677.55c-20.028,1.386-38.25,1.539-58.704.917-10.676-.325-20.44-1.176-30.861-1.65l-1.342-.733c25.917,1.328,46.514,2.255,73.128,1.467Z" fill="#fcd6dc" stroke-width="0"/>
        <path d="M14.84,60.324c6.986,1.197,23.433,4.186,29.855,4.767.225.02,3.863-.34,3.69.367-13.713-.735-22.759-1.724-33.88-2.383-4.954-.294-13.015-.229-12.412-.733,4.043-.755,8.36-1.419,12.747-2.017Z" fill="#e9a8a6" stroke-width="0"/>
        <path d="M248.313,53.908c-8.078,2.387-14.076,5.493-22.811,7.7-2.854.721-8.666,1.842-12.076,2.383l-2.684-.917c13.065-2.225,20.146-5.328,30.526-7.883.314-.077,5.956-1.039,7.044-1.283Z" fill="#c1b19d" stroke-width="0"/>
        <path d="M503.256,60.691c5.738.844,4.434.124,5.032.183,9.378.933,18.476,1.992,28.513,2.383-2.815.487-13.104,1.13-16.773,1.283-1.161-.717-4.975-1.222-7.38-1.65-5.687-1.012-8.705-1.284-13.418-2.017.98-.514,4.13.722,4.025-.183Z" fill="#c9e0c9" stroke-width="0"/>
        <path d="M267.099,52.808c-3.9.194-9.843,1.072-13.418,1.65-13.894,2.246-17.628,5.238-23.482,6.6-1.081.252-1.738.682-4.696.55,8.734-2.207,14.733-5.313,22.811-7.7.604-.136,1.104-.355,2.013-.55-.813.605,8.23-.247,16.773-.55Z" fill="#e9a8a6" stroke-width="0"/>
        <path d="M256.364,55.191c-.064.01-.608.355-.671.367-9.142,1.643-15.668,4.175-25.494,5.5,5.854-1.362,9.587-4.354,23.482-6.6l2.684.733Z" fill="#cae393" stroke-width="0"/>
        <path d="M213.427,63.991c-5.634.894-12.428,1.81-18.785,2.2-2.774.17-12.076.431-16.102.55l.671-.55c8.929-.183,23.792-1.799,31.532-3.117l2.684.917Z" fill="#cca19a" stroke-width="0"/>
        <path d="M418.722,24.207c.318.575-9.271.52-13.083.733-.552.031-.118.335-.671.367-10.154.585-19.471.856-29.52,1.833-30.454,1.235-61.112,1.389-92.584.367-59.75-1.013-87.317,5.605-146.256,8.067-5.179.216-15.464.133-21.133.367.712-2.997-2.775-3.949,4.696-4.4,13.63-.546,12.412-1.046,13.083-1.1,1.368-.111,4.899.113,6.038,0,5.112-.506,34.132-4.886,36.9-6.6,14.935-1.742,27.095-5.042,43.609-5.133,16.58-1.923,35.998-.906,53.672-.367l50.988,4.4c12.177.018,24.135.885,36.229,1.1,19.168.341,38.797-.099,58.033.367Z" fill="#cf2b3b" stroke-width="0"/>
        <path d="M174.514,5.874c-17.053.304-25.55,1.097-40.925,2.933-26.568,3.174-41.66,8.211-66.755,7.883-7.042-.092-27.386-1.743-42.602-1.65,11.483-.861,23.791-.926,35.222-1.833,11.517-.915,22.409-2.872,33.545-4.033,27.458-2.865,52.489-3.844,81.85-3.85l-.335.55Z" fill="#ab484b" stroke-width="0"/>
        <path d="M617.309,33.191c2.341,1.748-14.006,1.247-19.121,1.1-13.935-.402-41.999-2.388-59.039-3.117-21.462-.917-43.238-1.36-64.742-2.2,3.101-.132,9.382-.057,6.038-1.1,21.707.843,50.243.655,73.464,1.467,23.883.835,60.151,3.83,63.4,3.85Z" fill="#cfe19e" stroke-width="0"/>
        <path d="M564.308,22.007c2.576,1.01,5.449,2.088,8.722,2.933-8.453-.551-17.121-1.443-25.83-1.65-14.81-.352-33.83.91-32.539-.367,6.047-.242,19.983-2.073,38.577-1.65.121.003,1.869.362,2.013.367,2.437.083,6.164-.11,8.051,0,.582.034.925.361,1.006.367Z" fill="#cae393" stroke-width="0"/>
        <path d="M503.927,11.741c.502.017.744.024.671.183-5.552-.03-58.081,4.08-80.844,3.117,12.555,1.717,24.602,4.048,37.235,5.683q-21.637-3.025-43.273-6.05c-14.283-.585-28.011-1.753-41.931-2.75,5.161-.699,13.294,1.089,11.405-.55,2.302.217,6.178.915,8.386,1.1,35.136,2.949,67.026.819,101.641-1.467,1.779.266,4.737.665,6.709.733Z" fill="#f5f3f6" stroke-width="0"/>
        <g>
          <path d="M74.55.007c-12.783,1.68-25.9,3.46-40.254,3.85C20.43,4.233,8.303,3.963.08.557V.007C24.903-.006,49.727.025,74.55.007Z" fill="#323720" stroke-width="0"/>
          <path d="M91.994.007c-11.18,1.32-21.758,3.058-32.874,4.4-7.408.894-12.046,1.567-20.127,2.2.36-.555-9.249-.338-16.773-.733,6.366-.606,8.527,1.144,12.076-2.017C48.65,3.467,61.767,1.687,74.55.007c5.814-.004,11.629.004,17.443,0Z" fill="#fcd6dc" stroke-width="0"/>
          <path d="M83.272,4.04c-1.581.174-6.157,1.155-9.057,1.467-9.003.968-18.49,1.88-27.842,2.567-17.909,1.315-27.793,1.514-46.292,1.833.02-.794-.025-1.589,0-2.383,7.615.132,15.174.212,22.811.183,25.615-.097,36.96-1.117,60.381-3.667Z" fill="#f5f3f6" stroke-width="0"/>
          <path d="M22.22,5.874c7.524.396,17.132.179,16.773.733-5.368.42-10.783.653-16.102,1.1-7.637.029-15.195-.051-22.811-.183C.122,6.18-.021,4.833.08,3.49c6.71,1.199,14.272,1.97,22.14,2.383Z" fill="#cf2b3b" stroke-width="0"/>
          <path d="M34.296,3.857c-3.549,3.16-5.71,1.411-12.076,2.017C14.353,5.46,6.79,4.689.08,3.49.154,2.513.027,1.534.08.557c8.223,3.406,20.35,3.676,34.216,3.3Z" fill="#f5f3f6" stroke-width="0"/>
          <g>
            <path d="M117.488.007c-1.255,1.818,5.102.009,9.393.733-13.213.587-27.16,1.367-39.583,2.75-4.686-.136-22.987,2.469-24.488,2.2-.47-.084.26-.376-2.013-.917-.551-.131-2.02.572-1.677-.367C70.236,3.065,80.813,1.327,91.994.007c8.498-.005,16.996.003,25.494,0Z" fill="#323720" stroke-width="0"/>
            <path d="M140.969.007c-4.465.454-9.415.526-14.089.733C122.59.016,116.233,1.825,117.488.007c7.827-.003,15.654.003,23.482,0Z" fill="#282827" stroke-width="0"/>
            <path d="M87.297,3.49c-1.355.151-2.777.413-4.025.55-23.421,2.55-34.766,3.57-60.381,3.667,5.319-.447,10.734-.68,16.102-1.1,8.081-.633,12.719-1.306,20.127-2.2-.343.939,1.126.236,1.677.367,2.273.54,1.542.832,2.013.917,1.501.269,19.802-2.336,24.488-2.2Z" fill="#282827" stroke-width="0"/>
          </g>
        </g>
        <g>
          <path d="M306.682,3.124c12.836,1.026,43.468,4.387,60.046,6.05.569.057.102.31.671.367.701.07,2.313-.071,3.019,0,5.673.568,10.982,1.286,16.773,1.833,1.889,1.639-6.244-.149-11.405.55-10.239-.733-20.691-1.27-30.861-2.017l.671-.458c-8.464-.609-16.81-1.437-26.165-1.742-14.726-.989-26.713-3.486-38.241-6.05,8.388.576,17.138.799,25.494,1.467Z" fill="#81e5f8" stroke-width="0"/>
          <path d="M344.923,9.907c-8.687-.638-17.451-1.22-26.165-1.833l.671-.367c9.355.305,17.701,1.133,26.165,1.742l-.671.458Z" fill="#b9e9f3" stroke-width="0"/>
        </g>
        <path d="M546.193,34.841c1.089.049,4.117-.114,4.696.092,1.539.546-33.002,3.427-35.222,3.575-7.34.488-82.953,4.188-89.901,4.4-22.582.688-43.795.037-65.748-1.467-.556-.038-.115-.328-.671-.367-1.7-.118-7.632.204-8.386-.733,4.843.124,16.983-.173,22.475-.367,28.987-1.021,55.905-4.151,83.863-6.233,34.592-.79,55.247-.398,88.894,1.1Z" fill="#ab484b" stroke-width="0"/>
        <path d="M202.692,46.758c5.754,1.214,2.149.643-.671,2.2-41.57,3.736-56.151-.322-87.553-4.217-4.837-.6-12.14-1.04-12.412-1.467,6.169.247,12.334.348,18.45.733,26.295,1.655,44.686,6.369,82.185,2.75Z" fill="#dbdacf" stroke-width="0"/>
        <path d="M237.579,41.808c3.834.911,3.698,1.03.671,2.2-5.059.638-19.002,3.402-36.229,4.95,2.82-1.557,6.425-.986.671-2.2,9.135-.882,24.606-3.543,34.887-4.95Z" fill="#c9e6be" stroke-width="0"/>
        <path d="M407.988,47.308c7.297.766-.49,1.188,6.709,1.833-20.24,1.48-39.606,6.709-65.413,3.85-19.964-2.211-38.198-11.374-94.262-5.683,1.802-.948-8.032.189-8.722-.275.914-1.364-4.281-2.138-2.013-3.575,9.148-1.108,19.758-2.461,29.855-2.75,62.165-1.779,74.3,8.287,133.845,6.6Z" fill="#cf2b3b" stroke-width="0"/>
        <path d="M77.234,57.758c35.611,1.113,56.816,9.36,101.977,8.433l-.671.55c-26.614.788-47.212-.139-73.128-1.467-27.423-1.405-48.442-3.002-73.799-6.233,14.854-1.071,30.315-1.762,45.621-1.283Z" fill="#d4f0b6" stroke-width="0"/>
        <path d="M79.917,56.658c-4.126-.221-7.794-.525-12.076-.55-.243-.502.77-.343,2.013-.367,4.668-.09,11.974-.173,16.437,0,5.945.231,13.767,1.441,16.437,1.1,11.875,1.223,22.33,3.208,34.887,3.85-1.706.191-.087.413.671.55,21.825,3.932,66.901-.29,84.534-5.133,14.804-2.38,17.069-2.503,2.684,2.292-11.762,3.921-28.652,6.448-47.299,6.875-38.8.889-63.268-6.745-98.287-8.617Z" fill="#81e5f8" stroke-width="0"/>
        <path d="M636.094,50.974l2.013,1.65c-.405.054-2.205.407-2.684.55-10.817,1.19-18.343,3.405-28.178,4.95-20.808,3.27-41.513,4.416-65.077,3.483-1.691-.582.691-.913,1.342-1.65,42.985,1.715,51.282-5.904,92.584-8.983Z" fill="#d7c7b7" stroke-width="0"/>
        <path d="M440.191,45.658c-.387.76,1.811.897,4.025,1.1,5.703.522,15.308.43,31.868,2.933,19.759,2.987,26.694,6.838,51.995,9.167-.286.849-2.969,1.222-5.367,1.283-27.576-3.309-58.325-14.633-108.015-11-7.199-.645.588-1.068-6.709-1.833.543-.015,8.993-.447,10.734-.55,3.741.098,3.189-.172,3.355-.183,5.949-.425,12.096-.593,18.114-.917Z" fill="#cf2b3b" stroke-width="0"/>
        <path d="M190.616,55.741c5.961-.518,6.474-.39,12.076-1.283,3.971-.097,9.51-1.649,8.051-.55-9.662,1.625-14.183,3.076-27.171,4.033-50.566,3.725-66.182-7.123-114.389-6.6,1.733-.479,6.756-.494,9.393-.55,43.317-.917,63.427,9.176,112.04,4.95Z" fill="#cf2b3b" stroke-width="0"/>
        <path d="M255.023,47.308c-17.998,1.827-28.916,4.017-44.279,6.6,1.459-1.099-4.08.453-8.051.55,14.339-2.286,25.887-7.736,38.912-10.633.958-.12,1.777-.257,2.684-.367-2.268,1.437,2.927,2.211,2.013,3.575.69.464,10.523-.673,8.722.275Z" fill="#ab484b" stroke-width="0"/>
        <path d="M138.286,61.241c5.946-.096,13.801,1.721,16.102,0,28.469.294,43.016-2.415,68.432-5.133-17.632,4.843-62.709,9.066-84.534,5.133Z" fill="#e896a2" stroke-width="0"/>
        <path d="M479.774,55.558c6.065,1.337,11.754,2.607,18.114,3.85.483.094,2.733.896,5.367,1.283.104.905-3.046-.331-4.025.183-10.338-1.607-37.441-6.358-39.583-6.6q-6.374-1.65-12.747-3.3c12.469.881,22.36,2.623,32.874,4.583Z" fill="#b4e378" stroke-width="0"/>
        <path d="M273.137,52.624c-2.104.053-3.938.109-6.038.183-8.543.303-17.586,1.155-16.773.55,4.521-.968,6.074-2.089,19.456-3.483,39.658,3.049,32.647,2.007,3.355,2.75Z" fill="#cf2b3b" stroke-width="0"/>
        <path d="M67.841,56.108c4.282.025,7.95.329,12.076.55.538,1.292-1.028.693-2.684,1.1-15.306-.478-30.768.212-45.621,1.283-.177-.023-1.541.003-3.355-.55,12.659-1.239,25.889-2.464,39.583-2.383Z" fill="#f5f3f6" stroke-width="0"/>
        <path d="M497.889,59.408c-6.361-1.243-12.049-2.513-18.114-3.85-4.625-1.02-8.665-2.161-14.424-2.75l-.335-.458c1.683-.77,32.185,4.452,32.874,7.058Z" fill="#f5f3f6" stroke-width="0"/>
        <path d="M73.208,55.008q-2.516.092-5.032.183l1.677.55c-1.243.024-2.256-.135-2.013.367-13.694-.08-26.924,1.144-39.583,2.383l-1.342-.092c16.663-2.232,27.274-3.545,46.292-3.392Z" fill="#cbcab6" stroke-width="0"/>
        <path d="M543.51,59.958c-.651.737-3.032,1.068-1.342,1.65-8.083-.32-11.962-.567-19.456-1.467,2.399-.062,5.082-.434,5.367-1.283,5.76.53,9.204.852,15.431,1.1Z" fill="#cca19a" stroke-width="0"/>
        <path d="M102.728,56.841c-2.67.341-10.493-.869-16.437-1.1-4.463-.173-11.769-.09-16.437,0l-1.677-.55q2.516-.092,5.032-.183c13.1.105,17.934.64,29.52,1.833Z" fill="#b7c1be" stroke-width="0"/>
        <path d="M154.387,61.241c-2.301,1.721-10.155-.096-16.102,0-.758-.137-2.377-.359-.671-.55,3.312.169,13.558.517,16.773.55Z" fill="#e896a2" stroke-width="0"/>
        <path d="M569.004,11.007c10.929,1.877,24.463,2.856,36.9,3.667.457,1.242-3.798-.398-6.038,1.1-37.407-3.237-44.296-1.551-69.438-2.2-7.488-.193-24.071-1.64-25.83-1.65.073-.159-.169-.166-.671-.183-5.351-.997-4.186-1.616,1.342-2.383,22.031,1.759,40.768,2.027,63.736,1.65Z" fill="#cfe19e" stroke-width="0"/>
        <path d="M653.538,16.874c5.762.108,11.666-.079,17.443,0-19.124,2.073-30.284,2.59-50.988,1.1-11.125-.801-14.496-1.713-20.127-2.2,2.241-1.498,6.495.142,6.038-1.1,11.513.75,36.579,1.993,47.634,2.2Z" fill="#cae393" stroke-width="0"/>
        <path d="M422.077,46.574c-.165.012.386.281-3.355.183.167-.01-.393-.282,3.355-.183Z" fill="#cf2b3b" stroke-width="0"/>
        <path d="M496.547,52.074c5.315,1.025,9.35,2.524,15.095,3.483,14.036,2.344,37.15,3.814,53.337,3.117,18.101-.779,30.39-4.248,37.57-5.317,1.211-.18,2.759-.38,4.025-.55,8.317-1.12,39.463-3.904,46.963-2.75-8.195.087-10.113.37-17.443.917-41.302,3.079-49.599,10.698-92.584,8.983-6.226-.248-9.671-.57-15.431-1.1-25.3-2.329-32.236-6.179-51.995-9.167-16.56-2.504-26.165-2.412-31.868-2.933,19.604-.555,37.036,2.367,52.33,5.317Z" fill="#f5f3f6" stroke-width="0"/>
        <path d="M560.282,57.574c2.252.443,5.271-.228,4.696,1.1-16.187.697-39.3-.773-53.337-3.117-5.745-.959-9.78-2.458-15.095-3.483l.671-.55c17.578,3.97,40.119,6.54,63.065,6.05Z" fill="#c35665" stroke-width="0"/>
        <path d="M141.64,53.541c14.581,2.039,32.794,3.043,48.976,2.2-48.613,4.226-68.723-5.867-112.04-4.95-2.669-2.377,30.672-.103,39.919.733,6.109.552,21.856,3.214,23.146,2.017Z" fill="#f5f3f6" stroke-width="0"/>
        <path d="M601.878,53.358h.671c-7.18,1.069-19.47,4.537-37.57,5.317.575-1.328-2.445-.657-4.696-1.1,14.57-.311,28.452-2.586,41.596-4.217Z" fill="#ab484b" stroke-width="0"/>
        <path d="M569.004,11.007c-22.968.377-41.704.109-63.736-1.65-6.099-.487-11.532-1.29-17.443-1.833l23.482-.275c1.993-.688-25.786-5.235-28.178-5.592,21.399,1.714,45.035,1.919,64.742,4.95,7.587,1.167,14.048,3.183,21.133,4.4Z" fill="#ab484b" stroke-width="0"/>
        <path d="M323.454,2.024c14.446,1.495,26.806,3.485,46.963,4.767.494,1.069,8.106,1.452-2.013,2.108l2.013.642c-.707-.071-2.318.07-3.019,0-.569-.057-.102-.31-.671-.367-16.578-1.663-47.209-5.024-60.046-6.05-.087-.129.221-.216.671-.183.099.007.152.392,2.013.092-1.086-.477-1.782-.015-2.013-.092-1.77-.591-3.755-1.804-.671-2.2,5.798.44,11.029.689,16.773,1.283Z" fill="#cf2b3b" stroke-width="0"/>
        <path d="M418.722,5.324c.759.342,1.09.946,1.342,1.008.959.239,3.116-.102,3.355.275-23.932,1.029-27.905,1.779-53.001.183-20.157-1.282-32.517-3.272-46.963-4.767,24.611,1.96,49.257,4.918,75.476,4.4,6.482-.128,13.366-.852,19.792-1.1Z" fill="#f5f3f6" stroke-width="0"/>
        <path d="M473.736,6.24c4.687.432,9.401.852,14.089,1.283,5.912.544,11.344,1.346,17.443,1.833-5.528.767-6.692,1.387-1.342,2.383-1.972-.068-4.93-.467-6.709-.733-9.138-1.369-13.054-2.076-23.482-3.483-1.32-.378-2.55-1.304,0-1.283Z" fill="#9bf185" stroke-width="0"/>
        <path d="M468.369,5.507c-.508,1.113-2.582.849,2.013,1.65-7.059-.63-14.153-.974-21.469-1.283-2.726-.115-5.304-.218-8.051-.275,5.222-.142-.558-1.003,7.38-1.192,9.394.129,11.456.37,20.127,1.1Z" fill="#b9f2c0" stroke-width="0"/>
        <path d="M448.242,4.407c-7.938.189-2.158,1.05-7.38,1.192,2.747.057,5.325.16,8.051.275-8.757-.28-16.978.367-25.494.733-.238-.377-2.396-.036-3.355-.275-.252-.063-.583-.667-1.342-1.008,10.883-.42,17.917-1.076,29.52-.917Z" fill="#c9e0c9" stroke-width="0"/>
        <path d="M473.736,6.24c-2.55-.02-1.32.905,0,1.283-.984-.133-2.015-.133-3.355-.367-4.595-.801-2.521-.537-2.013-1.65,1.92.162,5.083.707,5.367.733Z" fill="#b9f2c0" stroke-width="0"/>
        <g>
          <path d="M687.083,50.424c.004,1.222-.003,2.444,0,3.667-3.564-.517-6.812-.973-10.734-1.283-6.836-.776-13.388-1.116-20.798-1.1.319-.627.034-1.335-2.013-1.65,10.696-.114,22.743.275,33.545.367Z" fill="#cf2b3b" stroke-width="0"/>
          <g>
            <path d="M687.083,45.658c.005,1.589-.005,3.178,0,4.767-10.802-.092-22.849-.48-33.545-.367-7.501-1.154-38.646,1.63-46.963,2.75-2.431-.068-4.464.521-4.696.55-13.144,1.631-27.026,3.905-41.596,4.217-22.945.49-45.487-2.081-63.065-6.05-17.918-4.046,1.636-.946,20.462.183,35.521.838,67.458-4.202,101.977-5.5,22.095-.831,45.198-.811,67.426-.55Z" fill="#51f1c8" stroke-width="0"/>
            <path d="M606.575,52.808c-1.266.171-2.815.37-4.025.55h-.671c.233-.029,2.265-.618,4.696-.55Z" fill="#7d7c9b" stroke-width="0"/>
          </g>
          <g>
            <path d="M676.348,52.808c1.426.162,6.907,1.42,10.734,1.467.005,1.894-.004,3.789,0,5.683-8.146-.486-17.13-1.791-25.494-1.283-20.203-1.378-33.874-1.256-54.343-.55,9.835-1.546,17.361-3.76,28.178-4.95,14.918-1.641,25.561-1.583,40.925-.367Z" fill="#81e5f8" stroke-width="0"/>
            <path d="M687.083,54.091c0,.061,0,.122,0,.183-3.827-.047-9.308-1.305-10.734-1.467,3.922.311,7.17.766,10.734,1.283Z" fill="#b7b1e1" stroke-width="0"/>
            <path d="M655.55,51.708c7.41-.016,13.962.324,20.798,1.1-15.364-1.216-26.007-1.275-40.925.367.478-.143,2.279-.496,2.684-.55,5.191-.698,11.726-.904,17.443-.917Z" fill="#e3dbe5" stroke-width="0"/>
          </g>
        </g>
        <path d="M653.538,50.058c2.047.315,2.332,1.023,2.013,1.65-5.717.012-12.252.219-17.443.917l-2.013-1.65c7.331-.547,9.248-.83,17.443-.917Z" fill="#e79891" stroke-width="0"/>
        <path d="M273.137,52.808l.671.733c-3.676.103-14.1,1.108-17.443,1.65l-2.684-.733c3.575-.578,9.518-1.456,13.418-1.65,1.684-.084,4.171.059,6.038,0Z" fill="#9bf185" stroke-width="0"/>
        <path d="M273.137,52.624v.183c-1.867.059-4.354-.084-6.038,0,2.1-.075,3.934-.13,6.038-.183Z" fill="#cfbac5" stroke-width="0"/>
        <path d="M448.913,5.874c7.316.31,14.41.653,21.469,1.283,1.339.233,2.37.234,3.355.367,10.428,1.407,14.344,2.115,23.482,3.483-34.615,2.285-66.505,4.415-101.641,1.467-2.208-.185-6.085-.883-8.386-1.1-5.791-.547-11.099-1.266-16.773-1.833l-2.013-.642c10.119-.656,2.506-1.04,2.013-2.108,25.096,1.596,29.069.846,53.001-.183,8.516-.366,16.738-1.014,25.494-.733Z" fill="#cf2b3b" stroke-width="0"/>
        <path d="M307.353,2.94c.23.077.927-.385,2.013.092-1.861.3-1.914-.084-2.013-.092Z" fill="#c35665" stroke-width="0"/>
      </g>
      <g>
        <path d="M80.588,165.009c4.081,2.431,9.154,1.91,16.773,2.567,25.427,2.191,46.073,3.429,71.115,6.417,1.62.193,4.191.602,6.709.917,6.186.772,12.329,1.602,18.785,2.2,11.72,1.758,32.183,4.055,45.286,4.4,9.698.255,40.651-.191,50.318-.733.552-.031.12-.337.671-.367,1.791-.097,4.697.146,6.374-.367,3.657-.093,4.282-.352,4.696-.367,9.445-.329,18.701-.793,28.178-1.1,1.068-.035.458-.35,1.006-.367,6.609-.201,39.207-.539,47.634-.55,9.454-.012,19.065.249,28.513.367-1.903.304-3.186.326-1.006.917,64.319,5.228,139.876,6.495,201.606-1.65,27.093-.846,53.452-2.342,79.837-4.217-.013,1.039.02,2.078,0,3.117-8.336.031-16.873.14-25.159.367-.411.011-1.57.364-1.677.367-14.251.393-17.036.144-33.545,1.1-9.229.535-18.427,1.315-27.507,2.017-16.991,1.313-44.67,4.256-59.375,5.133-24.766,1.479-63.269,1.608-88.559.917-29.609-.809-57.861-3.563-87.888-3.85-54.016-.516-79.593,4.648-113.047,2.75-13.737-.779-26.073-2.929-40.254-3.117-38.461-4.123-78.461-6.656-117.743-10.083-29.241-2.552-52.83-7.831-92.249-2.2-.027-2.383.019-4.767,0-7.15,11.156-.333,20.625-.469,31.868-.183,16.675.423,32.165,2.168,48.64,2.75Z" fill="url(#linear-gradient-4)" stroke-width="0"/>
        <path d="M687.083,167.942c-5.576.292-11.044,1.413-16.437,1.833-22.107,1.722-43.97-.456-66.419,0-7.11.145-31.908,1.496-37.235,2.567-14.088,1.006-26.681,1.911-41.26,2.567-43.833.307-71.455-1.777-109.692-7.333-1.426-.217-4.084-1.056-5.367-1.467-1.988-.637-10.982-4.145-5.367-3.3,62.019,6.053,98.114,7.845,159.674-.733,20.153-.162,40.259.136,60.381.367,6.627.076,13.549.353,20.127,0,6.4.031,17.13-.023,23.146-.367.554-.032.114-.33.671-.367,2.095-.139,5.76-.129,8.051-.367.739-.077,4.976-1.279,9.728-1.467-.018,2.689.026,5.378,0,8.067Z" fill="#cf2b3b" stroke-width="0"/>
        <path d="M261.732,138.975c7.082.622,15.763.449,21.804.733,1.797.085,7.857.654,9.393.733,5.947.306,17.26.31,29.184,1.467,22.945,2.225,64.022,12.114,101.306,13.383,15.499.528,28.095-.304,42.602-1.65.592-.055.261-.36.335-.367,15.624-1.466,30.901-3.19,47.299-4.4q34.551-1.1,69.103-2.2c.551-.03.119-.336.671-.367,26.229-1.462,38.364-2.945,67.09-2.75,5.917.04,18.09.29,23.817.55,4.202.191,8.377.723,12.747.733-.007,1.833.009,3.667,0,5.5-3.937.431-7.741,1.075-11.405,1.65l-.671-.367c.89-.175,1.586-.365,2.684-.458-.005-.664-33.07-1.871-36.564-1.925-23.355-.363-93.016,1.711-116.066,3.3-46.755,3.224-64.013,10.997-111.705,6.6-16.346-1.507-44.831-6.939-66.419-9.9-.86-.118-3.143-.249-4.025-.367-8.562-1.143-17.045-2.48-25.83-3.483-18.126-2.071-31.476-2.815-56.691-6.05l1.342-.367Z" fill="url(#linear-gradient-5)" stroke-width="0"/>
        <path d="M112.121,160.242c34.36,2.265,57.859-1.63,91.578-2.933q17.276.092,34.551.183c9.874,1.221,17.222,2.878,25.494,4.217q-9.057,1.192-18.114,2.383c-12.442-3.258-35.436-3.894-51.995-3.667-19.53.268-43.204,2.734-63.4,3.85-1.381.076-3.142.29-4.696.367-17.324.849-27.549.981-44.95.367-16.475-.582-31.965-2.327-48.64-2.75-11.243-.285-20.712-.15-31.868.183-.017-2.078.011-4.156,0-6.233,8.783-.545,15.739-.927,24.823-1.1,47.718-.908,60.502,3.372,87.217,5.133Z" fill="#cf2b3b" stroke-width="0"/>
        <path d="M210.072,181.876c11.316,1.213,22.063,2.929,33.545,4.033,2.431.234,4.913.54,7.38.733v1.1c-21.245-.003-42.49.005-63.736,0-31.942-5.233-67.813-8.593-97.616-14.85-30.865-2.497-63.194-1.221-89.565,3.85-.048-2.383.027-4.767,0-7.15,39.419-5.631,63.008-.352,92.249,2.2,39.282,3.428,79.282,5.961,117.743,10.083Z" fill="#dcd7c4" stroke-width="0"/>
        <path d="M187.262,187.742c-19.009-.005-38.018.007-57.027,0-15.63-1.87-30.965-5.995-40.59-7.7-.583-.103-3.983-.303-4.361-.367-10.442-1.755-23.276-4.148-36.229-4.217-11.824-1.598-37.954-.123-48.976,2.017-.006-.244.005-.489,0-.733,26.371-5.071,58.7-6.347,89.565-3.85,29.803,6.257,65.674,9.617,97.616,14.85Z" fill="#81e5f8" stroke-width="0"/>
        <path d="M687.083,140.075c-.005,1.589.006,3.178,0,4.767-4.371-.011-8.545-.543-12.747-.733,3.666-.531-1.386-.133-2.348-.183-22.435-1.164-46.197-.762-68.432.733l-7.715-4.767c4.846-.095,8.881-.725,16.102-.917,8.891-.236,14.315-.691,16.437-.733,19.88-.4,39.617.289,58.704,1.833Z" fill="#cf2b3b" stroke-width="0"/>
        <path d="M687.083,167.942c-.011,1.161.016,2.322,0,3.483-20.462,1.578-44.421,1.732-64.406,3.483-13.998-1.004-39.207-1.554-53.001-.733-8.234-.788-5.88-1.191-2.684-1.833,5.327-1.07,30.125-2.422,37.235-2.567,22.449-.456,44.312,1.722,66.419,0,5.393-.42,10.861-1.541,16.437-1.833Z" fill="#81e5f8" stroke-width="0"/>
        <path d="M29.6,129.258c-1.109,1.283,3.556,1.217,6.709,1.65,39.367,5.405,52.433-2.266,88.559-5.133-.092.048.908.094-.671.733-3.361.392-6.19.82-9.393,1.283-17.756,2.569-33.92,6.842-50.318,7.517-6.853.282-13.961.288-20.798,0-2.01-.085-4.675-.39-6.709-.55-7.217-.569-15.421-1.715-21.469-2.933-1.32-.266-5.729-1.397-7.38-1.833-2.901-.767-5.463-1.542-8.051-2.383-.002-.733.002-1.467,0-2.2,9.3,1.591,18.501,3.291,29.52,3.85Z" fill="#f5f3f6" stroke-width="0"/>
        <path d="M685.07,187.742c-21.021.014-42.044-.019-63.065,0,16.4-3.678,55.558-7.755,63.065,0Z" fill="#323720" stroke-width="0"/>
        <path d="M32.954,149.242c23.668.251,9.589.403,17.443,2.567-3.292-.039-24.609-.115-25.83,0-.411.039-5.986,1.42-5.032,1.833-6.547.101-12.996.23-19.456.55-.007-1.406.007-2.811,0-4.217,10.967-.243,21.881-.566,32.874-.733Z" fill="#cae393" stroke-width="0"/>
        <path d="M687.083,173.076c-26.385,1.875-52.744,3.371-79.837,4.217-3.915-.386,8.665-1.79,15.431-2.383,19.986-1.752,43.945-1.906,64.406-3.483-.007.55.007,1.1,0,1.65Z" fill="#cae393" stroke-width="0"/>
        <path d="M687.083,133.659c-.004,1.528.005,3.056,0,4.583-19.486-1.348-39.249-.921-59.039-1.1,5.306-.759,22.829-2.027,29.184-2.383,9.809-.55,19.871-.886,29.855-1.1Z" fill="#cf2b3b" stroke-width="0"/>
        <path d="M628.043,137.142c19.79.179,39.553-.248,59.039,1.1-.002.611.002,1.222,0,1.833-19.087-1.545-38.824-2.233-58.704-1.833-2.122.043-7.546.497-16.437.733,5.587-.466,2.797-.711,2.013-1.833,4.684.048,9.403-.042,14.089,0Z" fill="#51f1c8" stroke-width="0"/>
        <path d="M49.056,175.459c-15.071-.08-35.449,3.168-48.976,4.95-.03-.978.023-1.956,0-2.933,11.022-2.139,37.152-3.615,48.976-2.017Z" fill="#cae393" stroke-width="0"/>
        <path d="M15.511,131.825c6.047,1.218,14.252,2.364,21.469,2.933q-18.45.458-36.9.917c-.004-1.222.003-2.444,0-3.667q7.715-.092,15.431-.183Z" fill="#e9a8a6" stroke-width="0"/>
        <path d="M687.083,159.875c-4.752.188-8.989,1.39-9.728,1.467-2.291.238-5.955.227-8.051.367-.557.037-.117.335-.671.367-6.016.343-16.746.397-23.146.367-4.29-.02-7.348.182-6.709-.367,9.848-.155,7.292-.351,7.715-.367,14.68-.548,12.845-.537,25.494-2.567.457-.073,2.251.073,2.684,0,.697-.118,10.219-2.467,12.412-2.933-.006,1.222.008,2.444,0,3.667Z" fill="#56ff6a" stroke-width="0"/>
        <path d="M43.018,142.459c.578.905-1.975.415-4.696.55-7.586.375-10.352.241-14.424.367-.53.016-.142.351-.671.367-7.507.226-15.588.029-23.146.367-.005-1.283.004-2.567,0-3.85,13.426,2.123,27.941,2.4,42.938,2.2Z" fill="#81e5f8" stroke-width="0"/>
        <path d="M130.235,187.742c-5.591-.002-11.182.002-16.773,0-3.881-1.373-9.09-2.421-13.418-3.667-4.988-1.435-9.023-3.13-14.76-4.4.378.064,3.778.263,4.361.367,9.624,1.706,24.959,5.83,40.59,7.7Z" fill="#fcd6dc" stroke-width="0"/>
        <path d="M43.689,135.309c-13.735,1.284-28.661,1.478-42.938,2.2H.08c-.002-.611.002-1.222,0-1.833q18.45-.458,36.9-.917c2.034.16,4.699.465,6.709.55Z" fill="#dcd7c4" stroke-width="0"/>
        <path d="M38.322,153.642c-2.874,2.165-11.415.361-13.418,1.467-9.085.173-16.04.555-24.823,1.1-.004-.672.003-1.344,0-2.017,6.46-.32,12.909-.449,19.456-.55,6.564-.101,12.256-.052,18.785,0Z" fill="#d4f0b6" stroke-width="0"/>
        <path d="M372.43,187.742c-18.338.002-36.676.002-55.014,0,10.896-1.702,42.675-1.357,55.014,0Z" fill="#dbabad" stroke-width="0"/>
        <path d="M687.083,176.192c-.014.733.021,1.467,0,2.2-8.542-.984-17.774-1.105-26.836-1.467.107-.003,1.267-.355,1.677-.367,8.286-.226,16.822-.335,25.159-.367Z" fill="#b7cd77" stroke-width="0"/>
        <path d="M8.131,129.992c1.651.436,6.06,1.567,7.38,1.833q-7.715.092-15.431.183c-.002-.672.002-1.344,0-2.017h8.051Z" fill="#f0d3d0" stroke-width="0"/>
        <path d="M266.428,187.742c-5.144,0-10.287,0-15.431,0v-1.1c6.259.491,13.739.452,15.431,1.1Z" fill="#e9a8a6" stroke-width="0"/>
        <path d="M8.131,129.992H.08c-.002-.794.002-1.589,0-2.383,2.588.841,5.15,1.617,8.051,2.383Z" fill="#cf2b3b" stroke-width="0"/>
        <g>
          <path d="M96.019,184.809q6.709,1.467,13.418,2.933c-17.667-.008-35.335.02-53.001,0-.296-.568-6.589-1.149-10.064-1.467-14.894-1.363-30.965-1.412-46.292-.733-.206-1.522.056-3.059,0-4.583,52.368-6.723,83.318,2.408,95.939,3.85Z" fill="#cf2b3b" stroke-width="0"/>
          <path d="M49.056,175.459c12.953.069,25.786,2.462,36.229,4.217,5.736,1.27,9.772,2.965,14.76,4.4.32.911-1,1.079-4.025.733-12.621-1.442-43.57-10.574-95.939-3.85-.007-.183.006-.367,0-.55,13.527-1.783,33.905-5.03,48.976-4.95Z" fill="#323720" stroke-width="0"/>
          <path d="M113.462,187.742c-1.342,0-2.684,0-4.025,0q-6.709-1.467-13.418-2.933c3.025.346,4.345.178,4.025-.733,4.328,1.245,9.537,2.294,13.418,3.667Z" fill="#413333" stroke-width="0"/>
          <g>
            <path d="M46.372,186.459v1.283c-1.342-.002-2.684.002-4.025,0-11.74-1.702-29.875-1.938-42.267-.55-.059-.488.084-.98,0-1.467,15.54-.701,31.223-.486,46.292.733Z" fill="#51f2f3" stroke-width="0"/>
            <path d="M42.347,187.742c-14.088-.021-28.178.016-42.267,0v-.55c12.391-1.388,30.526-1.152,42.267.55Z" fill="#435557" stroke-width="0"/>
            <path d="M46.372,186.276v.183c-15.069-1.22-30.752-1.435-46.292-.733-.011-.061.008-.122,0-.183,15.327-.678,31.398-.63,46.292.733Z" fill="#785870" stroke-width="0"/>
            <path d="M56.436,187.742c-3.354-.004-6.709.004-10.064,0v-1.467c3.474.318,9.767.899,10.064,1.467Z" fill="#969d1f" stroke-width="0"/>
          </g>
        </g>
        <path d="M365.05,130.175c3.622,2.059,17.967,5.078,26.165,6.05,13.005,1.542,29.196,1.682,42.938.917,1.694-.094,2.539-.356,2.684-.367,10.695-.794,15.223-1.647,24.152-3.3,1.893,1.17,1.011,2.369,5.367,1.65-3.042,1.438-8.116,2.47-12.747,3.483-9.767.609-19.537,2.469-30.191,2.567-3.505.032-22.418-.833-25.83-1.1-12.696-.995-24.381-2.883-36.564-4.217-.193-.021-.478.021-.671,0-2.081-.803-2.832-1.88-5.367-2.567-.855-1.117-5.781-4.335-8.051-4.95l2.013-1.467c5.126.89,11.15,2.467,16.102,3.3Z" fill="#baf0bf" stroke-width="0"/>
        <path d="M348.949,126.875l-2.013,1.467c-5.812-1.575-17.827-1.234-25.159-.733-19.844,1.354-28.06,7.166-57.697,8.067-6.563.2-17.101-.339-19.792.183-.213-.013-.459.014-.671,0,.529-.455-2.579-.621-5.367-.917-3.655-.388-8.326-.6-12.076-1.1-1.461-.447-4.756-1.067-6.709-1.467,3.121.097,7.061.026,7.044,1.1,3.395-2.053-2.877-1.478-3.69-2.75,21.684,3.181,39.015,2.207,60.046-1.1,6.192-.974,11.274-2.555,17.443-3.483,7.7-1.159,19.44-2.095,28.178-1.833.531.016.135.344.671.367,11.814.491,10.127.523,19.792,2.2Z" fill="#81e5f8" stroke-width="0"/>
        <path d="M613.284,124.308c-33.119.902-86.572-1.748-108.686,5.5-7.318,1.383-12.072,3.243-18.114,4.95-1.637.462-3.542.43-10.734,2.567l-2.013-.733c3.44-1.239,6.633-2.667,9.393-4.033,5.129-1.419,8.905-3.11,14.76-4.4,9.894-2.179,24.622-3.334,20.798-4.217,24.089-2.098,64.53-1.601,89.565-.367,1.27.063,5.539.384,5.032.733Z" fill="#d4f0b6" stroke-width="0"/>
        <path d="M645.487,126.142c9.126.729,18.053,1.845,27.171,2.567,3.264.258,8.955.221,8.386.733-22.701.773-32.732,2.949-34.551,2.933-3.058-.027-25.044-6.413-54.008-7.425,17.887-.917,35.554.252,53.001,1.192Z" fill="#e896a2" stroke-width="0"/>
        <path d="M124.868,125.775c-36.126,2.867-49.192,10.539-88.559,5.133-.035-.115.79-.354,1.006-.367,4.604-.279,21.483.695,47.634-1.467,2.213-.183,9.214-1.238,9.728-1.283,3.951-.348,31.122-3.14,32.203-2.292-.933.378-1.961.248-2.013.275Z" fill="#81e5f8" stroke-width="0"/>
        <path d="M436.837,136.775c-.145.011-.99.272-2.684.367-9.095-.346-18.795-.054-27.842-.367-3.644-.126-12.28-1.462-15.095-.55-8.198-.972-22.543-3.991-26.165-6.05,11.847,1.994,38.73,5.204,51.995,5.867,5.516.276,18.567.058,19.792.733Z" fill="#c9e0c9" stroke-width="0"/>
        <path d="M193.971,126.142l-2.684,1.283c-19.567-2.503-38.137-2.814-58.368-.55-.105.012-.751.028-2.013.183v-1.283c22.763-2.156,40.809-2.21,63.065.367Z" fill="#baf0bf" stroke-width="0"/>
        <path d="M497.889,128.158c-5.855,1.29-9.631,2.981-14.76,4.4-7.16,1.981-8.58,3.107-21.469,5.317-3.596.616-7.525,1.175-11.405,1.65.194-.037,1.704-.556,3.355-.917,4.631-1.014,9.706-2.045,12.747-3.483,2.995-.494,15.791-5.005,25.494-7.15,1.767-.391,3.493-.747,5.367-1.1l.671,1.283Z" fill="#d7e28f" stroke-width="0"/>
        <path d="M94.677,127.792c-.514.045-7.515,1.1-9.728,1.283-26.151,2.161-43.03,1.188-47.634,1.467-.216.013-1.041.252-1.006.367-3.153-.433-7.818-.367-6.709-1.65,18.563.941,47.069-.205,64.742-2.2,2.257.167,2.152.385.335.733Z" fill="#e5c3c9" stroke-width="0"/>
        <path d="M222.819,130.725c.813,1.272,7.084.697,3.69,2.75.016-1.074-3.923-1.003-7.044-1.1-8.694-1.779-18.301-3.687-28.178-4.95l2.684-1.283c11.943,1.383,18.276,3.032,28.849,4.583Z" fill="#51f1c8" stroke-width="0"/>
        <path d="M491.851,127.975c-9.703,2.145-22.499,6.656-25.494,7.15-4.357.719-3.474-.48-5.367-1.65,4.241-.785,28.367-6.313,31.197-6.05l-.335.55Z" fill="#81e5f8" stroke-width="0"/>
        <path d="M497.889,128.158l-.671-1.283c6.648-1.251,13.767-2.263,21.469-2.933,3.824.883-10.904,2.037-20.798,4.217Z" fill="#cae393" stroke-width="0"/>
        <path d="M130.906,125.775v1.283c-4.387.539-8.723,1.3-12.747,2.017-2.395-.085-3.819-.699-3.355-1.283,3.203-.463,6.032-.891,9.393-1.283,2.253-.263,4.386-.513,6.709-.733Z" fill="#d9ddb5" stroke-width="0"/>
        <path d="M437.508,173.259c26.061,3.563,69.05,5.018,97.616,3.85,14.022-.573,30.243-2.677,34.551-2.933,13.795-.821,39.003-.271,53.001.733-6.766.593-19.346,1.998-15.431,2.383-61.729,8.145-137.287,6.878-201.606,1.65-2.18-.591-.897-.613,1.006-.917,11.87.148,15.799.535,10.734-.367-1.383-.246-22.768-3.054-29.52-4.033l-.335-.55c3.574-.401,42.311,1.347,49.982.183Z" fill="#56ff6a" stroke-width="0"/>
        <path d="M263.744,161.709c11.084,1.794,28.771,5.02,35.893,6.05,28.835,4.17,82.804,6.452,117.408,10.267l.335-.367c5.065.902,1.136.514-10.734.367-9.448-.118-19.059-.379-28.513-.367-8.427.011-41.025.35-47.634.55-.549.017.062.332-1.006.367-1.899-.714-13.318-.627-20.462-1.1-16.553-1.096-35.757-4.279-47.299-7.7-5.163-1.531-11.754-4.545-16.102-5.683q9.057-1.192,18.114-2.383Z" fill="#ab484b" stroke-width="0"/>
        <path d="M215.439,166.109c5.353-.132,15.172.035,20.462.367,9.183.576,17.169,2.394,25.83,3.3,11.541,3.421,30.745,6.604,47.299,7.7,7.144.473,18.563.386,20.462,1.1-9.477.307-18.733.771-28.178,1.1-2.523-1.893-2.705-1.188-4.696-1.467-3.471-.486-7.701-.803-14.76-2.017-7.567-1.301-14.111-3.336-21.804-4.583-30.484-4.941-62.026-.999-91.578,2.383-25.043-2.988-45.688-4.226-71.115-6.417-.746-.52,10.813-.447,17.108-.367,15.171.193,30.61.491,43.273,2.933,1.313.253,7.805,2.204,8.386,2.2.404-.003,2.919-.917,6.038-1.467,11.163-1.967,30.355-4.447,43.273-4.767Z" fill="#e896a2" stroke-width="0"/>
        <path d="M281.859,176.192c1.325,2.662-.815,1.21-4.025,1.833-10.084-.739-21.929-1.934-31.197-3.117-5.219.087-14.281-.972-18.785-1.1-12.151-.345-27.191.188-38.577.55-5.458.173-11.735.138-14.089.55-2.518-.314-5.089-.723-6.709-.917,29.552-3.382,61.094-7.325,91.578-2.383,7.693,1.247,14.238,3.282,21.804,4.583Z" fill="#56ff6a" stroke-width="0"/>
        <path d="M240.934,178.209c16.875,1.69,37.713,2.292,55.685,1.833-1.677.512-4.582.27-6.374.367-.551.03-.119.336-.671.367-9.667.543-40.619.988-50.318.733-13.103-.345-33.566-2.642-45.286-4.4-2.83-.425-6.02-.844-8.386-1.467,19.117-.591,37.466.889,55.349,2.567Z" fill="#e896a2" stroke-width="0"/>
        <path d="M125.539,164.642c.239.56-.334,2.346,0,2.475.524.202,3.637.046,4.696.092,26.116,1.118,25.719,2.524,27.171,2.567.708.021,6.807-1.318,11.741-1.833q-5.703,1.1-11.405,2.2c-12.663-2.442-28.102-2.74-43.273-2.933-6.295-.08-17.854-.153-17.108.367-7.619-.657-12.692-.136-16.773-2.567,17.402.615,27.626.483,44.95-.367Z" fill="#d4f0b6" stroke-width="0"/>
        <path d="M189.274,174.359c-.044.114.815.358,1.006.367,4.191.194,14.392-.005,26.165.733,5.878.369,16.127,1.585,22.475,2.2.134.013.891.438,2.013.55-17.883-1.678-36.232-3.157-55.349-2.567,2.366.623,5.556,1.042,8.386,1.467-6.456-.598-12.6-1.428-18.785-2.2,2.353-.412,8.631-.377,14.089-.55Z" fill="#e0dedd" stroke-width="0"/>
        <path d="M289.238,178.942c3.6.111,9.888.144,7.38-.733,1.991.279,2.173-.426,4.696,1.467-.414.014-1.039.273-4.696.367-17.972.459-38.81-.143-55.685-1.833-1.121-.112-1.879-.537-2.013-.55,15.949,1.31,34.064,2.298,50.318,1.283Z" fill="#dbabad" stroke-width="0"/>
        <g>
          <path d="M543.51,187.742c-57.026.018-114.053-.006-171.08,0-12.339-1.357-44.118-1.702-55.014,0-16.996-.002-33.992.003-50.988,0-1.691-.648-9.171-.609-15.431-1.1-2.467-.194-4.949-.5-7.38-.733,3.974-.268,5.244.999,6.709-.917,33.454,1.898,59.031-3.266,113.047-2.75,30.027.287,58.279,3.041,87.888,3.85,25.289.691,63.793.562,88.559-.917,14.705-.878,42.383-3.82,59.375-5.133-5.013,1.071-13.422,1.712-19.792,2.567-12.073,1.62-23.57,3.628-35.893,5.133Z" fill="#323720" stroke-width="0"/>
          <path d="M250.326,184.992c-1.465,1.916-2.735.649-6.709.917-11.482-1.104-22.229-2.82-33.545-4.033,14.181.188,26.518,2.337,40.254,3.117Z" fill="#50663e" stroke-width="0"/>
        </g>
        <path d="M227.516,142.275c.672.117,1.415.267,2.013.367q-6.541.183-13.083.367-7.212,1.054-14.424,2.108c17.485,1.407,34.415,3.27,51.659,4.858,13.762,1.268,27.634,3.162,41.931,3.85,16.602.799,41.64.287,56.356,1.283,10.002.677,19.033,2.567,27.842,3.85-8.843,1.307-26.921,2.108-13.083,5.5,9.433,2.312,39.994,2.321,42.267,2.017.829-.111-.458-.788,1.677-.367,1.283.411,3.941,1.249,5.367,1.467,1.675,2.107,14.421,4.72,21.469,5.683-7.671,1.163-46.408-.584-49.982-.183l.335.55c-10.186-1.477-33.381-5.141-37.906-5.683-15.946-1.912-37.275-2.871-55.014-5.133-21.117-2.693-53.219-9.755-75.812-11.367-41.109-2.932-68.677,2.351-107.68,2.933-20.686-.9-38.774-2.3-61.052-2.567-7.854-2.163,6.225-2.316-17.443-2.567,32.184-.49,65.182.426,96.274-2.2,30.611-3.972,65.813-6.002,98.287-4.767Z" fill="#56ff6a" stroke-width="0"/>
        <path d="M346.936,149.242c21.588,2.962,50.073,8.393,66.419,9.9,7.192,1.613,10.681.92,6.038,4.675,3.755-.2,2.312.298,3.69.458,3.159.369,40.927,2.766,45.621,2.933,37.1,1.324,57.141-.73,89.901-4.767,13.804-1.701,30.81-5.383,46.628-5.133-1.29.048-3.099.056-4.025.367-12.865.608-25.302,2.489-36.229,4.4-61.561,8.578-97.655,6.786-159.674.733-8.676-1.207-16.895-2.597-25.494-3.85-8.81-1.283-17.841-3.173-27.842-3.85-14.716-.996-39.753-.484-56.356-1.283-14.298-.688-28.169-2.582-41.931-3.85l.335-1.1c3.791-.429,50.613,3.401,81.179,2.567,5.446-.149,15.828-.383,11.741-2.2Z" fill="#cae393" stroke-width="0"/>
        <path d="M566.991,172.342c-3.196.642-5.55,1.045,2.684,1.833-4.308.256-20.529,2.36-34.551,2.933-28.566,1.167-71.555-.287-97.616-3.85-7.048-.964-19.794-3.577-21.469-5.683,38.238,5.556,65.86,7.64,109.692,7.333,14.579-.656,27.173-1.56,41.26-2.567Z" fill="#81e5f8" stroke-width="0"/>
        <path d="M405.304,162.809c-5.615-.845,3.38,2.663,5.367,3.3-2.135-.421-.848.256-1.677.367-2.273.305-32.834.295-42.267-2.017-13.838-3.392,4.24-4.193,13.083-5.5,8.6,1.253,16.818,2.643,25.494,3.85Z" fill="#9bf185" stroke-width="0"/>
        <path d="M675.006,151.625c-16.402,3.229-49.725,4.944-69.774,5.683-15.817-.25-32.824,3.433-46.628,5.133-32.76,4.036-52.801,6.091-89.901,4.767-4.694-.168-42.462-2.565-45.621-2.933-1.378-.161.065-.659-3.69-.458,4.642-3.755,1.154-3.062-6.038-4.675,47.692,4.397,64.95-3.376,111.705-6.6,23.05-1.589,92.71-3.663,116.066-3.3,3.494.054,36.559,1.261,36.564,1.925-1.098.094-1.794.283-2.684.458Z" fill="#cae393" stroke-width="0"/>
        <path d="M595.84,139.892l7.715,4.767c22.235-1.495,45.997-1.897,68.432-.733.962.05,6.014-.347,2.348.183-5.727-.26-17.9-.51-23.817-.55-28.727-.195-40.862,1.288-67.09,2.75-.552.031-.12.337-.671.367q-34.551,1.1-69.103,2.2c-16.398,1.21-31.674,2.934-47.299,4.4l-1.342-.092,2.684-1.742c9.692-1.959,17.434-6.307,26.165-8.8,10.806-2.123,22.754-4.588,36.564-4.95,5.979-.157,17.253.223,23.482.55.797.042,1.989.532,15.431,1.1.538.023.136.348.671.367,1.281.046,24.541.209,25.83.183Z" fill="#cf2b3b" stroke-width="0"/>
        <path d="M227.516,134.575c7.249,1.177,14.654,2.246,22.14,3.3,3.595.506,7.069.996,10.734,1.467,25.215,3.235,38.565,3.979,56.691,6.05,8.784,1.004,17.268,2.34,25.83,3.483-39.784-.433-78.266-.395-113.382-6.233-.598-.099-1.341-.25-2.013-.367-7.596-1.322-17.034-3.554-23.482-5.317-13.302-3.638-24.916-10.128-58.033-9.35-9.723.228-21.448,2.16-21.804,1.283,2.814-.491,4.818-.908,8.051-1.283,41.933-4.866,70.951,3.019,95.268,6.967Z" fill="#ab484b" stroke-width="0"/>
        <path d="M229.528,142.642c35.116,5.838,73.598,5.8,113.382,6.233.882.118,3.165.249,4.025.367,4.087,1.817-6.295,2.051-11.741,2.2-30.566.834-77.388-2.996-81.179-2.567l-.335,1.1c-17.245-1.588-34.175-3.451-51.659-4.858q7.212-1.054,14.424-2.108,6.541-.183,13.083-.367Z" fill="#cae393" stroke-width="0"/>
        <path d="M350.29,141.725c22.08,1.151,32.596,7.997,59.039,10.817-13.583,1.654,10.636,1.498,14.089,2.75-37.284-1.269-78.361-11.158-101.306-13.383,9.325-.123,18.868-.668,28.178-.183Z" fill="#ab484b" stroke-width="0"/>
        <path d="M260.39,137.875c15.085,1.006,32.086.596,47.969,1.1,13.883.441,27.534,1.56,41.26,2.2l.671.55c-9.31-.485-18.853.06-28.178.183-11.924-1.156-23.237-1.161-29.184-1.467-1.536-.079-7.596-.649-9.393-.733-6.042-.284-14.722-.111-21.804-.733-2.397-.211-7.121-.626-4.025-1.1.891.012,1.792-.011,2.684,0Z" fill="#cf2b3b" stroke-width="0"/>
        <path d="M466.356,153.275c-.075.007.257.312-.335.367-14.507,1.346-27.103,2.178-42.602,1.65-3.453-1.252-27.672-1.096-14.089-2.75,2.329.248,4.805.562,7.38.55,14.979,1.69,37.855,1.005,50.988-1.65l-2.684,1.742,1.342.092Z" fill="#c35665" stroke-width="0"/>
        <g>
          <path d="M687.083,150.342c-.009,1.956.01,3.911,0,5.867-2.192.466-11.714,2.815-12.412,2.933-.433.073-2.226-.073-2.684,0-12.649,2.03-10.814,2.018-25.494,2.567-.423.016,2.133.211-7.715.367-7.748.122-12.054-.461-13.418.367-20.122-.231-40.228-.529-60.381-.367,10.927-1.911,23.364-3.792,36.229-4.4,20.658-.977,31.686.005,61.387-3.667,4.574-.565,8.751-1.337,13.083-2.017,3.664-.575,7.469-1.219,11.405-1.65Z" fill="#e896a2" stroke-width="0"/>
          <path d="M638.778,162.075c-.639.548,2.419.346,6.709.367-6.578.353-13.5.076-20.127,0,1.364-.827,5.67-.244,13.418-.367Z" fill="#c5aead" stroke-width="0"/>
          <path d="M675.677,151.992c-4.331.68-8.508,1.451-13.083,2.017-29.702,3.671-40.73,2.69-61.387,3.667.926-.31,2.736-.319,4.025-.367,20.049-.739,53.371-2.455,69.774-5.683l.671.367Z" fill="#d9ddb5" stroke-width="0"/>
        </g>
        <path d="M257.706,137.875c-3.095.474,1.629.889,4.025,1.1l-1.342.367c-3.665-.47-7.139-.961-10.734-1.467,2.611-.065,5.44-.034,8.051,0Z" fill="#c5aead" stroke-width="0"/>
        <path d="M202.692,136.775l-.335.367c-5.169-1.307-11.056-.977-12.747-1.1-.558-.041-.116-.33-.671-.367-32.068-2.13-59.321,1.063-87.888,4.767-13.608.472-26.626,1.893-40.59,2.017.119-.052-.072-.336,0-.55,12.787-.78,16.822-1.533,26.836-3.667,30.672-7.08,64.976-13.324,102.312-5.133,4.148.91,9.897,2.964,13.083,3.667Z" fill="#40f798" stroke-width="0"/>
        <path d="M204.034,136.959c-.354-.024-1.123-.135-1.342-.183-3.185-.702-8.935-2.757-13.083-3.667-37.336-8.19-71.64-1.946-102.312,5.133,2.419-.515,19.552-4.35,20.127-4.675.334-.189-1.097-.391-.671-.642,4.018-.888,8.128-2.406,17.443-4.033.357.876,12.082-1.055,21.804-1.283,33.117-.778,44.731,5.712,58.033,9.35Z" fill="#943b3b" stroke-width="0"/>
        <g>
          <path d="M202.692,136.775c.219.048.987.159,1.342.183,6.447,1.763,15.885,3.995,23.482,5.317-32.474-1.235-67.676.795-98.287,4.767-31.093,2.626-64.09,1.71-96.274,2.2-10.993.167-21.907.491-32.874.733-.009-1.956.007-3.911,0-5.867,7.558-.338,15.639-.14,23.146-.367.529-.016.141-.35.671-.367,4.072-.126,6.839.009,14.424-.367,4.011.211,14.827-.156,19.456-.367,1.053-.048,1.92.148,2.684-.183,13.964-.123,26.982-1.544,40.59-2.017,28.567-3.704,55.82-6.896,87.888-4.767.555.037.113.326.671.367,1.691.123,7.578-.207,12.747,1.1l.335-.367Z" fill="#e896a2" stroke-width="0"/>
          <path d="M60.461,141.909c-.072.214.119.498,0,.55-1.449.013-2.748-.093-2.684.183-4.629.211-15.445.578-19.456.367,2.721-.135,5.274.355,4.696-.55,4.912-.066,9.921-.121,14.76-.367.705-.036,1.76-.127,2.684-.183Z" fill="#e5c3c9" stroke-width="0"/>
          <path d="M60.461,142.459c-.764.332-1.63.135-2.684.183-.065-.277,1.234-.171,2.684-.183Z" fill="#40f798" stroke-width="0"/>
        </g>
        <path d="M387.861,173.626c6.752.979,28.137,3.787,29.52,4.033l-.335.367c-34.603-3.814-88.572-6.097-117.408-10.267-7.122-1.03-24.809-4.256-35.893-6.05-8.272-1.339-15.62-2.996-25.494-4.217-9.028-1.116-18.705-1.963-28.513-2.383-5.724-.245-29.311-.775-33.545-.55-.561.03.097.289-1.006.367-29.629.11-33.136.781-63.736-.55,39.002-.583,66.571-5.865,107.68-2.933,22.593,1.611,54.695,8.673,75.812,11.367,17.739,2.263,39.067,3.221,55.014,5.133,4.525.543,27.72,4.206,37.906,5.683Z" fill="#e0dedd" stroke-width="0"/>
        <path d="M245.63,164.092c4.347,1.138,10.938,4.153,16.102,5.683-8.661-.906-16.647-2.725-25.83-3.3-5.29-.332-15.11-.499-20.462-.367-1.128-.522-21.62-.099-23.817,0-.541.024-.128.34-.671.367-7.441.36-14.713.726-21.804,1.467-4.933.516-11.033,1.854-11.741,1.833-1.453-.043-1.056-1.449-27.171-2.567v-2.933c20.196-1.116,43.87-3.582,63.4-3.85,16.559-.227,39.552.408,51.995,3.667Z" fill="#56ff6a" stroke-width="0"/>
        <path d="M238.25,157.492q-17.276-.092-34.551-.183c-33.719,1.303-57.218,5.198-91.578,2.933,10.637-.505,13.625-1.65,14.424-1.65.508,0,7.347,1.472,8.386-.183,16.834-.211,30.777-2.812,40.254-3.483,1.104-.078.445-.337,1.006-.367,4.234-.225,27.821.305,33.545.55,9.809.421,19.486,1.267,28.513,2.383Z" fill="#dcd7c4" stroke-width="0"/>
        <path d="M134.931,158.409c-1.039,1.655-7.878.183-8.386.183-.799,0-3.788,1.145-14.424,1.65-26.716-1.761-39.5-6.041-87.217-5.133,2.003-1.105,10.544.698,13.418-1.467,11.249.089,22.778.206,33.88.733,20.668.982,41.836,4.296,62.729,4.033Z" fill="#dcd7c4" stroke-width="0"/>
        <path d="M130.235,167.209c-1.06-.045-4.173.11-4.696-.092-.334-.129.239-1.915,0-2.475,1.555-.076,3.315-.29,4.696-.367v2.933Z" fill="#9bf185" stroke-width="0"/>
        <path d="M613.954,137.142c.785,1.122,3.574,1.368-2.013,1.833-7.22.192-11.255.821-16.102.917-1.289.025-24.549-.138-25.83-.183-.535-.019-.133-.344-.671-.367-13.441-.568-14.634-1.058-15.431-1.1-6.228-.327-17.502-.707-23.482-.55-13.81.362-25.758,2.827-36.564,4.95-.719-.032-.863-.25-2.013-.183,1.845-2.134,14.915-5.313,9.393-5.133,45.28-8.612,54.924-2.337,90.907-.55,7.299.362,14.454.292,21.804.367Z" fill="#9bf185" stroke-width="0"/>
        <path d="M486.483,134.759c6.042-1.707,10.796-3.567,18.114-4.95,45.295-8.56,78.631-.219,109.021,2.567,6.964.638,14.598.748,21.469,1.467-67.829-1.577-83.314-12.172-148.605.917Z" fill="#e896a2" stroke-width="0"/>
        <path d="M377.797,140.625c4.639,2.599,19.62,4.692,29.52,5.133,4.475.734,9.862.681,14.76.733.669.007,1.343-.002,2.013,0,1.229.776,20.456.697,25.159.55,3.974-.124,8.059-.458,11.741-.917l.671.733c-23.685,2.609-23.138,3.036-55.014,1.65-.597-.026-1.883-.816-11.405-.183-15.815-4.002-23.726-6.548-33.545-11.917,5.436,1.397,9.861,3.044,16.102,4.217Z" fill="#d4f0b6" stroke-width="0"/>
        <g>
          <path d="M613.284,124.308c11.171-.103,21.656.991,32.203,1.833-17.447-.94-35.114-2.108-53.001-1.192,28.964,1.013,50.95,7.398,54.008,7.425,1.82.016,11.851-2.16,34.551-2.933,1.547-.053,3.345-.299,6.038-.183-.004,1.467.004,2.933,0,4.4-9.984.214-20.046.55-29.855,1.1-6.355.356-23.878,1.624-29.184,2.383-4.686-.042-9.405.048-14.089,0-7.35-.075-14.505-.004-21.804-.367-35.983-1.787-45.627-8.062-90.907.55-10.891,2.071-32.604,7.848-40.254,8.8-3.682.458-7.767.792-11.741.917-4.703.147-23.929.226-25.159-.55,35.53.101,40.348-5.806,51.659-9.167,7.193-2.137,9.098-2.104,10.734-2.567,65.291-13.089,80.775-2.494,148.605-.917-6.871-.719-14.505-.828-21.469-1.467-30.39-2.785-63.727-11.127-109.021-2.567,22.114-7.248,75.567-4.598,108.686-5.5Z" fill="#f5f3f6" stroke-width="0"/>
          <path d="M543.845,130.725c22.87-.189,60.652,4.891,86.211,5.042-36.188,3.302-59.665-2.145-78.831-3.025-16.511-.758-48.958.615-26.165-1.1,3.529-.266,15.608-.89,18.785-.917Z" fill="#e896a2" stroke-width="0"/>
          <path d="M566.656,125.775c32.511.18,48.754.695,72.793,7.058-26.815.172-47.371-5.508-72.793-7.058Z" fill="#e896a2" stroke-width="0"/>
        </g>
        <path d="M475.749,137.325c-11.311,3.361-16.13,9.268-51.659,9.167-.67-.002-1.344.007-2.013,0l-1.006-.183c5.162-.064,9.783-.896,14.424-1.467,17.445-2.144,26.561-4.044,38.241-8.25l2.013.733Z" fill="#cae393" stroke-width="0"/>
        <path d="M501.243,137.325c5.522-.18-7.548,3-9.393,5.133-2.793.163-6.137,1.084-8.722,1.467-5.97.884-12.373,1.564-18.114,2.567-1.066.121-2.26.246-3.355.367l-.671-.733c7.65-.953,29.363-6.729,40.254-8.8Z" fill="#cae393" stroke-width="0"/>
        <g>
          <path d="M636.094,178.942c.639.219,4.79.317,6.038.367,3.593,1.468-2.705,2.064,4.696,2.383-20.111.401-37.382,3.313-54.343,6.05-16.325.009-32.651-.005-48.976,0,12.323-1.506,23.82-3.513,35.893-5.133,6.369-.855,14.778-1.496,19.792-2.567,9.08-.702,18.278-1.482,27.507-2.017,3.618.118,5.031-.169,5.367-.183,5.91.285,3.515.925,4.025,1.1Z" fill="#cf2b3b" stroke-width="0"/>
          <path d="M687.083,182.426c-.152,2.668,1.259,5.888-2.013,5.317-7.507-7.755-46.664-3.678-63.065,0-9.84.009-19.68-.006-29.52,0,16.961-2.737,34.232-5.649,54.343-6.05,6.557.283,24.656-.206,37.906,1.65l.335-.458c-15.153-3.6-30.156-3.067-42.938-3.575-1.248-.05-5.399-.148-6.038-.367,17.734.099,36.397.355,50.988,3.483Z" fill="#f5f3f6" stroke-width="0"/>
          <path d="M687.083,179.859c-.025.855.049,1.712,0,2.567-14.591-3.128-33.255-3.384-50.988-3.483-.51-.175,1.884-.815-4.025-1.1,21.8-.945,34.728-.541,55.014,2.017Z" fill="#e896a2" stroke-width="0"/>
          <path d="M660.247,176.926c9.062.362,18.294.482,26.836,1.467-.014.489.014.978,0,1.467-20.285-2.558-33.214-2.962-55.014-2.017-.336.015-1.749.302-5.367.183,16.509-.956,19.294-.707,33.545-1.1Z" fill="#fcd6dc" stroke-width="0"/>
          <path d="M646.829,181.692c-7.401-.319-1.104-.916-4.696-2.383,12.782.508,27.784-.025,42.938,3.575l-.335.458c-13.25-1.856-31.349-1.367-37.906-1.65Z" fill="#e896a2" stroke-width="0"/>
        </g>
        <path d="M132.919,126.875l-.671.733c-3.233.375-5.237.792-8.051,1.283-9.315,1.627-13.425,3.146-17.443,4.033-15.736,3.476-30.768,7.483-52.33,8.25-1.398.05-2.624.166-4.025.183-13.868.172-38.012-1.482-49.647-3.85,14.277-.722,29.203-.916,42.938-2.2,6.837.288,13.945.282,20.798,0-6.233,1.196,13.531.266,23.146-.733,14.062-1.462,24.318-4.394,30.526-5.5,4.024-.717,8.36-1.478,12.747-2.017,1.261-.155,1.908-.172,2.013-.183Z" fill="#e0dedd" stroke-width="0"/>
        <path d="M118.159,129.075c-6.208,1.106-16.464,4.039-30.526,5.5-9.615.999-29.379,1.929-23.146.733,16.398-.675,32.561-4.947,50.318-7.517-.464.584.959,1.199,3.355,1.283Z" fill="#dcd7c4" stroke-width="0"/>
        <path d="M50.398,151.809c22.278.267,40.366,1.667,61.052,2.567,30.6,1.331,34.106.66,63.736.55-9.477.671-23.42,3.272-40.254,3.483-20.894.262-42.062-3.051-62.729-4.033-11.103-.528-22.631-.644-33.88-.733-6.529-.052-12.221-.101-18.785,0-.954-.414,4.621-1.795,5.032-1.833,1.221-.115,22.537-.039,25.83,0Z" fill="#cae393" stroke-width="0"/>
        <path d="M87.297,138.242c-10.014,2.134-14.049,2.887-26.836,3.667-.923.056-1.978.148-2.684.183.024-.121-.051-.247,0-.367.171-.397-3.096-.209-3.355-.55,21.563-.767,36.594-4.774,52.33-8.25-.426.25,1.005.453.671.642-.575.325-17.708,4.16-20.127,4.675Z" fill="#ab484b" stroke-width="0"/>
        <g>
          <path d="M50.398,141.359c-.584,1.046,4.804.593,7.38.367-.051.119.024.246,0,.367-4.839.246-9.848.301-14.76.367-14.997.2-29.511-.077-42.938-2.2-.003-.917.003-1.833,0-2.75h.671c11.635,2.368,35.778,4.022,49.647,3.85Z" fill="#282827" stroke-width="0"/>
          <path d="M54.423,141.175c.258.341,3.526.153,3.355.55-2.576.226-7.964.68-7.38-.367,1.402-.017,2.627-.134,4.025-.183Z" fill="#502531" stroke-width="0"/>
        </g>
        <path d="M360.354,135.859c.193.021.478-.021.671,0-.309.624.623.524.671.55,9.819,5.369,17.73,7.915,33.545,11.917,5.55,1.404,14.861,4.021,21.469,4.767-2.575.012-5.051-.302-7.38-.55-26.443-2.82-36.959-9.666-59.039-10.817l-.671-.55c5.354.25,14.686.797,11.741,0-24.435-3.296-52.154-3.668-78.831-4.4v-.367c10.167-.074,33.08-3.985,58.033-2.75,6.699.332,13.462,1.51,19.792,2.2Z" fill="#e0dedd" stroke-width="0"/>
        <path d="M346.936,128.342c2.27.615,7.196,3.833,8.051,4.95-1.415-.384-4.219-.659-6.038-.917-23.674-3.353-36.051-1.426-55.014,1.65-7.22,1.171-20.217,2.447-11.405,2.383v.367c-1.65-.045-2.362-.157-3.355-.183-4.906-.129-9.874.118-14.76,0-6.754-.163-13.495-.325-20.127-.733,2.691-.522,13.228.016,19.792-.183,29.637-.901,37.854-6.713,57.697-8.067,7.332-.5,19.347-.842,25.159.733Z" fill="#f5f3f6" stroke-width="0"/>
        <path d="M348.949,132.375c1.819.258,4.623.533,6.038.917,2.535.687,3.286,1.764,5.367,2.567-6.329-.69-13.092-1.868-19.792-2.2-24.953-1.235-47.866,2.676-58.033,2.75-8.812.064,4.185-1.212,11.405-2.383,1.901.512,7.356-.694,9.728-.917,14.658-1.379,30.09-1.269,45.286-.733Z" fill="#dcd7c4" stroke-width="0"/>
        <path d="M423.419,141.175c.157.745,3.226.548,4.696.917-4.293.258-5.824.508-10.734.55-14.6.125-36.549-2.736-34.887-1.467-.94-.15-4.187-.454-4.696-.55-6.241-1.173-10.665-2.82-16.102-4.217-.047-.026-.98.074-.671-.55,12.183,1.333,23.868,3.222,36.564,4.217,3.412.267,22.325,1.132,25.83,1.1Z" fill="#c9e6be" stroke-width="0"/>
        <path d="M453.609,138.609c-1.65.361-3.16.879-3.355.917-1.857.357-11.227,1.896-12.412,2.017-1.656.169-2.553-.195-2.684-.183-2.362.219-4.548.583-7.044.733-1.471-.368-4.539-.172-4.696-.917,10.654-.097,20.423-1.957,30.191-2.567Z" fill="#b9f2c0" stroke-width="0"/>
        <path d="M434.153,137.142c-13.742.765-29.933.625-42.938-.917,2.815-.912,11.452.424,15.095.55,9.047.313,18.747.021,27.842.367Z" fill="#c9e0c9" stroke-width="0"/>
        <path d="M191.287,127.425c9.877,1.263,19.483,3.171,28.178,4.95,1.953.4,5.248,1.02,6.709,1.467.589.18,1.453.46,1.342.733-24.317-3.948-53.335-11.832-95.268-6.967l.671-.733c20.231-2.264,38.801-1.953,58.368.55Z" fill="#f5f3f6" stroke-width="0"/>
        <path d="M238.25,134.942c-4.738.395,2.987.763,5.367.917.212.014.458-.013.671,0,6.632.408,13.373.571,20.127.733.492.356-1.086.689-.671,1.008.175.134,2.57.193,2.684.458-2.253-.005-3.872-.156-6.038-.183-.891-.011-1.792.012-2.684,0-2.611-.034-5.439-.065-8.051,0-7.485-1.054-14.891-2.123-22.14-3.3.112-.274-.753-.553-1.342-.733,3.75.5,8.422.712,12.076,1.1Z" fill="#99e4dd" stroke-width="0"/>
        <path d="M243.617,135.859c-2.381-.153-10.105-.522-5.367-.917,2.788.296,5.896.461,5.367.917Z" fill="#b9e9f3" stroke-width="0"/>
        <path d="M473.736,136.592c-11.68,4.206-20.797,6.106-38.241,8.25l-.671-.183c7.823-.999,21.055-4.646,28.178-6.325l-1.342-.458c12.889-2.21,14.308-3.335,21.469-5.317-2.759,1.366-5.953,2.795-9.393,4.033Z" fill="#e4cfc6" stroke-width="0"/>
        <path d="M434.824,144.659c-5.785.739-15.175,1.297-21.469,1.283,2.098-.543-8.329-2.007-12.747-2.567,5.295-.07,13.997.107,16.773-.733,4.91-.042,6.441-.292,10.734-.55,2.496-.15,4.683-.514,7.044-.733.131-.012,1.028.352,2.684.183,1.184-.121,10.555-1.66,12.412-2.017,3.88-.475,7.81-1.034,11.405-1.65l1.342.458c-7.122,1.679-20.355,5.326-28.178,6.325Z" fill="#dcd7c4" stroke-width="0"/>
        <path d="M215.439,166.109c-12.918.319-32.11,2.799-43.273,4.767-3.119.55-5.634,1.464-6.038,1.467-.581.004-7.073-1.947-8.386-2.2q5.703-1.1,11.405-2.2c7.091-.741,14.363-1.107,21.804-1.467.543-.026.13-.342.671-.367,2.197-.099,22.689-.522,23.817,0Z" fill="#dcd7c4" stroke-width="0"/>
        <path d="M296.618,178.209c2.508.878-3.78.844-7.38.733-1.034-.032-8.833-.728-11.405-.917,3.21-.623,5.351.829,4.025-1.833,7.059,1.214,11.289,1.531,14.76,2.017Z" fill="#9bf185" stroke-width="0"/>
        <path d="M277.833,178.026c2.572.188,10.371.885,11.405.917-16.253,1.015-34.369.026-50.318-1.283-6.348-.615-16.597-1.831-22.475-2.2-11.773-.739-21.974-.539-26.165-.733-.191-.009-1.05-.253-1.006-.367,11.386-.362,26.426-.895,38.577-.55,4.504.128,13.566,1.187,18.785,1.1,9.267,1.183,21.113,2.378,31.197,3.117Z" fill="#dcd7c4" stroke-width="0"/>
        <path d="M493.863,142.642c-8.731,2.493-16.473,6.841-26.165,8.8-13.134,2.655-36.01,3.34-50.988,1.65-6.608-.746-15.919-3.362-21.469-4.767,9.522-.632,10.808.157,11.405.183l-.671.275c28.393,5.28,53.381,2.59,75.141-3.758,1.153-.336,6.705-1.052,2.013-1.1,2.585-.383,5.929-1.304,8.722-1.467,1.15-.067,1.294.151,2.013.183Z" fill="#dcd7c4" stroke-width="0"/>
        <path d="M282.529,136.775c26.677.732,54.396,1.104,78.831,4.4,2.946.797-6.386.25-11.741,0-13.727-.64-27.377-1.759-41.26-2.2-15.883-.504-32.885-.094-47.969-1.1,2.166.027,3.785.179,6.038.183,12.604.027,15.077.378,12.747-1.467.993.026,1.704.138,3.355.183Z" fill="#dcd7c4" stroke-width="0"/>
        <path d="M481.116,145.025c-21.76,6.349-46.748,9.038-75.141,3.758l.671-.275c31.876,1.386,31.328.959,55.014-1.65,1.094-.121,2.288-.245,3.355-.367,3.731-.424,13.647-1.474,16.102-1.467Z" fill="#e896a2" stroke-width="0"/>
        <path d="M382.494,141.175c8.292,1.321,11.257,1.331,18.114,2.2,4.418.56,14.846,2.024,12.747,2.567-1.526-.003-4.441-.112-6.038-.183-9.899-.442-24.881-2.534-29.52-5.133.509.096,3.756.4,4.696.55Z" fill="#d7c7b7" stroke-width="0"/>
        <path d="M434.824,144.659l.671.183c-4.641.57-9.262,1.403-14.424,1.467l1.006.183c-4.898-.052-10.285.001-14.76-.733,1.597.071,4.512.18,6.038.183,6.294.013,15.684-.544,21.469-1.283Z" fill="#c9e0c9" stroke-width="0"/>
        <path d="M481.116,145.025c-2.455-.007-12.37,1.043-16.102,1.467,5.741-1.003,12.144-1.683,18.114-2.567,4.692.048-.86.764-2.013,1.1Z" fill="#eed7d8" stroke-width="0"/>
        <path d="M348.949,132.375c-15.195-.536-30.628-.645-45.286.733-2.372.223-7.827,1.429-9.728.917,18.963-3.076,31.34-5.003,55.014-1.65Z" fill="#d4f0b6" stroke-width="0"/>
        <path d="M279.175,136.592c2.33,1.845-.143,1.493-12.747,1.467-.114-.265-2.509-.324-2.684-.458-.416-.319,1.163-.652.671-1.008,4.885.118,9.854-.129,14.76,0Z" fill="#8fcb9b" stroke-width="0"/>
        <path d="M417.381,142.642c-2.776.84-11.478.664-16.773.733-6.857-.869-9.823-.879-18.114-2.2-1.662-1.27,20.287,1.591,34.887,1.467Z" fill="#d9ddb5" stroke-width="0"/>
      </g>
    </g>
  </g>
</svg>