<?xml version="1.0" encoding="UTF-8"?>
<svg id="Layer_2" data-name="Layer 2" xmlns="http://www.w3.org/2000/svg" xmlns:xlink="http://www.w3.org/1999/xlink" viewBox="0 0 1007 341.911">
  <defs>
    <linearGradient id="linear-gradient" x1="-1006.529" y1="-890.161" x2="-1122.91" y2="-513.904" gradientTransform="translate(1195.908 497.897) scale(.459)" gradientUnits="userSpaceOnUse">
      <stop offset="0" stop-color="#8d1f3b"/>
      <stop offset=".46" stop-color="#be6929"/>
      <stop offset="1" stop-color="#e39334"/>
    </linearGradient>
    <linearGradient id="linear-gradient-2" x1="-1389.795" y1="-918.296" x2="-1400.052" y2="-887.334" gradientTransform="translate(1195.908 497.897) scale(.459)" gradientUnits="userSpaceOnUse">
      <stop offset="0" stop-color="#c0dfe6"/>
      <stop offset="1" stop-color="#84d0e2"/>
    </linearGradient>
  </defs>
  <g id="Layer_1-2" data-name="Layer 1">
    <g id="shape4">
      <g>
        <path d="M1006.804,211.815c-.017,8.727.021,17.455,0,26.182-13.571-8.672-30.579-16.007-46.209-23.886-16.439-8.287-18.368-12.225-43.751-21.13-7.983-2.801-30.73-7.576-32.936-11.254-1.723-2.873,6.851-2.687-16.222-7.12-23.854-1.935-49.667-.083-68.821,8.727-3.038,1.397-13.297,8.023-14.256,9.417-3.182,4.623.4,16.928-3.933,22.048,1.174,11.268-12.637,27.3-23.596,37.436-4.765-1.381,1.877-5.907,3.933-12.173,4.91-14.966,11.944-47.792-1.475-60.863-3.351,4.276.463,3.678.492,3.904,2.304,18.417-2.101,50.942-24.579,66.605-19.632,13.68-70.317,26.683-105.69,25.034-6.879-.321-13.832-2.117-15.239-2.297-5.309-.679-10.644-1.291-15.731-2.297v-4.134c31.148,7.596,65.232,6.805,93.892-2.756,17.369-5.794,22.747-11.615,29.003-20.67,29.923-43.312-15.402-65.362,50.633-90.95,47.066-18.238,85.9-9.942,128.794,5.512,41.994,15.13,73.404,35.286,105.69,54.662Z" fill="#edac37" stroke-width="0"/>
        <path d="M298.927,130.052c-18.001,14.704-34.023,29.851-52.108,44.556-31.347,10.267-66.274,15.513-104.707,14.24-4.133-.137-27.31-3.056-29.003-2.067,9.341,4.822,59.766,26.131,65.38,27.79,14.851,4.389,27.096,4.779,42.768,6.431-4.445,1.339-15.004,3.958-19.663,4.593-19.709,2.689-41.777,1.481-59.973-3.215-14.669-3.786-37.831-14.989-47.192-21.589-14.306-10.088-21.477-21.617-32.444-32.384-17.463-17.143-35.911-33.598-50.141-51.446-2.206-2.767-5.666-11.632-11.798-14.01.012-4.9-.013-9.799,0-14.699,23.807,28.652,54.687,69.49,118.471,83.6,81.13,17.948,137.267-14.439,180.41-41.8Z" fill="#f3f6f3" stroke-width="0"/>
        <path d="M933.067,94.683c19.871,10.154,49.675,14.119,73.737,21.589.004,1.99-.003,3.981,0,5.971-15.546-5.301-31.523-10.184-48.175-14.699-.938-.254-7.481-3.303-18.189-5.512-33.662-6.946-76.696-8.064-113.064-7.349-34.722,3.445-66.703,6.717-97.825,14.699-7.13,1.829-10.25,2.879-16.714,5.053-11.179,3.76-18.787,5.822-27.529,11.254-2.155,1.339-22.779,17.811-23.596,18.833-.198.248,1.982.632,1.966.689-.184.685-3.76,1.391-.983,1.837-2.972,2.141-2.776,2.625-2.949,2.756-.036.028-.233-.132-.983.459-7.477,5.888-13.625,12.202-21.63,17.914-20.754,8.631-48.945,17.292-78.161,14.699-5.924-.526-13.185-2.792-19.172-3.675-6.522-3.366-10.992-5.125-4.916-9.646,4.918-3.66,15.817-3.743,24.087-3.215,2.676.171,2.267,1.369,2.458,1.378-23.565,5.084,27.737,6.55,49.65-.919,20.493-6.985,23.269-21.774,35.885-31.465l-1.966-1.608c7.964-6.519,13.272-14.519,23.596-21.359,27.319-18.101,65.733-24.219,111.097-26.412,53.637-2.593,103.244-.435,153.373,8.727Z" fill="#f8d781" stroke-width="0"/>
        <path d="M49.203,175.067c12.11,7.439,21.595,15.872,33.428,23.426,14.873,9.496,35.442,20.608,58.498,25.264l.492-1.378c18.196,4.696,40.264,5.904,59.973,3.215,3.066,1.675,19,.11,27.529-.919-26.719,4.726-36.153,9.497-67.347,7.809-32.886-1.78-80.15-19.328-94.384-33.532-11.223,5.432-15.655-7.421-30.478-14.699-11.104,1.497,1.842,8.178,9.34,15.158-4.19,1.751,2.522,8.885,3.933,12.173.282.657-4.344,2.725,6.882,12.402h-1.966C29.697,207.97,13.099,189.794.045,170.933c.002-4.593-.006-9.187,0-13.78,13.603,6.136,17.099,3.663,30.97,7.809,7.007,2.998,12.488,6.603,18.189,10.106Z" fill="#96d9e8" stroke-width="0"/>
        <path d="M408.058,224.676c2.438,1.803-13.6,9.91-22.613,16.536-25.58,18.807-32.188,29.561-37.36,51.906-15.725,15.442-23.148,31.356-57.515,40.881-11.073,3.069-24.906,4.307-34.902,7.809-3.933-.001-7.865.002-11.798,0v-4.134c31.816-7.027,75.568-32.49,89.468-47.542,17.418-18.862,19.985-48.419,74.72-65.456Z" fill="#c3e0e5" stroke-width="0"/>
        <path d="M978.292,136.942c1.869,2.011,23.064,16.736,28.512,20.67.002,1.225-.001,2.45,0,3.675-14.568-6.95-35.142-23.969-57.023-22.967-12.141-5.641-38.344-13.25-54.074-16.536,0-.996-9.276-2.864-11.306-3.215-34.447-5.966-63.835-.428-42.768-7.349,57.55-2.074,96.218,7.509,136.66,25.723Z" fill="#1a2644" stroke-width="0"/>
        <path d="M139.654,277.501c-5.272,1.713,26.366,4.033,30.97,4.134,14.367.314,24.71-1.988,37.852-2.297-6.091,1.492-16.804,3.943-23.104,4.593-22.188,2.29-51.514.041-72.754-3.675-20.023-3.502-58.774-15.471-72.262-23.197C22.862,247.041,16.357,233.592.045,223.298c-.014-7.503.012-15.005,0-22.508,24.43,33.479,48.879,74.648,139.609,76.71Z" fill="#bc3f73" stroke-width="0"/>
        <path d="M94.429,200.791c-5.738.418-6.728-5.292-11.798-2.297-11.832-7.554-21.318-15.987-33.428-23.426C30.271,154.503,15.71,133.256.045,112.138c.006-3.062-.007-6.125,0-9.187,6.132,2.378,9.592,11.242,11.798,14.01,14.23,17.849,32.678,34.303,50.141,51.446,10.967,10.766,18.138,22.296,32.444,32.384Z" fill="#dbe5dc" stroke-width="0"/>
        <path d="M49.203,175.067c-5.701-3.502-11.181-7.107-18.189-10.106-13.87-4.146-17.366-1.673-30.97-7.809.019-15.005-.03-30.01,0-45.015,15.665,21.118,30.226,42.365,49.158,62.93Z" fill="#edac37" stroke-width="0"/>
        <path d="M995.006.058c-1.056,1.518-1.494,3.019-1.966,4.593-.848,2.827-.465,5.131-.983,7.349-.975,4.172-3.701,1.989-4.916,3.904-.738,1.164.998,14.211-3.933,24.115-1.29,2.591-5.851,10.918-13.273,11.024-26.699-3.677-21.786-7.069-26.054-15.158,12.676,2.345,17.177-5.114,21.63-9.187.18-.165,1.737-.324,3.933-3.215,1.11,5.928-7.303,17.979-2.458,17.914,4.731-5.518,18.991-16.34,16.222-22.048,4.21-11.946-.75-8.586-1.966-9.417-.6-.409-1.136-8.649-1.966-9.876,5.229.037,10.512-.106,15.731,0Z" fill="#d35b6b" stroke-width="0"/>
        <path d="M1006.804,161.287c.009,7.809.01,15.618,0,23.426-16.831-15.804-29.571-33.639-57.023-46.394,21.882-1.002,42.456,16.017,57.023,22.967Z" fill="#023e56" stroke-width="0"/>
        <path d="M958.629,107.544c16.652,4.515,32.629,9.398,48.175,14.699.006,3.675-.006,7.349,0,11.024-19.971-11.847-41.28-19.331-71.771-24.345,8.571-1.83,19.259,1.729,20.646-1.378.563.104,1.964-.062,2.949,0Z" fill="#016081" stroke-width="0"/>
        <path d="M953.713,98.817c6.8,1.49,14.062,2.934,20.646,4.593,11.116,2.802,21.023,6.618,32.444,9.187.002,1.225-.002,2.45,0,3.675-24.062-7.47-53.866-11.435-73.737-21.589,7.001,1.28,13.839,2.643,20.646,4.134Z" fill="#e28fa3" stroke-width="0"/>
        <g>
          <path d="M19.708,300.468c5.454,2.698,8.173,4.153,14.747,6.431,14.446,5.006,90.653,24.021,111.589,25.723,7.815-.051,15.309.723,23.104.919,42.575,1.069,82.874-2.543,114.047-16.996-27.503,13.425-30.483,10.656-58.99,20.9-2.43,4.891,15.28,1.198,19.663.23v4.134c-53.744-.023-107.496.106-161.239,0-24.067-12.199-58.448-18.15-82.586-30.317-.078-7.349.038-14.699,0-22.048,7.126,3.447,12.622,7.541,19.663,11.024Z" fill="#2ba8cf" stroke-width="0"/>
          <g>
            <path d="M82.631,341.808c-21.928-.043-43.96.251-65.872,0-4.983-5.328-9.178-10.938-16.714-15.618-.124-4.898.052-9.8,0-14.699,24.138,12.166,58.519,18.117,82.586,30.317Z" fill="#1a98c1" stroke-width="0"/>
            <path d="M16.759,341.808c-5.565-.064-11.147.046-16.714,0-.097-5.205.132-10.413,0-15.618,7.535,4.68,11.73,10.29,16.714,15.618Z" fill="#006a87" stroke-width="0"/>
          </g>
        </g>
        <g>
          <path d="M977.309.058c-6.176,10.905,5.189,17.828,5.899,19.292,2.769,5.708-11.491,16.531-16.222,22.048-4.845.065,3.567-11.986,2.458-17.914-.389-2.076,1.391-3.266-3.933-4.593-.894-3.071-9.193-9.788-6.882-18.833,6.225.023,12.455-.037,18.68,0Z" fill="#edac37" stroke-width="0"/>
          <path d="M979.275.058c.831,1.227,1.367,9.467,1.966,9.876,1.217.83,6.176-2.529,1.966,9.417-.71-1.465-12.075-8.387-5.899-19.292.655.004,1.311-.005,1.966,0Z" fill="#ff975c" stroke-width="0"/>
        </g>
        <path d="M1002.871.058c.607,1.528-.942,2.416-.983,3.215-1.083.708-2.218,1.923-2.949,2.756q-2.949-.689-5.899-1.378c.472-1.574.91-3.076,1.966-4.593,2.527.051,5.622-.154,7.865,0Z" fill="#1a98c1" stroke-width="0"/>
        <path d="M1004.838.058q.983.919,1.966,1.837c.263.84-.101,1.866,0,2.756l-4.916-.919c-.025-.15-.008-.309,0-.459.041-.799,1.59-1.687.983-3.215.632.043,1.321-.02,1.966,0Z" fill="#dac4dc" stroke-width="0"/>
        <path d="M1006.804,4.652c.155,1.369-.058,2.761,0,4.134-3.403-1.3-4.581-3.084-4.916-5.053l4.916.919Z" fill="#e28fa3" stroke-width="0"/>
        <path d="M1004.838.058c3.158-.277,1.568.565,1.966,1.837q-.983-.919-1.966-1.837Z" fill="#cba78f" stroke-width="0"/>
        <g>
          <path d="M861.296,34.509c9.222,2.057,18.972,3.155,28.02,5.512,16.966,4.419,58.639,24.825,69.313,33.762-21.52-.971-61.012-18.749-67.838-9.417-18.871-6.36-59.264-11.477-82.094-10.106-6.958.418-35.431,5.33-32.936,9.646-.736-.335-2.788-.667-2.949-1.378,11.77-6.684,16.911-16.029,36.869-22.508,24.294-7.886,42.25-5.066,51.616-5.512Z" fill="#1a2644" stroke-width="0"/>
          <path d="M775.761,63.907c6.927,3.155,12.541,7.703,29.986,11.024,34.96,6.657,63.605.834,146.983,21.589l.983,2.297c-6.807-1.491-13.645-2.854-20.646-4.134-50.13-9.162-99.736-11.321-153.373-8.727-20.594.768-27.008-3.581-43.751-8.268l1.475-1.378c4.623-1.403,8.463-3.046,12.781-4.593,8.454-3.031,15.561-5.183,22.613-9.187.161.711,2.213,1.043,2.949,1.378Z" fill="#023e56" stroke-width="0"/>
        </g>
        <path d="M543.734,113.516c-2.415.786,1.075,2.708-3.933,2.297-8.806-4.499-14.532-9.212-29.986-14.24-48.466-15.768-110.18-8.651-112.572-.459-47.301,1.729-72.405,15.124-94.384,33.073-1.317-1.278,2.924-8.092,3.933-9.187,4.047-4.392,23.763-15.352,31.953-18.374,17.511-6.46,25.209-5.213,26.545-5.512,6.276-1.404,16.3-4.405,17.205-4.593,34.806-7.252,52.485-11.961,93.892-8.268,35.606,3.175,49.455,12.342,67.347,25.264Z" fill="#f0bab6" stroke-width="0"/>
        <path d="M302.859,134.186c-11.562,9.442-28.624,26.531-36.377,36.747,2.318-5.447-16.319,8.017-25.071,12.862l-2.458-1.378c4.015-3.189,7.352-7.391,7.865-7.809,18.085-14.705,34.107-29.852,52.108-44.556,2.145-1.752,4.833-3.589,7.865-5.053-1.009,1.095-5.25,7.909-3.933,9.187Z" fill="#f0cdba" stroke-width="0"/>
        <path d="M750.198,71.716c-4.318,1.548-8.158,3.191-12.781,4.593-25.481,7.732-50.837,10.207-72.754,27.101-4.919-1.14,15.593-6.598-.983-6.431,21.086-13.972,50.439-22.527,86.518-25.264Z" fill="#9d1f48" stroke-width="0"/>
        <path d="M664.663,103.41c-10.152,7.825-11.136,12.606-16.714,20.67l-8.848-.459c.043-.15-.034-.308,0-.459,5.712-7.838,10.408-15.809,19.663-22.967.758-.586,3.591-2.337,4.916-3.215,16.576-.167-3.936,5.291.983,6.431Z" fill="#ac2f63" stroke-width="0"/>
        <path d="M575.195,235.241c4.451,2.227,14.874,6.007,20.646,7.349,16.35,10.538,41.835,14.95,68.33,10.565,8.157-1.35,18.169-5.273,19.172-5.512,2.383-.568,1.87-1.247,2.458-1.378,3.458-.768,28.288-2.386,35.885-3.675-6.256,9.056-11.634,14.876-29.003,20.67-28.66,9.561-62.744,10.352-93.892,2.756-47.424-11.566-69.437-42.794-92.417-64.308,1.543.299,4.192-.435,4.916-.23,4.216,1.197,37.464,33.51,63.906,33.762Z" fill="#edac37" stroke-width="0"/>
        <path d="M757.081,252.237c-8.44,7.807-25.499,20.041-39.327,25.723-1.77.727-10.205,3.975-10.815,4.134-1.253.327-12.437,2.315-15.239,2.756-1.376.217-16.35.591-16.222,1.837-10.347.51-20.066.524-30.478.459-4.701-6.874-42.53-5.264-30.478-14.699,1.407.18,8.36,1.976,15.239,2.297,35.373,1.649,86.058-11.354,105.69-25.034,22.478-15.663,26.883-48.188,24.579-66.605-.028-.227-3.842.372-.492-3.904,13.419,13.071,6.385,45.897,1.475,60.863-2.055,6.266-8.698,10.792-3.933,12.173Z" fill="#f49419" stroke-width="0"/>
        <path d="M461.149,185.173c2.292,2.278,28.692,15.504,30.97,15.618.722.036,2.02-2.251,13.273-.919.34.315.643,1.519.983,1.837,22.981,21.514,44.993,52.742,92.417,64.308v4.134c-25.834-5.107-51.223-18.293-65.872-29.398-13.455-10.2-21.341-27.715-36.377-36.977-19.75-12.166-32.904-10.392-34.902-10.795-1.181-.238-1.459-4.371-21.138-5.512-18.595-1.078-52.565-.218-57.023,10.565-7.669.048-12.785,3.423-19.663,4.593.262-.598-1.462-5.892,5.899-11.713,5.089-4.025,11.395-5.049,18.68-7.12,2.314,4.244,21.883-4.352,45.717-3.215,15.272.728,22.51,5.79,27.037,4.593Z" fill="#e46623" stroke-width="0"/>
        <path d="M598.791,270.151c5.087,1.006,10.421,1.618,15.731,2.297-12.052,9.435,25.777,7.825,30.478,14.699-21.36-.132-44.275-.985-62.922-6.431-10.907-3.185-48.164-22.39-55.057-28.939.782.309,13.421,2.985,17.697,4.823-4.555-4.945-19.69-11.346-11.798-15.847,14.649,11.105,40.038,24.291,65.872,29.398Z" fill="#d35752" stroke-width="0"/>
        <path d="M534.886,169.555c-6.076,4.521-1.606,6.28,4.916,9.646-1.311-.193-3.995.183-5.407,0-4.253-.552-12.513-4.625-12.29,0-3.588-1.007-7.745-2.201-11.798-2.756-3.67-1.953-25.401-9.846-39.327-17.225-3.992-2.116-10.029-10.036-23.596-12.632-60.956-23.247-139.075,6.951-144.525,38.125-4.051,5.699-10.992,20.499-13.764,27.101-2.202,5.245-4.494,11.673-4.916,16.996-13.009,20.797-33.179,40.111-75.704,50.528-13.142.309-23.485,2.611-37.852,2.297-4.604-.101-36.242-2.421-30.97-4.134,62.34,1.417,98.008-15.952,120.929-40.881,27.908-30.353,16.502-49.69,41.293-76.48,25.873-27.959,78.224-43.822,143.05-31.465,39.47,7.524,45.683,21.013,57.515,29.168,6.494,4.476,20.831,13.541,32.444,11.713Z" fill="#ca588d" stroke-width="0"/>
        <path d="M423.788,156.234c.381.106.979,1.232,1.475,1.378.447.131,4.511.648,9.34,2.297,18.117,7.706,4.679,2.974-1.475,1.837-33.909-6.263-65.856,1.436-89.959,12.402-.254.116-2.174-.134-2.458,0-33.844,15.947-30.325,36.402-32.936,57.188l4.916,1.148c5.371.977,5.968-3.555,6.882-5.971l2.949-1.148c.857,12.919-.963,25.138-9.832,37.436-2.097.013-2.911.245-2.949-.689-.067-1.637,15.21-21.542,3.933-18.144-4.404-2.595-7.594-5.528-12.781-7.809.201-3.668-.068-7.353,0-11.024.03-1.621-.987-3.92-.983-7.349.007-6.455,1.579-12.842.983-19.292,8.022-12.554,14.084-25.377,34.411-35.369,16.316-8.021,46.39-14.013,70.296-11.484,5.142.544,13.486,3.288,18.189,4.593Z" fill="#f49419" stroke-width="0"/>
        <g>
          <path d="M300.893,225.136c-13.425,25.257-19.96,50.551-58.99,70.739-15.505,8.019-38.74,14.635-40.31,15.618-4.325-2.175-27.25,2.351-42.768,2.756-34.974.914-77.356-10.189-101.757-21.589-20.242-9.457-40.459-26.883-57.023-38.125-.027-10.412.019-20.824,0-31.235,16.312,10.293,22.817,23.742,40.31,33.762,13.489,7.726,52.24,19.694,72.262,23.197,21.24,3.715,50.566,5.965,72.754,3.675,6.301-.65,17.013-3.101,23.104-4.593,42.525-10.417,62.694-29.73,75.704-50.528,2.079-3.324,2.926-6.792,4.916-10.106l10.815-.919c-.004,3.43,1.013,5.728.983,7.349Z" fill="#016081" stroke-width="0"/>
          <path d="M57.069,292.659c-41.633,5.371-18.529,15.1-37.36,7.809-7.041-3.483-12.537-7.578-19.663-11.024-.06-11.637.03-23.273,0-34.91,16.564,11.243,36.781,28.668,57.023,38.125Z" fill="#1a2644" stroke-width="0"/>
          <path d="M201.594,311.492c-.121.076-.851,1.463-.983,1.837-18.784,4.455-30.853,6.397-52.108,7.349-52.623,2.359-69.608-4.877-113.555-16.536q-.246,1.378-.492,2.756c-6.575-2.278-9.293-3.732-14.747-6.431,18.831,7.292-4.273-2.438,37.36-7.809,24.401,11.4,66.783,22.503,101.757,21.589,15.517-.406,38.442-4.931,42.768-2.756Z" fill="#1a2644" stroke-width="0"/>
        </g>
        <path d="M300.893,236.16c-.28,5.104-.543,6.907-1.966,11.943-.126.447.144.934,0,1.378-3.716,11.422-16.687,26.756-31.461,36.058-5.627,3.543-16.488,7.981-23.596,11.713-1.37.72-2.257,1.909-4.916,1.837,1.204-.986,3.113-1.997,2.949-3.215,39.03-20.187,45.565-45.481,58.99-70.739-.068,3.671.201,7.356,0,11.024Z" fill="#96d9e8" stroke-width="0"/>
        <path d="M299.91,217.786l-10.815.919c.811-1.35,1.119-2.748,1.966-4.134,3.293-5.39,6.391-10.692,9.832-16.077.596,6.45-.976,12.838-.983,19.292Z" fill="#1a98c1" stroke-width="0"/>
        <path d="M238.954,299.09c-6.919,5.668-22.444,10.202-34.411,13.321-1.275.332-2.628.609-3.933.919.133-.374.862-1.761.983-1.837,1.57-.983,24.805-7.598,40.31-15.618.164,1.219-1.746,2.229-2.949,3.215Z" fill="#1a98c1" stroke-width="0"/>
        <path d="M291.061,214.571c-.847,1.386-1.156,2.784-1.966,4.134-1.99,3.313-2.837,6.782-4.916,10.106.422-5.323,2.714-11.75,4.916-16.996l1.966,2.756Z" fill="#dddde0" stroke-width="0"/>
        <path d="M834.751,117.65c15.637-.002,30.062,4.634,24.579,8.957-3.015,2.377-63.311,9.919-74.229,12.173-47.629,9.833-52.558,26.957-60.465,48.69-1.23-2.375,2.433-5.104-2.949-3.445-11.073,21.558-30.433,42.607-58.99,60.403-23.834,2.858-43.999,3.478-66.855-1.837-5.772-1.342-16.195-5.123-20.646-7.349-9.206-4.606-15.752-11.008-19.663-16.996,14.252,4.039,48.906,2.423,64.397-.459,51.091-9.504,61.46-43.194,93.892-67.983,23.658-12.252,86.6-32.15,120.929-32.154Z" fill="url(#linear-gradient)" stroke-width="0"/>
        <path d="M724.636,187.47c-2.486,6.833.743,13.467-10.815,28.709-11.865,15.647-31.054,24.15-32.444,25.493-5.839,1.62-12.304,1.991-18.68,2.756,28.557-17.797,47.917-38.845,58.99-60.403,5.382-1.659,1.72,1.07,2.949,3.445Z" fill="#f49419" stroke-width="0"/>
        <path d="M683.343,247.643c-1.002.239-11.015,4.162-19.172,5.512-26.495,4.385-51.98-.027-68.33-10.565,22.856,5.315,43.021,4.696,66.855,1.837,6.376-.765,12.841-1.136,18.68-2.756-2.274,2.197-4.143,5.166,1.966,5.971Z" fill="#edac37" stroke-width="0"/>
        <g>
          <path d="M895.707,121.784c15.73,3.286,41.933,10.896,54.074,16.536,27.452,12.755,40.193,30.589,57.023,46.394-.012,9.034.017,18.067,0,27.101-32.286-19.375-63.696-39.531-105.69-54.662-42.894-15.455-81.728-23.75-128.794-5.512-66.035,25.588-20.71,47.637-50.633,90.95-7.597,1.289-32.428,2.907-35.885,3.675-.588.131-.075.81-2.458,1.378-6.109-.806-4.24-3.775-1.966-5.971,1.391-1.344,20.58-9.847,32.444-25.493,11.558-15.242,8.329-21.876,10.815-28.709,7.907-21.733,12.836-38.857,60.465-48.69,10.918-2.254,71.214-9.796,74.229-12.173,5.483-4.323-8.942-8.959-24.579-8.957q.492-.919.983-1.837c22.834-.189,39.408,1.675,59.973,5.971Z" fill="#2ba8cf" stroke-width="0"/>
          <path d="M835.734,115.812q-.492.919-.983,1.837c-34.329.004-97.271,19.902-120.929,32.154,16.213-12.392,34.317-20.577,62.922-27.101,17.508-3.993,39.489-6.728,58.99-6.89Z" fill="#0387b2" stroke-width="0"/>
        </g>
        <path d="M841.633,111.219c-21.067,6.921,8.321,1.384,42.768,7.349,2.031.352,11.306,2.219,11.306,3.215-20.565-4.296-37.139-6.161-59.973-5.971-19.501.162-41.481,2.897-58.99,6.89.011-2.811,11.584-5.854,16.714-6.89,10.74-2.17,35.952-4.153,48.175-4.593Z" fill="#25233d" stroke-width="0"/>
        <path d="M397.243,101.113c-3.496,11.973,42.416,13.475,46.7,14.24,27.275,4.868,51.703,33.094,74.72,41.341,34.764,12.455,79.539,7.643,106.673-7.349.737-.407,2.54-.912,3.933-1.837,2.017,5.679-12.364,14.189-22.121,16.996-14.272,4.106-29.755,4.004-45.717,3.215-.191-.009.219-1.207-2.458-1.378-8.27-.528-19.169-.444-24.087,3.215-11.613,1.828-25.95-7.237-32.444-11.713-11.832-8.155-18.045-21.644-57.515-29.168-64.826-12.357-117.178,3.506-143.05,31.465-24.791,26.79-13.385,46.127-41.293,76.48l-1.966-.689c-7.473,7.437-30.542,18.784-47.192,21.359-22.403-9.235,16.293-3.835,18.68-23.886,8.723-6.533,11.862-12.947,15.731-20.211.967-1.815-.171-6.119,0-6.431.04-.072,2.718.199,2.949-.23,4.205-7.78,13.236-18.11,7.865-18.603,3.865-5.285,6.432-12.516,9.832-16.996,7.753-10.216,24.815-27.305,36.377-36.747,21.978-17.949,47.083-31.344,94.384-33.073Z" fill="#f0bab6" stroke-width="0"/>
        <path d="M246.819,174.608c-.513.417-3.85,4.62-7.865,7.809-11.012,8.747-11.792,9.442-31.461,15.388,1.638,9.763,38.384,2.433,24.579,10.106l.983,1.148c2.605,1.161,10.158-1.783,10.815-2.756,1.759-.455,2.071-.745,1.966.459-.171.311.967,4.616,0,6.431-2.725-1.364,1.339-4.653-3.441-4.134-1.675.182,4.094,4.344-21.138,11.943-15.672-1.652-27.916-2.042-42.768-6.431-5.614-1.659-56.039-22.969-65.38-27.79,1.693-.989,24.87,1.93,29.003,2.067,38.433,1.273,73.36-3.973,104.707-14.24Z" fill="#c3e0e5" stroke-width="0"/>
        <path d="M229.122,224.676l1.966.689c-25.539,18.342-58.966,21.57-102.741,15.388-47.462-6.703-62.008-22.641-82.094-41.341-7.498-6.98-20.444-13.661-9.34-15.158,14.823,7.277,19.255,20.131,30.478,14.699,14.234,14.203,61.497,31.752,94.384,33.532,31.193,1.689,40.628-3.083,67.347-7.809Z" fill="#2ba8cf" stroke-width="0"/>
        <g>
          <path d="M46.254,199.413c20.086,18.7,34.632,34.638,82.094,41.341,43.774,6.182,77.202,2.954,102.741-15.388l-1.966-.689c-8.529,1.029-24.463,2.594-27.529.919,4.66-.636,15.218-3.255,19.663-4.593,25.232-7.599,19.463-11.761,21.138-11.943,4.78-.519.716,2.77,3.441,4.134-3.869,7.264-7.008,13.678-15.731,20.211-16.365,12.257-40.477,11.83-41.293,22.278,3.401,5.001,15.162,2.76,22.613,1.608,16.65-2.576,39.719-13.922,47.192-21.359l1.966.689c-22.921,24.93-58.589,42.298-120.929,40.881C48.924,275.439,24.475,234.269.045,200.791c-.016-9.952-.004-19.905,0-29.857,13.054,18.861,29.652,37.037,55.057,53.054h1.966c-11.227-9.677-6.6-11.746-6.882-12.402-1.411-3.287-8.123-10.422-3.933-12.173Z" fill="#c3e0e5" stroke-width="0"/>
          <path d="M49.695,232.485c61.905,35.855,131.558,26.106,131.252,29.628-13.949.794-35.659,5.92-43.751,6.201-36.306,1.259-85.751-18.012-87.502-35.829Z" fill="#96d9e8" stroke-width="0"/>
        </g>
        <path d="M211.425,257.29c-7.451,1.153-19.212,3.394-22.613-1.608.816-10.448,24.928-10.021,41.293-22.278-2.387,20.05-41.083,14.651-18.68,23.886Z" fill="#ca588d" stroke-width="0"/>
        <path d="M94.429,200.791c9.361,6.6,32.522,17.803,47.192,21.589l-.492,1.378c-23.056-4.655-43.625-15.768-58.498-25.264,5.07-2.996,6.06,2.715,11.798,2.297Z" fill="#c3e0e5" stroke-width="0"/>
        <path d="M794.441,114.894l-.983.919c-5.13,1.037-16.703,4.079-16.714,6.89-28.605,6.525-46.709,14.709-62.922,27.101-32.432,24.788-42.801,58.478-93.892,67.983-15.492,2.882-50.146,4.498-64.397.459-5.284-1.497-10.007-5.836-12.781-8.268,6.025-1.503,20.36,1.001,30.97.459,30.269-1.545,61.607-15.058,75.212-27.331,5.566-5.021,28.729-33.692,10.815-33.302.173-.131-.023-.615,2.949-2.756.823-.593,2.177-1.041,1.966-1.837,1.206.05.924-.442.983-.459,3.261-.965,8.702-3.482,12.781-3.215l3.933,1.148c-2.046,30.064-24.817,61.345-84.552,76.251l1.475.689c63.341-5.079,79.302-37.791,98.808-61.322.46-.555-1.074-2.188-.983-2.297.257-.307,2.124.825,7.865-5.053.436-.447-.437-1.856,0-2.297,7.668-7.73,18.495-14.269,32.936-19.522,11.99-4.362,26.23-6.603,30.97-9.646,8.698-1.363,16.768-3.268,25.562-4.593Z" fill="#9d1f48" stroke-width="0"/>
        <path d="M542.751,209.977c-.083-.073-.442.141-1.966-1.378-6.069-6.049-9.368-14.666-14.747-20.211,26.433-3.251,26.802,2.427,40.801,5.512,53.472,11.785,80.928-25.965,91.926-43.637.751-.591.947-.432.983-.459,17.914-.39-5.249,28.281-10.815,33.302-13.605,12.273-44.943,25.786-75.212,27.331-10.61.541-24.945-1.962-30.97-.459Z" fill="#1a2644" stroke-width="0"/>
        <path d="M737.417,76.309l-1.475,1.378c16.743,4.687,23.156,9.037,43.751,8.268-45.365,2.193-83.778,8.311-111.097,26.412-10.324,6.841-15.632,14.841-23.596,21.359-.474.388-.779.893-1.966.919,2.053-2.789,3.027-7.834,4.916-10.565,5.578-8.064,6.562-12.845,16.714-20.67,21.917-16.894,47.273-19.37,72.754-27.101Z" fill="#1a2644" stroke-width="0"/>
        <path d="M526.037,188.388c-1.762-1.816-13.395-10.7-15.731-11.943,4.053.555,8.21,1.749,11.798,2.756,8.279,2.323,19.915,6.118,29.003,7.349,39.225,5.313,65.527-3.745,86.027-18.374,8.004-5.712,14.153-12.026,21.63-17.914-10.998,17.673-38.454,55.422-91.926,43.637-13.999-3.085-14.368-8.763-40.801-5.512Z" fill="#9d1f48" stroke-width="0"/>
        <path d="M637.135,168.177c-20.5,14.629-46.802,23.687-86.027,18.374-9.088-1.231-20.724-5.026-29.003-7.349-.224-4.625,8.036-.552,12.29,0,1.413.183,4.096-.193,5.407,0,5.986.883,13.247,3.149,19.172,3.675,29.217,2.593,57.407-6.068,78.161-14.699Z" fill="#e28fa3" stroke-width="0"/>
        <path d="M958.629,107.544c-.985-.062-2.387.104-2.949,0-13.574-2.505-26.524-5.649-40.801-7.349-40.842-4.864-90.637-4.377-131.252.919-15.169,1.978-30.579,5.07-44.242,8.727l-9.832-.459c31.122-7.981,63.103-11.254,97.825-14.699,36.367-.715,79.402.403,113.064,7.349,10.708,2.21,17.251,5.258,18.189,5.512Z" fill="#c3e0e5" stroke-width="0"/>
        <path d="M561.431,167.718c15.963.789,31.445.891,45.717-3.215,9.757-2.807,24.138-11.316,22.121-16.996,2.466-1.639,12.367-10.963,13.764-12.862,1.187-.026,1.493-.531,1.966-.919l1.966,1.608c-12.617,9.691-15.392,24.48-35.885,31.465-21.913,7.468-73.215,6.003-49.65.919Z" fill="#f47927" stroke-width="0"/>
        <path d="M712.838,114.434c1.076,3.562.296,2.897-.983,4.134-2.083,2.014-29.184,11.89-33.428,22.967-4.079-.267-9.52,2.251-12.781,3.215l-1.966.459c.015-.057-2.164-.441-1.966-.689.816-1.022,21.441-17.494,23.596-18.833,8.741-5.432,16.349-7.494,27.529-11.254Z" fill="#f19c85" stroke-width="0"/>
        <path d="M729.552,109.382l9.832.459c-9.525,2.55-18.123,6.07-27.529,8.727,1.279-1.237,2.06-.572.983-4.134,6.464-2.174,9.584-3.224,16.714-5.053Z" fill="#e19ea4" stroke-width="0"/>
        <path d="M662.697,147.048c-2.777-.446.8-1.153.983-1.837h.983c.21.796-1.143,1.245-1.966,1.837Z" fill="#f19c85" stroke-width="0"/>
        <g>
          <path d="M890.791,64.366c4.915,1.656,11.935,5.946,16.222,7.349,9.281,3.039,23.462,6.191,29.495,8.268,23.958,8.25,45.714,17.843,70.296,25.723.004,1.837-.004,3.675,0,5.512-10.399-2.82-21.071-5.446-31.461-8.268-7.556-2.052-14.927-4.518-22.613-6.431-83.378-20.756-112.023-14.933-146.983-21.589-17.445-3.322-23.059-7.869-29.986-11.024-2.495-4.316,25.978-9.228,32.936-9.646,22.83-1.371,63.223,3.745,82.094,10.106Z" fill="#f49419" stroke-width="0"/>
          <path d="M1006.804,111.219c0,.459,0,.919,0,1.378-11.421-2.569-21.328-6.385-32.444-9.187l.983-.459c10.39,2.822,21.063,5.448,31.461,8.268Z" fill="#b6596c" stroke-width="0"/>
          <path d="M975.343,102.951l-.983.459c-6.584-1.66-13.847-3.104-20.646-4.593l-.983-2.297c7.686,1.913,15.057,4.378,22.613,6.431Z" fill="#5b204c" stroke-width="0"/>
        </g>
        <path d="M446.401,218.246c-19.592.554-23.353,1.765-38.343,6.431-54.735,17.037-57.302,46.594-74.72,65.456-13.9,15.052-57.652,40.515-89.468,47.542-4.383.968-22.093,4.661-19.663-.23,28.507-10.244,31.487-7.475,58.99-20.9,15.685-7.656,19.233-9.466,30.478-18.833,29.552-24.617,26.766-42.73,48.175-61.092,6.569-5.634,12.986-10.553,24.579-14.24,18.449-5.867,38.726-6.998,59.973-4.134Z" fill="#f3f6f3" stroke-width="0"/>
        <path d="M148.503,320.679c8.811.873-4.98,3.725,11.306,7.809,9.362,2.347,23.911,1.726,24.087,3.215-5.038.435-10.011.882-14.747,1.837-7.796-.196-15.289-.969-23.104-.919-20.936-1.702-97.143-20.717-111.589-25.723q.246-1.378.492-2.756c43.947,11.659,60.932,18.895,113.555,16.536Z" fill="#d35752" stroke-width="0"/>
        <path d="M313.674,297.712c-11.245,9.367-14.793,11.177-30.478,18.833-31.173,14.452-71.472,18.065-114.047,16.996,4.736-.955,9.71-1.402,14.747-1.837,6.763-.584,12.819-.663,15.731-.919,48.234-4.233,82.947-14.892,106.182-35.369,3.616-.394,5.557,1.169,7.865,2.297Z" fill="#ac2f63" stroke-width="0"/>
        <g>
          <path d="M1006.804,102.951c.002.919-.002,1.837,0,2.756-24.582-7.88-46.338-17.473-70.296-25.723-6.033-2.078-20.214-5.229-29.495-8.268-4.288-1.404-11.307-5.693-16.222-7.349,6.826-9.332,46.319,8.445,67.838,9.417-10.674-8.937-52.347-29.342-69.313-33.762-9.048-2.357-18.798-3.455-28.02-5.512,38.736-1.843,28.557-19.117,45.225-22.048,1.692-.298,13.834-.651,14.747.23-14.409,18.385,24.588,38.433,42.276,53.743,14.046,12.158,21.662,26.401,43.259,36.518Z" fill="#9d1f48" stroke-width="0"/>
          <path d="M995.006,12.001c-1.853,6.987,4.185,24.03,11.798,30.776.022,3.062-.016,6.125,0,9.187-2.033-1.814-12.804-12.129-15.239-12.402-1.397-.157-5.451,1.623-8.357.459,4.931-9.904,3.195-22.952,3.933-24.115,1.215-1.916,3.941.268,4.916-3.904h2.949Z" fill="#9d1f48" stroke-width="0"/>
          <path d="M1001.888,3.733c.335,1.968,1.513,3.753,4.916,5.053.48,11.315-.083,22.671,0,33.991-7.613-6.746-13.651-23.789-11.798-30.776.613-2.313,2.092-3.875,3.933-5.971.731-.833,1.867-2.048,2.949-2.756-.008.151-.025.31,0,.459Z" fill="#ac2f63" stroke-width="0"/>
          <g>
            <path d="M943.882,35.887c4.268,8.09-.645,11.481,26.054,15.158,7.422-.106,11.983-8.433,13.273-11.024,2.906,1.164,6.96-.616,8.357-.459,2.435.273,13.206,10.588,15.239,12.402.087,16.995-.04,33.991,0,50.987-21.598-10.117-29.213-24.36-43.259-36.518-17.688-15.31-56.685-35.358-42.276-53.743-.913-.88-13.055-.527-14.747-.23v-.459c36.239-2.777,29.648,11.032,31.461,14.929,1.212,2.605,4.505,6.316,5.899,8.957Z" fill="#ac2f63" stroke-width="0"/>
            <path d="M958.137,52.423l3.441.689c1.314,6.608-7.784.015-3.441-.689Z" fill="#c93d6c" stroke-width="0"/>
          </g>
        </g>
        <path d="M454.266,219.624c27.336,5.327,45.058,17.195,64.889,26.871,2.828,1.38,4.569,3.746,4.916,3.904l-12.781-3.215c-12.394-9.908-43.668-22.728-69.313-21.589-9.13.406-8.799,1.78-9.34,1.837-2.503.264-3.376-.601-4.424-.459-11.681,1.583-23.964,5.552-32.444,9.646-2.323,1.122-1.316,1.761-1.475,1.837-2.341,1.124-5.357,2.52-8.848,2.756,9.013-6.626,25.051-14.733,22.613-16.536,14.99-4.666,18.751-5.876,38.343-6.431,2.521.34,5.423.902,7.865,1.378Z" fill="#c3e0e5" stroke-width="0"/>
        <path d="M421.822,236.16c2.035.095,2.159.386,2.949.459-15.12,2.478-27.717,3.566-37.36,10.335-10.672,7.492-6.538,13.512-10.815,20.211-.892,1.398-21.553,19.119-28.512,25.953,5.172-22.345,11.78-33.099,37.36-51.906,3.492-.236,6.507-1.632,8.848-2.756,8.845-1.693,17.949-2.743,27.529-2.297Z" fill="#f3f6f3" stroke-width="0"/>
        <path d="M955.68,107.544c-1.387,3.107-12.075-.452-20.646,1.378-61.602-10.13-83.7-4.961-135.676-1.378-7.349.507-15.134,1.345-22.613.919,1.616-.449,5.318-.731,5.899-1.148.391-.281,3.608-6.251.983-6.201,40.615-5.296,90.41-5.783,131.252-.919,14.277,1.7,27.227,4.844,40.801,7.349Z" fill="#ac2f63" stroke-width="0"/>
        <g>
          <path d="M935.033,108.922c30.491,5.014,51.8,12.498,71.771,24.345.008,4.9-.007,9.799,0,14.699-7.312-5.726-18.072-10.192-28.512-14.699-41.048-17.721-79.579-25.7-136.66-23.426-8.343.332-22.307,1.386-30.478,2.297-10.47-.087-16.344,2.141-11.798-4.593,51.976-3.583,74.075-8.752,135.676,1.378Z" fill="#c3e0e5" stroke-width="0"/>
          <path d="M1006.804,147.966c.005,3.215-.004,6.431,0,9.646-5.448-3.934-26.642-18.66-28.512-20.67-.856-.92-1.023-2.695,0-3.675,10.44,4.507,21.2,8.973,28.512,14.699Z" fill="#ca588d" stroke-width="0"/>
          <path d="M799.357,107.544c-4.546,6.734,1.328,4.506,11.798,4.593-5.927.661-11.093,1.909-16.714,2.756-8.794,1.326-16.864,3.231-25.562,4.593-9.567,1.499-25.759,4.025-23.596,2.067,11.276-11.036,18.274-9.429,31.461-13.091,7.479.426,15.264-.412,22.613-.919Z" fill="#f3f6f3" stroke-width="0"/>
          <path d="M978.292,133.267c-1.023.979-.856,2.754,0,3.675-40.442-18.214-79.109-27.797-136.66-25.723v-1.378c57.081-2.274,95.611,5.705,136.66,23.426Z" fill="#be558e" stroke-width="0"/>
          <path d="M841.633,109.841v1.378c-12.223.441-37.435,2.423-48.175,4.593l.983-.919c5.621-.847,10.786-2.095,16.714-2.756,8.171-.911,22.135-1.964,30.478-2.297Z" fill="#8e426f" stroke-width="0"/>
        </g>
        <g>
          <path d="M958.629.058c-2.311,9.045,5.988,15.762,6.882,18.833.658,2.26-.479,5.393,0,7.809-4.453,4.073-8.954,11.532-21.63,9.187-1.394-2.641-4.687-6.352-5.899-8.957-1.813-3.897,4.777-17.705-31.461-14.929,4.133-3.772,7.353-7.712,7.865-11.943,14.746.022,29.497-.053,44.242,0Z" fill="#016081" stroke-width="0"/>
          <path d="M969.444,23.485c-2.196,2.892-3.752,3.05-3.933,3.215-.479-2.416.658-5.548,0-7.809,5.324,1.327,3.544,2.518,3.933,4.593Z" fill="#2ba8cf" stroke-width="0"/>
        </g>
        <path d="M998.939,6.03c-1.841,2.096-3.319,3.658-3.933,5.971h-2.949c.518-2.219.136-4.523.983-7.349q2.949.689,5.899,1.378Z" fill="#016081" stroke-width="0"/>
        <path d="M539.802,115.812c6.678,3.412,6.853,5.559,19.663,9.187,2.877.815,6.372.725,8.848,1.378,5.395,1.422,3.65,1.58,4.916,2.297-4.55,2.4-9.223,2.439-15.731,1.378-8.023-1.308-74.186-26.383-84.06-28.479-.311-.066-3.979.132-4.916,0-.983-.139-.005-1.259-.983-1.378-.226-.028-1.731.943-1.966.919-14.136-1.464-28.757-3.299-42.768-.23,13.89,5.875,32.194,8.203,47.683,14.01,26.994,10.121,47.84,29.13,91.926,34.91,19.486,14.594,50.52-.532,65.872-8.727,1.523,2.861,2.947,2.821,2.949,2.986.013,1.032-8.048,4.906-5.899,5.282-27.134,14.992-71.909,19.804-106.673,7.349-23.018-8.246-47.445-36.472-74.72-41.341-4.284-.765-50.196-2.267-46.7-14.24,2.392-8.192,64.106-15.308,112.572.459,15.454,5.028,21.18,9.741,29.986,14.24Z" fill="#ca588d" stroke-width="0"/>
        <g>
          <path d="M534.886,86.415c2.097.539,22.592,8.053,25.071,9.187,16.958,7.758,23.252,15.427,22.121,26.642q-6.882,2.067-13.764,4.134c-2.477-.653-5.971-.563-8.848-1.378-4.451-4.024-10.468-7.683-15.731-11.484-17.891-12.922-31.741-22.088-67.347-25.264-41.407-3.693-59.086,1.017-93.892,8.268,13.449-10.078,40.175-16.299,64.889-17.455,22.739-1.063,67.443,2.191,87.502,7.349Z" fill="#f3f6f3" stroke-width="0"/>
          <path d="M559.465,124.999c-12.81-3.628-12.985-5.775-19.663-9.187,5.007.411,1.518-1.511,3.933-2.297,5.262,3.801,11.28,7.459,15.731,11.484Z" fill="#f0cdba" stroke-width="0"/>
        </g>
        <path d="M578.145,130.971c-1.289-.662-4.044-1.803-4.916-2.297-1.266-.717.479-.875-4.916-2.297q6.882-2.067,13.764-4.134c-.615,6.094-3.422,7.621-3.933,8.727Z" fill="#f0bab6" stroke-width="0"/>
        <g>
          <path d="M658.764,100.195c-9.255,7.158-13.951,15.129-19.663,22.967,1.524-6.78-2.933-14.351-5.899-13.551-10.08,10.255-10.306,2.714-15.731-2.297-1.893-1.748-6.305-3.896-7.865-5.512-.373-.386-.422-4.969-3.933-8.268-9.362-8.795-54.274-15.46-73.737-12.402-.686,2.269,1.876,2.835,1.966,2.986.466.772.255,1.567.983,2.297-20.059-5.158-64.763-8.413-87.502-7.349-1.227-2.661,36.411-6.051,43.751-6.431,31.591-1.635,74.555-.071,104.215,5.512,20.744,3.905,51.203,13.708,63.414,22.048Z" fill="url(#linear-gradient-2)" stroke-width="0"/>
          <path d="M636.152,128.215c-1.284,2.254-6.442,9.513-8.848,11.024-5.733,3.601-25.674,6.704-29.003,5.971-1.626-.358-2.22-6.037-24.087-4.823-.047-3.252,2.49-6.289,3.933-9.417.51-1.107,3.318-2.634,3.933-8.727,1.131-11.215-5.163-18.884-22.121-26.642-2.479-1.134-22.974-8.648-25.071-9.187-.729-.73-.517-1.525-.983-2.297,49.2,10.714,48.254,27.123,54.074,32.843,1.221,1.2,6.511,2.415,7.865,4.134,2.413,3.064-3.973,13.098,7.374,15.388,12.773,2.578,25.879-3.916,32.936-8.268Z" fill="#c3e0e5" stroke-width="0"/>
          <path d="M639.101,123.162c-.034.151.043.309,0,.459-.49,1.711-2.04,2.997-2.949,4.593-7.057,4.352-20.163,10.846-32.936,8.268-11.347-2.29-4.961-12.324-7.374-15.388-1.354-1.72-6.644-2.934-7.865-4.134-5.819-5.72-4.874-22.129-54.074-32.843-.091-.15-2.652-.717-1.966-2.986,19.463-3.058,64.376,3.607,73.737,12.402,3.511,3.299,3.56,7.882,3.933,8.268,1.56,1.616,5.973,3.764,7.865,5.512,5.424,5.011,5.651,12.551,15.731,2.297,2.966-.8,7.423,6.771,5.899,13.551Z" fill="#4dc3ec" stroke-width="0"/>
        </g>
        <path d="M266.482,170.933c-3.399,4.479-5.967,11.711-9.832,16.996-2.096,2.866-6.118,7.002-8.848,9.876-.939.988,1.926.72-3.933,4.364-1.59.989-9.597,2.958-10.815,6.89l-.983-1.148c13.805-7.673-22.941-.343-24.579-10.106,19.669-5.946,20.449-6.641,31.461-15.388l2.458,1.378c8.752-4.845,27.388-18.309,25.071-12.862Z" fill="#bacfca" stroke-width="0"/>
        <path d="M647.95,124.081c-1.889,2.731-2.863,7.776-4.916,10.565-1.397,1.898-11.298,11.223-13.764,12.862-1.392.925-3.196,1.43-3.933,1.837-2.149-.377,5.912-4.25,5.899-5.282-.002-.164-1.426-.125-2.949-2.986-.333-.625-.856-1.199-.983-1.837,2.406-1.511,7.565-8.77,8.848-11.024.909-1.597,2.459-2.882,2.949-4.593l8.848.459Z" fill="#ca588d" stroke-width="0"/>
        <path d="M511.29,247.184c4.992,3.991,24.903,24.957,21.63,29.398-5.226-1.969-10.19-4.686-15.731-6.431-18.509-5.828-27.317-3.491-35.885-5.971-10.544-3.053-29.26-25.022-56.532-27.56-.79-.074-.914-.364-2.949-.459,3.319-2.918,10.062-5.407,10.815-8.727.541-.057.21-1.432,9.34-1.837,25.645-1.139,56.919,11.681,69.313,21.589Z" fill="#016081" stroke-width="0"/>
        <path d="M524.071,250.399c.99.452,1.891.959,2.949,1.378,6.893,6.549,44.15,25.753,55.057,28.939-10.06,1.606-15.083,3.476-11.798,8.727-20.15-4.33-22.317-7.193-37.36-12.862,3.274-4.441-16.637-25.407-21.63-29.398l12.781,3.215Z" fill="#2ba8cf" stroke-width="0"/>
        <g>
          <g>
            <path d="M906.521,201.25c.706.307,8.541,5.608,11.798,7.12,49.067,22.767,54.718,26.969,88.485,57.188-.035,10.565.075,21.13,0,31.695-27.455-24.701-67.69-61.655-116.505-78.088-7.454-2.509-26.208-7.811-34.902-7.809,8.971-11.449,39.911,4.676,37.852-13.78.805-.293,11.665,2.976,13.273,3.675Z" fill="#dbe5dc" stroke-width="0"/>
            <path d="M960.595,214.111c15.63,7.879,32.638,15.214,46.209,23.886-.022,9.187.031,18.374,0,27.56-33.767-30.219-39.418-34.421-88.485-57.188-3.257-1.511-11.092-6.813-11.798-7.12,20.079,2.386,37.022,7.654,54.074,12.862Z" fill="#f3f6f3" stroke-width="0"/>
          </g>
          <path d="M532.919,276.582c15.043,5.669,17.21,8.532,37.36,12.862,25.969,5.58,69.453,8.807,95.367,1.837,2.539,3.451,47.528-7.201,41.293-9.187.61-.159,9.045-3.407,10.815-4.134,8.973,1.96,8.306-.988,10.323-.919,6.233,2.51,4.132,5.368,4.424,8.957-9.033,5.217-20.233,11.345-30.97,15.847-8.925,3.742-23.83,7.06-21.138,8.727-5.015.274-12.456-.101-18.189,0-.22.004-3.713.917-3.933.919-4.668.036-27.175-.65-30.478-.919-.796-.065-.184-.847-.983-.919-10.036-.903-20.038-1.562-29.495-3.675-1.019-.228.039-1.134-.983-1.378-2.752-.657-3.122.206-3.933,0-11.754-2.983-11.117-4.4-11.798-4.593-3.267-.928-6.951-1.234-10.323-2.297-.277-.087-1.302.77-6.391-.919-1.446-.48-24.869-10.637-26.054-11.254-8.695-4.526-14.074-10.226-20.646-15.388,5.541,1.745,10.505,4.461,15.731,6.431Z" fill="#c3e0e5" stroke-width="0"/>
          <g>
            <path d="M960.595,214.111c-17.052-5.208-33.995-10.476-54.074-12.862-1.608-.699-12.468-3.968-13.273-3.675,2.059,18.456-28.881,2.331-37.852,13.78-12.033.003-30.009,6.937-37.36,11.254-31.931,18.751-11.236,42.77-58.007,68.901-21.65,12.096-46.635,17.258-79.636,19.063-2.692-1.668,12.213-4.985,21.138-8.727,10.737-4.502,21.937-10.63,30.97-15.847-.292-3.59,1.809-6.448-4.424-8.957-2.017-.07-1.351,2.878-10.323.919,13.828-5.683,30.886-17.917,39.327-25.723,10.959-10.136,24.77-26.169,23.596-37.436,4.333-5.12.75-17.426,3.933-22.048.959-1.393,11.218-8.019,14.256-9.417,19.154-8.811,44.968-10.663,68.821-8.727,23.073,4.433,14.499,4.247,16.222,7.12,2.206,3.678,24.953,8.453,32.936,11.254,25.382,8.905,27.311,12.843,43.751,21.13Z" fill="#c3e0e5" stroke-width="0"/>
            <path d="M785.101,213.193l3.441.689c6.19,6.607-15.378,24.485-3.441-.689Z" fill="#f8d781" stroke-width="0"/>
          </g>
          <path d="M645,287.147c10.412.064,20.131.051,30.478-.459-19.808,2.68,8.28-.278-9.832,4.593-25.914,6.969-69.398,3.743-95.367-1.837-3.285-5.252,1.738-7.122,11.798-8.727,18.647,5.446,41.562,6.299,62.922,6.431Z" fill="#4dc3ec" stroke-width="0"/>
          <path d="M706.939,282.094c6.235,1.986-38.754,12.638-41.293,9.187,18.112-4.871-9.976-1.914,9.832-4.593-.128-1.246,14.846-1.621,16.222-1.837,2.802-.441,13.986-2.429,15.239-2.756Z" fill="#96d9e8" stroke-width="0"/>
        </g>
        <path d="M540.785,208.599c1.524,1.519,1.883,1.305,1.966,1.378,2.774,2.432,7.497,6.771,12.781,8.268,3.911,5.988,10.457,12.39,19.663,16.996-26.441-.252-59.69-32.564-63.906-33.762-.724-.206-3.373.529-4.916.23-.34-.318-.643-1.523-.983-1.837,1.363.161,5.294,3.999,6.882-2.986-28.665-10.177-.437-11.869,12.781-2.297,3.158,2.287,10.539,14,15.731,14.01Z" fill="#edac37" stroke-width="0"/>
        <path d="M532.919,240.753c-7.892,4.501,7.243,10.903,11.798,15.847-4.276-1.838-16.915-4.514-17.697-4.823-1.058-.419-1.96-.926-2.949-1.378-.347-.158-2.088-2.524-4.916-3.904-19.83-9.677-37.553-21.544-64.889-26.871l.983-.919c41.095,8.26,58.155,26.442,61.448,25.264,9.853-3.525-31.838-23.259-38.343-25.723-31.035-11.755-65.833-11.09-95.858.919-12.187,4.874-24.457,12.138-25.071,19.752q2.212-1.148,4.424-2.297c-21.409,18.363-18.623,36.475-48.175,61.092-2.308-1.127-4.249-2.691-7.865-2.297,1.701-1.499,3.405-3.051,4.916-4.593,22.37-22.847,20.358-37.849,29.495-55.58,1.041-2.021,1.488-4.475,2.949-6.431,4.69-6.277,10.305-8.052,10.815-8.498,4.233-3.705,7.403-7.575,12.781-11.024,6.365-4.082,14.679-7.014,22.613-10.335,6.952-2.911,16.556-8.294,26.054-9.646,9-1.281,25.331-.155,25.071-1.837,19.679,1.141,19.957,5.274,21.138,5.512,1.998.403,15.153-1.371,34.902,10.795,15.036,9.263,22.922,26.777,36.377,36.977Z" fill="#9d1f48" stroke-width="0"/>
        <path d="M448.367,174.149c8.387,2.105,30.74,12.277,24.579,2.756,19.586,10.303,19.213,10.722,32.444,22.967-11.252-1.333-12.551.955-13.273.919-2.278-.113-28.678-13.339-30.97-15.618-8.281-7.014-33.28-9.161-48.667-7.349-8.3.977-14.848,4.842-15.731,5.053-.382.091-2.195-.833-8.357.919-7.285,2.071-13.591,3.095-18.68,7.12-7.361,5.821-5.637,11.115-5.899,11.713-5.417,12.376-10.994,4.561-16.714,9.417-1.12.951-6.125,14.692-3.933,16.766-1.461,1.955-1.908,4.41-2.949,6.431-4.967.974-1.252,7.454-9.832,6.431,5.944-18.671,1.673-30.674,21.63-47.312,21.217-17.69,37.838-26.152,84.06-21.13,3.615.393,9.44,3.202,12.29.919Z" fill="#f49419" stroke-width="0"/>
        <path d="M383.479,198.035c2.118-.013,4.932-.395,5.899.919-7.934,3.321-16.248,6.253-22.613,10.335-5.378,3.449-8.548,7.319-12.781,11.024-.509.446-6.125,2.221-10.815,8.498-2.192-2.074,2.812-15.815,3.933-16.766,5.72-4.855,11.296,2.96,16.714-9.417,6.879-1.171,11.994-4.545,19.663-4.593Z" fill="#b92425" stroke-width="0"/>
        <path d="M461.149,185.173c-4.526,1.196-11.765-3.865-27.037-4.593-23.834-1.137-43.403,7.459-45.717,3.215,6.162-1.751,7.975-.828,8.357-.919.883-.21,7.431-4.075,15.731-5.053,15.386-1.812,40.386.335,48.667,7.349Z" fill="#f28722" stroke-width="0"/>
        <path d="M440.502,187.47c.26,1.683-16.071.556-25.071,1.837-9.497,1.352-19.101,6.736-26.054,9.646-.966-1.313-3.781-.932-5.899-.919,4.459-10.783,38.429-11.643,57.023-10.565Z" fill="#92404d" stroke-width="0"/>
        <path d="M440.502,145.67c-19.889-2.4-44.962-2.363-64.397.919-10.424,1.76-40.47,10.624-40.801,16.536-20.327,9.993-26.389,22.815-34.411,35.369-3.441,5.385-6.538,10.687-9.832,16.077l-1.966-2.756c2.772-6.602,9.713-21.402,13.764-27.101,9.49-13.349,32.83-30.636,59.481-37.666,22.562-5.952,55.759-8.384,78.161-1.378Z" fill="#96d9e8" stroke-width="0"/>
        <path d="M447.384,146.588c-1.948-.373-4.766-.663-6.882-.919-22.403-7.006-55.599-4.574-78.161,1.378-26.651,7.03-49.992,24.317-59.481,37.666,5.45-31.174,83.568-61.372,144.525-38.125Z" fill="#e19ea4" stroke-width="0"/>
        <path d="M434.603,159.909c16.434,5.611,25.003,9.978,38.343,16.996,6.161,9.521-16.192-.651-24.579-2.756-26.06-6.54-54.952-9.077-80.128,0-15.722,5.668-19.398,11.176-16.222,20.211-19.956,16.638-15.685,28.642-21.63,47.312-2.729,8.571-9.686,31.456-18.68,37.896-1.662,1.19-4.899,1.873-6.882,2.986-20.956,11.76-28.419,15.755-10.815-1.378,6.297-6.128,13.978-11.852,18.68-18.374,8.868-12.299,10.688-24.517,9.832-37.436l-2.949,1.148c1.241-3.278,1.221-6.771,1.966-10.106,3.64-16.291,1.538-25.675,21.63-42.259,24.103-10.966,56.051-18.665,89.959-12.402,6.154,1.137,19.592,5.868,1.475-1.837Z" fill="#edac37" stroke-width="0"/>
        <path d="M343.169,174.149c-20.092,16.584-17.99,25.968-21.63,42.259-5.054,2.238-8.39,11.676-8.848,16.077l-4.916-1.148c2.611-20.787-.908-41.241,32.936-57.188.284-.134,2.204.116,2.458,0Z" fill="#f49419" stroke-width="0"/>
        <path d="M312.691,262.802c-4.702,6.521-12.384,12.246-18.68,18.374-5.557.055-.845-5.212-5.899-7.349,5.376-5.971,13.227-18.21,10.815-24.345.144-.444-.126-.931,0-1.378,7.631-.129,14.097.11,17.697-3.445-.21-.413-1.579.119-2.949-.689,11.278-3.398-3.999,16.507-3.933,18.144.038.934.853.702,2.949.689Z" fill="#c26932" stroke-width="0"/>
        <path d="M313.674,243.969c1.37.808,2.739.276,2.949.689-3.6,3.555-10.066,3.316-17.697,3.445,1.424-5.035,1.686-6.839,1.966-11.943,5.187,2.281,8.377,5.213,12.781,7.809Z" fill="#e46623" stroke-width="0"/>
        <path d="M321.539,216.408c-.745,3.335-.726,6.827-1.966,10.106-.915,2.416-1.511,6.949-6.882,5.971.459-4.401,3.794-13.839,8.848-16.077Z" fill="#1c7782" stroke-width="0"/>
        <g>
          <path d="M440.502,145.67c2.116.255,4.934.546,6.882.919,13.567,2.596,19.604,10.516,23.596,12.632,13.925,7.379,35.657,15.272,39.327,17.225,2.336,1.243,13.969,10.126,15.731,11.943,5.379,5.545,8.678,14.162,14.747,20.211-5.191-.01-12.572-11.723-15.731-14.01-13.219-9.572-41.446-7.88-12.781,2.297-1.589,6.984-5.519,3.147-6.882,2.986-13.232-12.245-12.858-12.664-32.444-22.967-13.34-7.017-21.91-11.385-38.343-16.996-3.341-1.421-6.066-3.136-10.815-3.675-4.702-1.305-13.047-4.049-18.189-4.593-23.906-2.529-53.98,3.462-70.296,11.484.332-5.912,30.378-14.776,40.801-16.536,19.435-3.282,44.509-3.318,64.397-.919Z" fill="#2ba8cf" stroke-width="0"/>
          <path d="M434.603,159.909c-4.829-1.649-8.893-2.165-9.34-2.297-.496-.146-1.094-1.272-1.475-1.378,4.749.539,7.473,2.254,10.815,3.675Z" fill="#edac37" stroke-width="0"/>
        </g>
        <path d="M199.627,330.784c-2.912.256-8.968.335-15.731.919-.177-1.49-14.726-.868-24.087-3.215-16.287-4.084-2.495-6.936-11.306-7.809,21.255-.953,33.323-2.894,52.108-7.349,1.304-.309,2.658-.586,3.933-.919l3.933,1.608c-22.001,5.013.293,13.177-8.848,16.766Z" fill="#e9572f" stroke-width="0"/>
        <path d="M294.011,281.175c-17.604,17.133-10.141,13.138,10.815,1.378,2.64,2.064.294,7.429,5.899,8.268-1.51,1.543-3.214,3.094-4.916,4.593-23.234,20.477-57.947,31.136-106.182,35.369,9.141-3.589-13.153-11.753,8.848-16.766l-3.933-1.608c11.966-3.119,27.491-7.653,34.411-13.321,2.659.072,3.545-1.118,4.916-1.837l1.475.919c19.228-5.792,33.93-14.529,42.768-24.345,5.054,2.138.342,7.404,5.899,7.349Z" fill="#ff975c" stroke-width="0"/>
        <path d="M288.112,273.826c-8.838,9.816-23.54,18.553-42.768,24.345l-1.475-.919c7.107-3.733,17.969-8.17,23.596-11.713,14.774-9.303,27.745-24.636,31.461-36.058,2.412,6.135-5.439,18.375-10.815,24.345Z" fill="#f49419" stroke-width="0"/>
        <path d="M245.836,206.762c.105-1.204-.208-.915-1.966-.459.52-.77-.363-2.905,0-4.134,5.858-3.644,2.994-3.376,3.933-4.364,2.73-2.873,6.753-7.01,8.848-9.876,5.37.494-3.66,10.823-7.865,18.603-.231.428-2.91.158-2.949.23Z" fill="#f0bab6" stroke-width="0"/>
        <path d="M243.87,206.303c-.657.973-8.21,3.917-10.815,2.756,1.218-3.932,9.225-5.901,10.815-6.89-.363,1.229.52,3.365,0,4.134Z" fill="#ca588d" stroke-width="0"/>
        <path d="M776.744,108.463c-13.187,3.662-20.185,2.055-31.461,13.091-2.163,1.958,14.029-.568,23.596-2.067-4.74,3.043-18.979,5.284-30.97,9.646-14.441,5.253-25.268,11.792-32.936,19.522-.437.44.436,1.85,0,2.297-5.741,5.877-7.609,4.746-7.865,5.053-.091.109,1.444,1.741.983,2.297-19.506,23.532-35.467,56.243-98.808,61.322l-1.475-.689c59.735-14.906,82.506-46.187,84.552-76.251l-3.933-1.148c4.243-11.077,31.344-20.953,33.428-22.967,9.406-2.657,18.003-6.177,27.529-8.727,13.663-3.658,29.073-6.75,44.242-8.727,2.625-.05-.592,5.92-.983,6.201-.581.417-4.283.699-5.899,1.148Z" fill="#ac2f63" stroke-width="0"/>
        <path d="M665.646,144.751c-.059.017.223.509-.983.459h-.983l1.966-.459Z" fill="#f8d781" stroke-width="0"/>
        <path d="M406.091,216.408c-5.417,1.841-17.706,2.964-19.663,5.971-11.593,3.687-18.01,8.605-24.579,14.24q-2.212,1.148-4.424,2.297c.614-7.613,12.884-14.878,25.071-19.752-.999,6.918,1.049-.423,23.596-2.756Z" fill="#25233d" stroke-width="0"/>
        <path d="M455.25,218.705l-.983.919c-2.442-.476-5.344-1.038-7.865-1.378-21.247-2.864-41.524-1.733-59.973,4.134,1.957-3.007,14.247-4.13,19.663-5.971,18.669-1.932,31.902-1.172,49.158,2.297Z" fill="#a7427d" stroke-width="0"/>
        <path d="M432.637,227.432c-.753,3.32-7.496,5.809-10.815,8.727-9.58-.447-18.684.604-27.529,2.297.158-.076-.848-.716,1.475-1.837,8.48-4.094,20.763-8.063,32.444-9.646,1.048-.142,1.921.723,4.424.459Z" fill="#96d9e8" stroke-width="0"/>
        <path d="M557.499,130.052c-1.951-.613-3.035,8.038-2.949,8.498.301,1.622,6.114,9.942,7.865,11.254-44.086-5.78-64.932-24.789-91.926-34.91-15.49-5.807-33.794-8.135-47.683-14.01,14.011-3.07,28.632-1.235,42.768.23.236.024,1.74-.946,1.966-.919.978.119,0,1.24.983,1.378.937.132,4.605-.066,4.916,0,9.875,2.096,76.037,27.171,84.06,28.479Z" fill="#ca588d" stroke-width="0"/>
        <path d="M578.145,130.971c-1.443,3.128-3.979,6.164-3.933,9.417,21.868-1.214,22.461,4.465,24.087,4.823,3.329.733,23.27-2.371,29.003-5.971.127.639.651,1.213.983,1.837-15.352,8.195-46.386,23.321-65.872,8.727-1.752-1.312-7.564-9.631-7.865-11.254-.085-.46.999-9.111,2.949-8.498,6.508,1.061,11.181,1.022,15.731-1.378.872.494,3.626,1.635,4.916,2.297Z" fill="#e28fa3" stroke-width="0"/>
        <path d="M455.25,218.705c-17.256-3.469-30.489-4.229-49.158-2.297-22.546,2.333-24.595,9.674-23.596,2.756,30.025-12.009,64.824-12.674,95.858-.919,6.505,2.464,48.196,22.198,38.343,25.723-3.293,1.178-20.353-17.004-61.448-25.264Z" fill="#1a2644" stroke-width="0"/>
        <path d="M340.22,235.241c-9.137,17.732-7.125,32.733-29.495,55.58-5.605-.84-3.259-6.204-5.899-8.268,1.984-1.113,5.22-1.796,6.882-2.986,8.994-6.439,15.951-29.324,18.68-37.896,8.579,1.023,4.864-5.457,9.832-6.431Z" fill="#f47927" stroke-width="0"/>
        <path d="M448.367,174.149c-2.85,2.283-8.674-.526-12.29-.919-46.222-5.022-62.843,3.44-84.06,21.13-3.176-9.035.501-14.543,16.222-20.211,25.176-9.077,54.068-6.54,80.128,0Z" fill="#edac37" stroke-width="0"/>
      </g>
    </g>
  </g>
</svg>