<?xml version="1.0" encoding="UTF-8"?>
<svg id="Layer_2" data-name="Layer 2" xmlns="http://www.w3.org/2000/svg" xmlns:xlink="http://www.w3.org/1999/xlink" viewBox="0 0 986.25 221.706">
  <defs>
    <linearGradient id="linear-gradient" x1="8.896" y1="66.532" x2="-2.615" y2="72.433" gradientUnits="userSpaceOnUse">
      <stop offset="0" stop-color="#00b4b2"/>
      <stop offset="1" stop-color="#3d7bec"/>
    </linearGradient>
    <linearGradient id="linear-gradient-2" x1="48.147" y1="164.068" x2="48.186" y2="179.08" gradientUnits="userSpaceOnUse">
      <stop offset="0" stop-color="#5786d6"/>
      <stop offset="1" stop-color="#0157dd"/>
    </linearGradient>
  </defs>
  <g id="Layer_1-2" data-name="Layer 1">
    <g id="shape1">
      <g id="Shape1">
        <g id="Shape2">
          <path d="M851.403,98.681l2.408,1.5c-3.544.201-11.358-1.295-12.039,1-15.366.451-27.478,3.205-39.487,8-51.204,20.444-55.311,64.659-106.905,86.997l-1.926-.25c5.011-2.014,11.386-5.014,15.41-7.5,24.798-15.317-.644-2.133-10.113.25-17.835,4.488-20.067,1.941-21.188,2-29.519,1.563-62.583,2.265-87.643-7.5-16.077.459-14.214-2.255-14.928-2.5-5.391-1.846-12.813-2.37-.482-2,32.345.971,61.691,15.458,113.165-5.25l-.482-1.25c-18.692,3.673-17.347,1.387-18.299,1.5-1.526.181.904,1.318,0,1.5-9.728,1.962-32.569,1.907-42.858.5-11.811-1.615-16.761-5.925-23.115-8-3.982-2.8-7.734-5.642-11.557-8.5,2.036-4.346-9.261-9.149-13.484-14.25-4.055-4.898-4.349-8.427-4.816-9.25,3.7,4.82,7.338,9.529,12.52,14,26.846,23.156,74.545,29.196,117.981,13.5,51.609-18.65,71.081-69.879,147.837-64.498Z" fill="#af0010" stroke-width="0"/>
          <g>
            <path d="M32.76,62.683c3.25,5.375,7.357,11.012,9.631,16.499.312.752-.068,3.677.963,7-.847,2.7.446,10.134-2.889,11-2.913-3.727-5.616-7.633-7.705-11.5-7.75-14.343-10.542-25.979-21.188-40.499C8.307,40.731,5.915,36.02.015,32.184c.003-1.5-.004-3,0-4.5,13.792,5.052,27.153,25.75,32.746,34.999Z" fill="#00cbce" stroke-width="0"/>
            <g>
              <path d="M9.646,46.683c7.207,9.726,14.873,28.774,20.225,39.999.99,2.076-.071,2.854,0,3-6.417.164-9.176-1.115-8.668,2.5-4.494,4.857-10.966,7.062-21.188,4.5C.037,76.849-.027,57.016.015,37.183c3.131,2.446,7.678,6.863,9.631,9.5Z" fill="url(#linear-gradient)" stroke-width="0"/>
              <path d="M11.572,45.183l.963,2.25-2.889-.75c-1.954-2.636-6.5-7.054-9.631-9.5.004-1.667-.004-3.333,0-5,5.901,3.836,8.293,8.548,11.557,13Z" fill="#bca168" stroke-width="0"/>
            </g>
            <path d="M32.76,85.682l-2.889,1c-5.352-11.225-13.018-30.273-20.225-39.999l2.889.75-.963-2.25c10.647,14.519,13.439,26.156,21.188,40.499Z" fill="#bd7dbe" stroke-width="0"/>
            <path d="M29.871,89.682c.248.508,4.658,4.975,4.816,8.5-4.723.314-12.024,4.392-13.484-6-.508-3.615,2.251-2.335,8.668-2.5Z" fill="#00cbce" stroke-width="0"/>
            <path d="M40.465,97.182c-1.195.31-1.181.276-.963,1-2.395-.819-2.541-.151-4.816,0-.157-3.525-4.568-7.991-4.816-8.5-.071-.145.99-.923,0-3l2.889-1c2.089,3.867,4.792,7.772,7.705,11.5Z" fill="#9300b4" stroke-width="0"/>
            <path d="M47.207,98.182c-.252.064,1.886.342-4.816,1.5-4.265.427-2.584-1.396-2.889-1.5-.218-.724-.232-.69.963-1,3.336-.866,2.042-8.299,2.889-11,1.235,3.979,4.117,7.878,3.852,12Z" fill="#183697" stroke-width="0"/>
          </g>
          <path d="M574.99,180.679c.714.244-1.149,2.959,14.928,2.5,25.06,9.765,58.124,9.063,87.643,7.5,1.122-.059,3.353,2.488,21.188-2,9.469-2.383,34.911-15.567,10.113-.25-4.024,2.485-10.399,5.486-15.41,7.5l1.926.25c-2.781,1.204-4.715,1.948-7.705,3-16.478.506-33.192,3.349-50.563,3-23.475-3.133-51.132-3.162-68.862-12.5-3.36-3.006-13.526-8.668-14.447-13,.229.075.727-.073.963,0,.995.309,2.495,4.534,20.225,4Z" fill="#8f0000" stroke-width="0"/>
          <path d="M687.674,199.178c-24.606,8.66-49.175,11.698-78.975,8.5-8.894-.955-27.303-5.075-32.746-9-2.411-1.738-2.862-4.667-7.705-9,17.731,9.337,45.387,9.367,68.862,12.5,17.371.349,34.085-2.494,50.563-3Z" fill="#8f0000" stroke-width="0"/>
          <path d="M456.528,71.182c3.541.717,7.264,1.287,9.631,3-2.211-.309-7.148.67-6.742,2.25,16.674,13.29,36.859,25.644,52.971,39.499-2.798,1.976,1.202.387,1.926,1,.7.592-.231,6.105,14.447,10.75,2.505,2.546,13.568,10.218,19.262,16.749,2.891,3.315,4.74,7.014,6.742,10.5.381.663,2.761.751,2.889,1,.507.988-1.394.249-.963,1.25,2.684,6.235,4.053,8.05.963,14.5-1.151.028-1.129.773-1.926.25-1.772-1.163-22.091-16.105-23.115-16.999-11.567-10.108-17.899-22.456-22.152-26.999-1.094-1.169-8.171-5.993-8.668-6.5-1.054-1.075-1.303-3.027-4.816-6.25-9.541-8.753-11.531-10.881-26.004-17.999-2.916-1.434-5.905-2.978-8.668-4.5,3.12.857,9.339,2.991,9.631,2.75-2.391-8.143-17.062-10.812-29.375-13.75-1.368-.326-4.371-4.511-27.93-4-10.737.233-29.129,4.276-32.264,2,22.542-9.022,45.988-14.203,74.159-8.5Z" fill="#7f0065" stroke-width="0"/>
          <path d="M557.654,171.679c-.828,1.728-1.984,3.295-2.889,5-.236-.073-.734.075-.963,0-.523-.173-1.371.526-1.445.5-7.576-2.674-12.406-7.758-22.633-8-.818-1.366,1.948-2.119,1.926-2.25-.061-.365-2.398-.996-2.889-1.25-1.568-.808-9.277-3.289-12.52-5.75-11.846-8.986-9.346-24.046-13.484-34.499-1.284-3.243-6.129-7.759-5.779-10.25,3.513,3.223,3.761,5.175,4.816,6.25.497.506,7.574,5.331,8.668,6.5,4.252,4.543,10.584,16.892,22.152,26.999,1.024.894,21.343,15.836,23.115,16.999.797.523.775-.222,1.926-.25Z" fill="#372023" stroke-width="0"/>
          <path d="M495.052,74.682c37.96,18.106,50.953,31.691,70.307,55.498,7.164,8.812,4.256,12.744,26.004,28.999,3.823,2.857,7.575,5.7,11.557,8.5-5.527-1.805-6.278-.483-14.928-3.5-43.751-15.257-65.106-75.954-116.536-91.997-3.308-.771-13.745-1.836-14.928-1-28.171-5.704-51.617-.523-74.159,8.5-12.731,5.096-22.729,11.504-33.709,17.499,8.382-6.037,14.895-13.013,24.078-18.749,10.037-6.27,23.132-10.364,32.746-16.749,2.106-.326,3.393-.754,5.779-1,37.127-3.827,57.268,1.349,83.79,14Z" fill="#cb2877" stroke-width="0"/>
          <path d="M626.035,175.679c10.289,1.407,33.131,1.462,42.858-.5.904-.182-1.526-1.319,0-1.5.952-.113-.393,2.173,18.299-1.5l.482,1.25c-51.474,20.708-80.82,6.221-113.165,5.25-12.331-.37-4.91.153.482,2-17.73.534-19.23-3.691-20.225-4,.905-1.705,2.061-3.272,2.889-5,3.09-6.449,1.721-8.265-.963-14.5,8.894-.162,12.803,5.962,35.153,12.5,6.157,1.801,33.204,8.804,34.19,6Z" fill="#af0032" stroke-width="0"/>
          <path d="M602.921,167.679c6.354,2.075,11.303,6.385,23.115,8-.987,2.804-28.034-4.199-34.19-6-22.351-6.538-26.26-12.662-35.153-12.5-.431-1.001,1.47-.262.963-1.25-.128-.249-2.508-.337-2.889-1-2.001-3.486-3.851-7.184-6.742-10.5-5.695-6.531-16.757-14.203-19.262-16.749-16.067-16.332-39.468-47.402-62.602-53.498-2.367-1.713-6.091-2.283-9.631-3,1.183-.836,11.62.228,14.928,1,51.43,16.043,72.785,76.74,116.536,91.997,8.65,3.016,9.401,1.695,14.928,3.5Z" fill="#b41f68" stroke-width="0"/>
          <path d="M569.212,128.181c1.364,2.482,2.459,5.046,3.852,7.5.467.822.76,4.352,4.816,9.25,4.223,5.1,15.52,9.904,13.484,14.25-21.748-16.255-18.84-20.187-26.004-28.999l2.408-3,1.445,1Z" fill="#af0032" stroke-width="0"/>
          <path d="M477.716,48.683c5.886,2.208,11.845,4.362,17.818,6.5.125.045,1.664-.97,2.889-.5,13.376,5.137,35.989,30.004,39.006,21.499.057.064,1.871.935,1.926,1,2.987,3.474,5.132,7.412,7.705,11,9.393,13.1,14.801,26.621,22.152,39.999l-1.445-1-2.408,3c-19.354-23.807-32.347-37.392-70.307-55.498.108-3.171-9.935-4.816-12.52-7.25-2.245-2.113-.269-10.136-21.188-18.499,1.22-4.628,5.619.618,16.373-.25Z" fill="#800099" stroke-width="0"/>
          <path d="M150.259,165.679l-7.705.25c1.135,4.713,8.304,1.187,9.15,1.25,4.962.367,24.066,5.885,27.93,6.5,3.258.518,33.812,3.996,35.635,4,10.408.02,17.41-5.077,21.67-4.5-.916.407-1.536,1.262-7.705,3-35.358,9.959-72.108-1.532-100.163-13,6.681,1.151,14.216,1.974,21.188,2.5Z" fill="#480501" stroke-width="0"/>
          <path d="M473.864,46.183c-1.254-.061-2.63.095-3.852,0-12.338-.954-19.2-2.986-33.227-2.5-2.062.071-24.828,2.675-26.004,3-6.682,1.845-3.454,3.427-4.816,4-.815.343-17.378,3.909-17.818,5.75,6.642,9.635,9.614,3.758,23.115,4.25-2.386.246-3.672.674-5.779,1-55.655,8.607-80.635,43.522-104.979,67.748h1.926c5.536-4.179,12.437-12.596,17.336-12.25-5.989,4.866-11.934,10.196-17.336,15.25-.531.497-1.351,4.489-7.705,10.5-17.716,16.761-26.084,10.562-41.414,18.249-4.276-5.024-8.4-4.083-1.926-10,3.625-3.313,25.163-13.678,26.967-20.999.098-.067,1.031.325,2.889-.75,1.593-.922,14.051-15.505,17.336-18.749,14.215-14.04,35.942-39.075,51.045-49.748,12.338-8.72,34.251-19.473,53.934-23.249,2.238,2.279,11.573.254,18.781.5,26.752.911,34.267,3.913,51.526,8Z" fill="#7f0065" stroke-width="0"/>
          <path d="M253.312,161.18c-1.802.904-11.571,7.647-9.631,8-2.49,1.448-3.662,2.63-6.742,4-4.26-.577-11.262,4.52-21.67,4.5-1.823-.004-32.377-3.482-35.635-4-3.864-.615-22.969-6.133-27.93-6.5-.845-.063-8.014,3.463-9.15-1.25l7.705-.25c40.377,3.045,69.984-.816,101.126-14.5-6.474,5.917-2.35,4.975,1.926,10Z" fill="#69003d" stroke-width="0"/>
          <path d="M529.724,169.179c10.227.241,15.057,5.326,22.633,8,.074.026.921-.673,1.445-.5.921,4.332,11.087,9.993,14.447,13,4.843,4.333,5.294,7.261,7.705,9-18.583-8.721-32.588-19.103-51.045-27.999,1.268-2.976,3.937-1.521,4.816-1.5Z" fill="#7f0065" stroke-width="0"/>
          <path d="M462.307,92.682c-3.515-.965-6.953-2.223-10.594-3-40.878-8.726-76.19-.987-105.942,14.5l-4.816-1.5c2.461-1.854,5.159-3.666,7.705-5.5,10.98-5.996,20.977-12.404,33.709-17.499,3.135,2.276,21.527-1.767,32.264-2,23.559-.511,26.562,3.674,27.93,4,12.312,2.938,26.983,5.606,29.375,13.75-.292.242-6.511-1.893-9.631-2.75Z" fill="#69003d" stroke-width="0"/>
          <g>
            <path d="M52.986,162.179c14.63.741,30.042.128,43.34,3.75l-1.926.75c-42.703-5.607-47.979,11.082-55.86,15-11.2,5.568-27.426,2.72-38.524-1.5-.02-9.833.016-19.666,0-29.499,13.699,13.338,30.174,10.344,52.971,11.5Z" fill="url(#linear-gradient-2)" stroke-width="0"/>
            <path d="M29.871,148.68c4.37.295,6.566-.706,10.594,1,1.191.504,6.486,7.371,23.115,10-.668.13-6.04,3.119-10.594,2.5-22.797-1.155-39.272,1.838-52.971-11.5,0-.5,0-1,0-1.5,8.744,2.397,16.564,5.616,21.188-.5,1.067.115,3.342-.359,8.668,0Z" fill="#480501" stroke-width="0"/>
            <path d="M21.203,148.68c-4.625,6.116-12.445,2.897-21.188.5-.004-2.5.004-5,0-7.5,6.404,1.723,13.956,6.222,21.188,7Z" fill="#3374ff" stroke-width="0"/>
            <path d="M496.979,115.181c-.35,2.491,4.495,7.007,5.779,10.25,4.137,10.453,1.638,25.513,13.484,34.499,3.244,2.461,10.952,4.941,12.52,5.75-4.424,2.987-29.233-9.078-36.117-13.5l-2.408,3c-26.973-11.883-50.664-26.048-89.088-15-39.788,11.441-46.817,42.847-77.53,61.498-21.05,12.783-46.572,19.523-78.975,19.999-22.776.335-41.014-2.203-57.787-10.5-15.335-7.586-25.054-17.894-39.487-25.749-2.031-3.401-11.869-5.841-12.52-9.75-.019-.115,2.122-1.385.963-2.25-.265-.197-5.889-.936-8.186-2.25-2.409-1.378-1.216-2.271-4.334-4,6.458-1.009,31.255,11.68,33.227,12,1.858.302,1.001-1.012,2.408-1,28.595,12.663,59.379,30.375,108.35,15.999,24.438-7.174,35.111-18.928,47.674-30.999,6.787-6.521,12.542-14.798,22.152-22.749,19.724-16.32,45.421-30.667,85.717-29.249,4.51.159,22.583,2.838,23.596,2.5.572-.191,2.248-2.395,3.852-3,6.741-2.54,26.222-8.95,20.707-13.5,14.473,7.118,16.463,9.246,26.004,17.999Z" fill="#094dd1" stroke-width="0"/>
            <path d="M120.403,165.179v.5q-.963,2.125-1.926,4.25,8.186,2.875,16.373,5.75c.652,3.909,10.49,6.348,12.52,9.75,14.434,7.855,24.152,18.163,39.487,25.749-6.661-2.064-16.114-8.124-21.188-11.5-17.669-11.752-26.929-21.252-54.897-28.999-5.39-6.178-12.144-1.551-10.594-12,6.608,1.774,13.67,4.67,20.225,6.5Z" fill="#183697" stroke-width="0"/>
            <path d="M100.178,158.68c-1.55,10.448,5.204,5.822,10.594,12-4.015-1.112-12.414-3.48-16.373-4l1.926-.75c-13.298-3.622-28.709-3.008-43.34-3.75,4.554.619,9.926-2.37,10.594-2.5,1.597-.311,13.798-.623,23.115-4.5,5.009,1.07,8.765,2.233,13.484,3.5Z" fill="#3c3233" stroke-width="0"/>
            <path d="M50.096,147.68c7.895,2.396,34.727,4.79,45.748,7,7.784,1.561,20.775,6.354,33.227,8.5,28.055,11.467,64.805,22.959,100.163,13-2.881,3.24,3.662,1.669,8.186,2l47.192-12.5c8.876-.401,24.765-4.846,30.338-2.5-12.563,12.071-23.235,23.825-47.674,30.999-48.971,14.376-79.755-3.337-108.35-15.999-11.701-5.181-8.882-6.479-36.117-14-.178-.049-1.752,1.183-2.408,1-6.555-1.83-13.617-4.726-20.225-6.5-4.719-1.267-8.474-2.43-13.484-3.5-1.505-.321,1.398-.675-3.371-1.5-2.017-.349-39.289-4.963-41.414-5-1.618-.028-1.606.245-1.445,1-4.029-1.706-6.224-.705-10.594-1-.695-1.874,10.849-.676,20.225-1Z" fill="#00b1b1" stroke-width="0"/>
            <path d="M86.694,155.18c-9.316,3.877-21.517,4.189-23.115,4.5-16.629-2.629-21.924-9.495-23.115-10-.161-.755-.174-1.028,1.445-1,2.125.036,39.397,4.651,41.414,5,4.769.825,1.866,1.179,3.371,1.5Z" fill="#3374ff" stroke-width="0"/>
            <path d="M451.713,89.682c-2.439,1.473,2.934.892,2.889,2.25-.042,1.275-22.981,9.117-31.783,19.249-40.295-1.418-65.993,12.93-85.717,29.249-9.61,7.951-15.365,16.228-22.152,22.749-5.573-2.346-21.462,2.099-30.338,2.5l-47.192,12.5c-4.525-.331-11.067,1.24-8.186-2,6.169-1.738,6.789-2.593,7.705-3,3.08-1.37,4.252-2.552,6.742-4,4.913-2.857,10.465-7.937,14.928-9.5,4.458-1.561,17.815-2.141,28.412-8.75,9.982-6.226,27.155-30.303,58.75-46.749,29.752-15.486,65.064-23.225,105.942-14.5Z" fill="#00b1b1" stroke-width="0"/>
            <path d="M462.307,92.682c2.763,1.522,5.752,3.065,8.668,4.5,5.515,4.55-13.965,10.959-20.707,13.5-1.604.604-3.28,2.809-3.852,3-1.013.338-19.086-2.341-23.596-2.5,8.801-10.132,31.741-17.974,31.783-19.249.045-1.358-5.329-.777-2.889-2.25,3.641.777,7.079,2.035,10.594,3Z" fill="#3374ff" stroke-width="0"/>
            <path d="M528.761,165.679c.492.254,2.828.885,2.889,1.25.022.131-2.744.884-1.926,2.25-.879-.021-3.547-1.476-4.816,1.5-4.349-2.096-11.335-3.855-15.891-6-6.037-2.842-15.193-7.919-18.781-9.5l2.408-3c6.884,4.421,31.692,16.487,36.117,13.5Z" fill="#282727" stroke-width="0"/>
            <path d="M158.927,178.179c-1.407-.012-.549,1.302-2.408,1-1.973-.32-26.769-13.008-33.227-12-.14-.077-1.255.556-2.889-1.5v-.5c.656.183,2.23-1.049,2.408-1,27.235,7.52,24.416,8.818,36.117,14Z" fill="#3374ff" stroke-width="0"/>
            <path d="M123.292,167.179c3.118,1.729,1.925,2.622,4.334,4,2.297,1.314,7.922,2.053,8.186,2.25,1.159.865-.982,2.135-.963,2.25q-8.186-2.875-16.373-5.75.963-2.125,1.926-4.25c1.635,2.056,2.75,1.423,2.889,1.5Z" fill="#1340be" stroke-width="0"/>
            <path d="M345.771,104.181c-31.594,16.445-48.767,40.522-58.75,46.749-10.596,6.609-23.953,7.189-28.412,8.75-4.464,1.563-10.016,6.643-14.928,9.5-1.94-.352,7.829-7.096,9.631-8,15.33-7.688,23.698-1.489,41.414-18.249,6.353-6.011,7.174-10.003,7.705-10.5,5.402-5.054,11.347-10.384,17.336-15.25,6.247-5.076,14.651-9.574,21.188-14.5l4.816,1.5Z" fill="#372023" stroke-width="0"/>
          </g>
          <path d="M466.159,74.182c23.134,6.096,46.535,37.167,62.602,53.498-14.678-4.645-13.747-10.158-14.447-10.75-.724-.613-4.724.976-1.926-1-16.112-13.855-36.297-26.209-52.971-39.499-.407-1.58,4.53-2.559,6.742-2.25Z" fill="#002db7" stroke-width="0"/>
          <path d="M470.012,46.183c2.384,1.028,5.178,1.552,7.705,2.5-10.753.868-15.153-4.378-16.373.25,20.92,8.363,18.944,16.387,21.188,18.499,2.586,2.434,12.628,4.079,12.52,7.25-26.522-12.651-46.664-17.827-83.79-14-13.501-.492-16.473,5.385-23.115-4.25.44-1.84,17.003-5.407,17.818-5.75,1.362-.573-1.866-2.155,4.816-4,1.176-.325,23.942-2.929,26.004-3,14.028-.486,20.889,1.546,33.227,2.5Z" fill="#002db7" stroke-width="0"/>
          <path d="M405.483,61.683c-9.614,6.386-22.709,10.479-32.746,16.749-9.183,5.737-15.696,12.712-24.078,18.749-2.546,1.834-5.244,3.646-7.705,5.5-6.538,4.926-14.941,9.424-21.188,14.5-4.899-.346-11.8,8.071-17.336,12.25h-1.926c24.344-24.226,49.324-59.141,104.979-67.748Z" fill="#e53695" stroke-width="0"/>
          <g>
            <path d="M551.876,68.682c-1.032-.869-3.509-2.985-5.779-3-2.277-2.572-4.131-4.976-6.742-7.5-.325-.314-.629-.691-.963-1-5.418-5.005-18.853-15.96-16.373-9.5-4.182-3.439-12.435-8.662-12.52-3-46.459-26.811-108.624-23.976-151.208,3.5.968-2.06,18.167-14.063,20.225-15.25,9.061-5.222,25.331-10.143,21.67-11.25-1.348-.407-1.593,1.355-6.26,1.5-.638.02-1.286-.009-1.926,0,.436-.128,2.853-1.813,8.186-3,2.419-.538,2.69,1.041,2.889,1,12.943-2.702,22.102-5.982,38.524-6v-1.5c-27.417-3.535,3.464-1.592,14.447,0,29.804,4.32,57.589,16.609,74.641,29.749,6.463,4.98,23.127,20.072,21.188,25.249Z" fill="#f7d875" stroke-width="0"/>
            <path d="M347.697,33.684c-2.332,1.317-27.256,28.811-29.856,32.249-2.337,3.09-6.504,14.747-8.668,12.5l-.963-5.25c.159-2.189,2.569-9.501,3.852-12,5.452-10.618,17.527-19.683,30.819-27.999,2.179,1.606,1.745.731,4.816.5Z" fill="#ffec81" stroke-width="0"/>
            <path d="M393.926,23.184c-14.638,5.916-14.113,8.084-14.928,8.5-.344.175-2.551-.175-2.889,0-25.971,13.457-32.838,22.477-48.637,38.749-.77.793-2.595.695-2.889,1-.246.255-2.167,4.494-2.889,5.25-1.888,1.978-2.415,4.837-6.742,6,10.206-24.311,34.062-46.824,77.049-59.498.64-.009,1.288.02,1.926,0Z" fill="#ffec81" stroke-width="0"/>
            <path d="M414.151,12.684v-1.5c11.332.17,9.654.643,0,1.5Z" fill="#ffe241" stroke-width="0"/>
            <path d="M509.499,44.683c6.197,3.577,11.486,5.424,5.779,6-11.66-8.421-46.378-19.446-65.973-20.999-52.085-4.128-82.293,12.754-107.387,33.499l-2.889-.5c6.204-5.159,11.876-9.734,19.262-14.5,42.584-27.476,104.749-30.311,151.208-3.5Z" fill="#f1be14" stroke-width="0"/>
            <path d="M358.291,48.183c-7.387,4.766-13.058,9.34-19.262,14.5-5.594,4.652-10.305,10.346-17.336,14,.722-.756,2.643-4.995,2.889-5.25.294-.305,2.119-.207,2.889-1,15.799-16.272,22.666-25.292,48.637-38.749.338-.175,2.545.175,2.889,0,.815-.415.29-2.584,14.928-8.5,4.667-.145,4.912-1.907,6.26-1.5,3.661,1.106-12.609,6.028-21.67,11.25-2.058,1.186-19.257,13.189-20.225,15.25Z" fill="#ffec81" stroke-width="0"/>
            <path d="M515.278,50.683c1.543,1.115,10.492,11.223,12.52,12.5.498,2.288-.953,1.897-.963,2-7.189-3.639-8.513-8.787-15.41-12.75-5.136-1.179-9.913-3.079-14.447-4.75-29.525-10.881-57.053-16.978-93.422-10-19.684,3.777-41.596,14.529-53.934,23.249-15.103,10.674-36.83,35.708-51.045,49.748v-1.5c3.006-3.034,4.889-7.371,7.705-10.5,10.804-12.006,22.032-24.253,35.635-35.499,25.094-20.745,55.302-37.627,107.387-33.499,19.595,1.553,54.313,12.578,65.973,20.999Z" fill="#b62d87" stroke-width="0"/>
            <g>
              <path d="M2.904,104.181c10.77,7.293,20.416,13.395,33.709,19.499,8.421,3.867,12.783,5.691,22.152,9,5.156,6.337,31.403,8.665,29.856,12.5-3.108-.541-5.911-.847-6.742-1-11.495-2.123-22.136-4.289-32.746-7.5C28.66,130.485,13.799,122.034.015,112.181c-.003-3-.003-6,0-9,.64.158,2.784.928,2.889,1Z" fill="#f29500" stroke-width="0"/>
              <path d="M49.133,136.68c-2.856,7.549-16.832-1.623-31.783-1-5.81-1.142-11.534-2.353-17.336-3.5-.008-6.666.007-13.333,0-19.999,13.785,9.853,28.646,18.304,49.119,24.499Z" fill="#e82e00" stroke-width="0"/>
              <path d="M46.244,145.18c-.115,1.51,1.864,1.897,3.852,2.5-9.376.324-20.921-.874-20.225,1-5.326-.359-7.601.115-8.668,0-7.233-.778-14.784-5.277-21.188-7-.002-1.333.002-2.667,0-4,15.537,2.171,30.473,5.738,46.229,7.5Z" fill="#ca0000" stroke-width="0"/>
              <path d="M17.35,135.68c10.531,2.07,21.151,4.071,31.783,6-2.172,2.55,4.801,2.866,7.705,4-4.143,1.012-6.415-.033-10.594-.5-15.756-1.761-30.692-5.328-46.229-7.5-.002-1.833.002-3.667,0-5.5,5.802,1.147,11.526,2.358,17.336,3.5Z" fill="#f29500" stroke-width="0"/>
              <path d="M34.686,98.182c2.275-.151,2.42-.819,4.816,0,.305.104-1.376,1.927,2.889,1.5-.102.018.608.085-1.926.5-1.946.319-10.949,1.979-11.557,2-5.981.203-7.381-2.382-9.15-5-3.543,5.037-7.631,5.658-16.854,7-.106-.072-2.249-.842-2.889-1,.002-2.167-.002-4.333,0-6.5,10.223,2.562,16.695.357,21.188-4.5,1.459,10.392,8.76,6.314,13.484,6Z" fill="#ca0000" stroke-width="0"/>
              <path d="M43.354,79.682c8.017,9.246,23.859,26.563,39.006,32.499,4.93,1.932,60.154,15.536,66.936,16.499,13.104,1.861,32.807,2.726,46.229,2-9.045,7.407-63.333,1.183-77.53-1.5-9.46-1.788-29.766-8.068-37.561-11.5-19.218-8.46-27.75-20.294-30.819-20.499-.153-.01.257.327-2.408,1,.264-4.121-2.618-8.021-3.852-12-1.031-3.323-.651-6.248-.963-7,1.188-.054.901.485.963.5Z" fill="#df0e1e" stroke-width="0"/>
              <path d="M28.908,102.181q16.373,9.75,32.746,19.499c-1.021-.241-20.642-3.232-21.67-3-3.65,1.43,2.763,3.476-3.371,5-13.292-6.104-22.939-12.206-33.709-19.499,9.224-1.342,13.311-1.962,16.854-7,1.768,2.618,3.168,5.202,9.15,5Z" fill="#db6508" stroke-width="0"/>
              <path d="M61.653,121.681c4.763,1.124,20.381,7.625,30.819,10.5,3.58,3.35-7.756,1.419-10.113,2-2.581.637.267,5.522-14.928,1.5-3.042-.968-5.738-1.965-8.668-3-9.369-3.308-13.73-5.132-22.152-9,6.134-1.524-.279-3.57,3.371-5,1.028-.233,20.649,2.759,21.67,3Z" fill="#ee5d06" stroke-width="0"/>
              <path d="M88.621,145.18c39.152,6.819,84.972,13.299,125.204,5.5l.963,2.5c-47.324,9.32-85.959,1.82-131.946-5.5-1.892-1.646-1.678-1.562-.963-3.5.83.153,3.634.459,6.742,1Z" fill="#f2870a" stroke-width="0"/>
              <path d="M67.432,135.68c46.629,14.843,109.169,22.024,159.876,9,6.783,1.702-5.434,4.439-13.484,6-40.232,7.799-86.052,1.319-125.204-5.5,1.547-3.834-24.701-6.163-29.856-12.5,2.93,1.035,5.626,2.032,8.668,3Z" fill="#edad1b" stroke-width="0"/>
              <path d="M49.133,136.68c10.61,3.211,21.25,5.377,32.746,7.5-.715,1.938-.929,1.853.963,3.5-11.388-1.813-22.477-3.962-33.709-6-10.631-1.929-21.251-3.93-31.783-6,14.95-.623,28.927,8.549,31.783,1Z" fill="#ee5d06" stroke-width="0"/>
              <path d="M278.353,130.18c-1.804,7.321-23.342,17.687-26.967,20.999-31.142,13.684-60.749,17.545-101.126,14.5-6.972-.526-14.508-1.349-21.188-2.5-12.452-2.146-25.444-6.939-33.227-8.5-11.02-2.21-37.853-4.604-45.748-7-1.989-.603-3.968-.99-3.852-2.5,4.18.467,6.452,1.512,10.594.5,15.767,1.102,30.214,4.691,45.266,7-2.397.726-5.187.217-3.371,2,23.369,5.501,36.81,9.617,63.565,11,2.252-.362,3.811-4.08,1.445-5.5,33.525.718,64.037-5.34,89.569-16.499,16.682-7.291,14.431-8.086,22.152-13.25.768-.514,2.712-.129,2.889-.25Z" fill="#ee5d06" stroke-width="0"/>
              <path d="M82.842,147.68c45.987,7.32,84.622,14.82,131.946,5.5,19.609-3.862,31.618-10.458,38.524-9.5-25.532,11.159-56.045,17.217-89.569,16.499-20.2-.432-42.132-4.507-61.639-7.5-15.052-2.309-29.5-5.898-45.266-7-2.904-1.134-9.877-1.45-7.705-4,11.232,2.038,22.321,4.187,33.709,6Z" fill="#f1be14" stroke-width="0"/>
              <path d="M414.151,11.184v1.5c-1.48.131-3.366-.144-4.816,0-32.216,3.194-45.963,7.68-66.455,20.499-13.293,8.316-25.367,17.381-30.819,27.999-5.342,2.941-6.408,10.654-8.668,15-2.844,5.469-7.398,10.947-9.631,16.499-.998.039-2.125-.195-2.889.25-1.345.784-5.387,8.165-21.188,17.749-2.586,1.568-35.476,18.174-37.561,18.999-61.52,24.347-157.893,3.516-191.659-29.499,2.535-.415,1.824-.482,1.926-.5,6.701-1.158,4.563-1.436,4.816-1.5,2.665-.673,2.255-1.01,2.408-1,3.07.205,11.601,12.04,30.819,20.499,7.795,3.431,28.101,9.712,37.561,11.5,14.197,2.683,68.485,8.907,77.53,1.5,80.964-4.377,100.408-62.872,120.389-82.247,18.844-18.273,55.652-37.889,98.237-37.249Z" fill="#db6508" stroke-width="0"/>
              <path d="M40.465,100.181c33.766,33.015,130.139,53.846,191.659,29.499,4.846,2.507-22.01,9.635-26.485,10.5-36.388,7.033-79.888,1.164-113.165-8-10.439-2.875-26.057-9.376-30.819-10.5q-16.373-9.75-32.746-19.499c.608-.021,9.612-1.681,11.557-2Z" fill="#edad1b" stroke-width="0"/>
              <path d="M347.697,33.684c-3.071.231-2.636,1.106-4.816-.5,20.492-12.819,34.238-17.306,66.455-20.499-13.979,4.498-26.565,10.142-39.969,15-3.469,1.257-19.121,4.561-21.67,6Z" fill="#ffec81" stroke-width="0"/>
              <path d="M312.062,61.183c-1.283,2.499-3.693,9.811-3.852,12-.399,5.494,1.005,9.25.963,10-.297,5.26-1.169,10.147-2.889,15.5-2.816,3.129-4.699,7.466-7.705,10.5-2.793,2.818-9.091,8.934-12.52,7.5,2.561-2.586,4.763-5.285,6.742-8,5.083-6.973,8.853-14.033,10.594-21.499.529-2.27.855-4.197.963-6.5.107-2.282.446-4.576-.963-4.5,2.26-4.346,3.326-12.058,8.668-15Z" fill="#edad1b" stroke-width="0"/>
              <path d="M341.918,63.183c-13.603,11.246-24.831,23.493-35.635,35.499,1.721-5.352,2.592-10.24,2.889-15.5,1.614.063,4.447-.142,5.779-.5,4.327-1.163,4.854-4.022,6.742-6,7.031-3.653,11.742-9.347,17.336-14l2.889.5Z" fill="#ffe241" stroke-width="0"/>
              <path d="M292.8,108.681c-1.978,2.714-4.18,5.413-6.742,8-11.473,11.585-36.464,22.275-58.75,27.999-50.707,13.024-113.248,5.844-159.876-9,15.196,4.022,12.347-.863,14.928-1.5,2.357-.581,13.693,1.35,10.113-2,33.277,9.164,76.778,15.032,113.165,8,4.476-.865,31.331-7.993,26.485-10.5,2.085-.825,34.976-17.431,37.561-18.999-.534,4.063,10.607-1.905,20.225-3,.124.181,3,.448,2.889,1Z" fill="#db8900" stroke-width="0"/>
              <path d="M298.578,110.681c-3.285,3.245-15.743,17.827-17.336,18.749-1.858,1.075-2.791.683-2.889.75-.177.121-2.122-.264-2.889.25-7.72,5.164-5.469,5.958-22.152,13.25-6.906-.958-18.916,5.638-38.524,9.5l-.963-2.5c8.049-1.56,20.266-4.298,13.484-6,22.286-5.724,47.277-16.414,58.75-27.999,3.429,1.435,9.728-4.681,12.52-7.5v1.5Z" fill="#edad1b" stroke-width="0"/>
              <path d="M163.743,160.18c2.366,1.42.808,5.138-1.445,5.5-26.755-1.382-40.196-5.499-63.565-11-1.816-1.783.974-1.274,3.371-2,19.507,2.993,41.439,7.067,61.639,7.5Z" fill="#ee5d06" stroke-width="0"/>
              <path d="M304.357,80.682c-4.669.17-2.133,4.687-.963,6.5-1.741,7.466-5.511,14.526-10.594,21.499.111-.552-2.766-.819-2.889-1-.862-1.261,2.855-12.519,3.852-15,2.233-5.553,6.787-11.031,9.631-16.499,1.409-.077,1.07,2.218.963,4.5Z" fill="#f69e1e" stroke-width="0"/>
              <path d="M293.763,92.682c-.997,2.48-4.714,13.738-3.852,15-9.619,1.095-20.759,7.062-20.225,3,15.801-9.584,19.843-16.966,21.188-17.749.764-.445,1.892-.211,2.889-.25Z" fill="#f2870a" stroke-width="0"/>
              <path d="M304.357,80.682c-.108,2.303-.434,4.23-.963,6.5-1.17-1.812-3.706-6.33.963-6.5Z" fill="#f29500" stroke-width="0"/>
            </g>
            <g>
              <path d="M893.779,29.684c41.854,7.526,72.378,28.485,92.458,47.998.007,4.667-.006,9.333,0,14-28.473-18.274-73.862-47.669-121.833-49.998-25.323-1.229-52.696,3.029-70.788,12.5-14.437,5.398-23.794,13.242-36.598,19.499-2.045.999-4.87,3.52-5.297,3.5-.622-.029-2.978-3.945-10.113-3,32.246-28.666,81.561-57.195,152.171-44.499Z" fill="#af0010" stroke-width="0"/>
              <path d="M904.374,87.682c3.206,2.388,8.261,7.593,11.557,10.5,13.602,11.997,23.491,24.661,35.635,36.999,9.644,9.798,17.461,20.375,34.672,27.499-.019,12,.034,23.999,0,35.999-8.329-9.449-14.265-19.953-20.225-29.999-2.929-4.936-5.063-12.204-8.668-17.749-6.716-10.329-24.532-28.287-38.524-36.249-5.041-6.62-15.947-16.333-26.004-22.249-32.936-19.374-67.282-23.32-108.831-8.25-7.025,2.548-16.925,6.903-23.115,10-2.943-2.36,15.753-11.912,20.707-14,14.603-6.153,32.975-10.424,52.008-10v-1c-39.816-3.411-74.205,17.429-91.977,33.499-18.024,4.306-21.131,9.516-31.783,16.999-4.906,1.747-2.713-.212-6.742,0,20.54-15.13,38.102-31.168,59.713-45.999,1.332,4.509,17.197-2.904,21.67-4,50.715-12.421,88.862-5.125,119.907,17.999Z" fill="#ee5d06" stroke-width="0"/>
              <path d="M986.238,101.681c.004,4.167.004,8.333,0,12.5-17.532-2.901-34.079-13.117-48.637-18.499-5.66-2.092-31.267-11.036-33.227-8-31.045-23.124-69.192-30.421-119.907-17.999-4.473,1.095-20.338,8.509-21.67,4,4.893-3.358,10.984-8.954,16.373-11.75,6.184-3.208,7.257-2.575,7.705-2.75,19.912-7.755,20.908-5.747,34.19-7,1.162-.11,5.306-1.473,5.779-1.5,60.376-3.48,117.675,32.708,159.394,50.998Z" fill="#e82e00" stroke-width="0"/>
              <path d="M986.238,91.682c.004,3.333-.004,6.666,0,10-41.719-18.29-99.018-54.478-159.394-50.998-.473.027-4.617,1.39-5.779,1.5-13.282,1.253-14.279-.756-34.19,7-1.9-.553,2.487-2.773,6.742-5,18.092-9.47,45.466-13.729,70.788-12.5,47.971,2.329,93.36,31.724,121.833,49.998Z" fill="#ee5d06" stroke-width="0"/>
              <path d="M986.238,119.681c-.007,6.833.01,13.666,0,20.499-15.549-1.461-29.032-6.016-34.672-5-12.144-12.338-22.033-25.002-35.635-36.999,2.005.256,2.95-1.006,3.371-1,11.518.165,51.771,21.155,66.936,22.499Z" fill="#ca0000" stroke-width="0"/>
              <path d="M986.238,114.181c-.002,1.833.002,3.667,0,5.5-15.165-1.344-55.418-22.334-66.936-22.499-.421-.006-1.366,1.256-3.371,1-3.296-2.907-8.351-8.111-11.557-10.5,1.96-3.036,27.568,5.907,33.227,8,14.558,5.382,31.105,15.598,48.637,18.499Z" fill="#dc0000" stroke-width="0"/>
              <path d="M986.238,140.18c-.01,7.5.012,15,0,22.499-17.21-7.124-25.028-17.701-34.672-27.499,5.64-1.017,19.123,3.539,34.672,5Z" fill="#af0010" stroke-width="0"/>
              <path d="M897.632,111.181c-13.814-4.673-27.274-9.237-44.303-10-3.262-.146-8.203-.098-11.557,0,.681-2.295,8.495-.799,12.039-1l-2.408-1.5c17.204,1.206,33.432,6.691,46.229,12.5Z" fill="#ca0000" stroke-width="0"/>
              <path d="M794.579,93.182c-34.454,7.788-60.613,36.062-83.79,50.748-12.541,7.947-30.915,13.014-21.67,15.75,3.741.727,17.536-1.286,21.188-2.5,20.878-6.94,57.903-45.147,94.385-54.998,19.985-5.396,32.114-4.196,52.971-5.5,7.516,4.083,13.615,2.82,14.447,3,2.107.457,18.392,7.783,18.781,3.5,8.829,3.245,20.673,7.37,27.93,11.5,13.992,7.961,31.809,25.92,38.524,36.249,3.605,5.545,5.739,12.813,8.668,17.749-17.007-20.7-35.003-42.349-68.381-57.498-12.797-5.808-29.025-11.294-46.229-12.5-76.756-5.381-96.228,45.848-147.837,64.498-43.436,15.696-91.135,9.656-117.981-13.5h.963c20.315,14.763,41.585,22.326,77.53,20.999l2.408-1.75c-23.603-6.272-2.479-3.124,7.705-11-1.457-2.225-13.834,2.48-10.594-4.75,35.445-8.859,53.538-33.128,78.012-47.998,7.838-2.434,12.848-7.791,19.262-11,6.189-3.096,16.09-7.452,23.115-10-.654,1.861,4.411.247,5.779,1.75.206.226.075,4.753,0,5-.134.443-8.827,1.372,4.816,2.25Z" fill="#edad1b" stroke-width="0"/>
              <path d="M793.616,54.183c-4.255,2.227-8.642,4.447-6.742,5-.448.175-1.521-.458-7.705,2.75-5.389,2.796-11.48,8.392-16.373,11.75-21.611,14.83-39.173,30.869-59.713,45.999-18.317,13.493-39.587,29.137-74.641,29.499-1.814-1.733.98-1.338,4.334-2,5.226-1.031,11.721-1.041,22.633-4.5,8.101-2.568,12.505-6.054,18.781-9.5,11.108-6.099,14.186-8.836,23.115-15,20.804-14.36,40.593-29.719,59.713-44.499,12.804-6.257,22.161-14.101,36.598-19.499Z" fill="#edad1b" stroke-width="0"/>
              <path d="M757.018,73.682c-19.12,14.779-38.909,30.139-59.713,44.499.619-6.019,20.376-13.768,13.484-16.499,5.902-4.786,16.014-13.397,21.188-18.249,1.325-1.243.806-2.603.963-2.75,3.053-.31,6.03-4.155,8.668-6.5,7.135-.945,9.49,2.971,10.113,3,.427.02,3.252-2.501,5.297-3.5Z" fill="#ca0000" stroke-width="0"/>
              <path d="M551.876,87.182c-.366,3.671,6.843,13.738,10.594,17.249.439.411,6.415,2.922,7.705,4,2.11,1.762,8.05,9.083,8.668,9.5,3.14,2.116,5.828.329,6.26,2.75l.482-1c2.603,2.986,4.727,6.749,7.705,9.5,1.062,3.762,6.715,8.617,12.52,11,.053.022-.145.118.963.5.809.279.668.411,2.889,1,2.471,1.591,6.183,2.603,9.631,3.5,4.432,1.153,8.099,2.646,13.484,2-3.354.662-6.148.267-4.334,2,35.054-.362,56.324-16.007,74.641-29.499,4.029-.212,1.836,1.747,6.742,0-7.191,5.052-13.145,10.957-21.188,15.75-7.6,4.528-17.436,8.009-24.559,12.75-3.312.067-24.526,6.251-22.633,8.5-37.234,2.811-47.646-6.807-53.453-7.5-.883-.105-1.551.024-1.445.5h-.963c-5.183-4.47-8.82-9.18-12.52-14-1.394-2.454-2.489-5.018-3.852-7.5-7.351-13.378-12.759-26.899-22.152-39.999,3.012,1.672,4.203-.849,4.816-2.5,1.733.051.121.284,0,1.5Z" fill="#f29500" stroke-width="0"/>
              <path d="M918.82,114.681c-7.257-4.129-19.101-8.254-27.93-11.5-4.919-1.808-13.206-5.489-14.928-6-23.845-7.079-55.577-9.833-81.383-4-13.643-.878-4.95-1.807-4.816-2.25.075-.247.206-4.774,0-5-1.368-1.503-6.433.111-5.779-1.75,41.55-15.071,75.895-11.124,108.831,8.25,10.057,5.916,20.963,15.63,26.004,22.249Z" fill="#edad1b" stroke-width="0"/>
              <path d="M741.608,102.681c-1.89,1.709-4.912,4.025,0,2.5-24.474,14.871-42.567,39.139-78.012,47.998-4.457,1.114-17.231,3.128-22.152,3.5-1.893-2.249,19.321-8.433,22.633-8.5,7.123-4.74,16.959-8.221,24.559-12.75,8.043-4.793,13.997-10.697,21.188-15.75,10.652-7.483,13.759-12.694,31.783-16.999Z" fill="#f29500" stroke-width="0"/>
              <path d="M760.87,94.182c-6.414,3.209-11.424,8.565-19.262,11-4.912,1.526-1.89-.791,0-2.5,17.772-16.07,52.161-36.91,91.977-33.499v1c-19.033-.424-37.405,3.847-52.008,10-4.954,2.087-23.65,11.64-20.707,14Z" fill="#f29500" stroke-width="0"/>
              <path d="M669.375,121.681c-1.825,1.126-6.95,2.64-3.852,4-12.353,4.655-23.672,8.842-39.969,8-.72-.037-12.386-2.373-12.039-2.75,17.934,1.378,29.58,4.455,12.52-5.25,33.248,3.703,61.631-22.648,43.34-4Z" fill="#53e6bb" stroke-width="0"/>
              <g>
                <path d="M985.275,54.683h.963c.009,5.5-.009,11,0,16.499-18.406-12.086-33.351-25.737-57.787-34.999,3.595-.149,26.137-3.773,27.449-3.5,3.917.816,23.84,19.237,29.375,21.999Z" fill="#edad1b" stroke-width="0"/>
                <path d="M928.451,36.183c24.435,9.261,39.381,22.913,57.787,34.999.003,2.167-.003,4.333,0,6.5-20.08-19.513-50.605-40.473-92.458-47.998l.482-1c-19.851-4.649-42.834-1.297-38.043-5,26.778-.297,50.599,4.3,72.233,12.5Z" fill="#f29500" stroke-width="0"/>
                <path d="M803.247,6.684c2.862-.158,4.519.064,5.779,1.5-21.219,6.601-47.165,22.903-59.713,33.999l-1.926-.5c3.004-2.858,5.225-6.671,8.668-9.5,7.032-5.777,34.689-24.811,47.192-25.499Z" fill="#ffe241" stroke-width="0"/>
                <path d="M869.702,1.685c-7.807-.237-14.524.3-22.152,1-1.512-3.777-27.567,2.091-38.524,5.5-1.26-1.435-2.917-1.658-5.779-1.5.113-.209.864-.978.963-1,21.819-4.883,41.924-7.674,65.491-4Z" fill="#ffe241" stroke-width="0"/>
                <path d="M869.702,1.685c8.586.26,17.08,1.404,25.041,3,10.054,2.015,14.388,4.514,21.188,7-21.204,1.817-42.885,4.389-62.121,9.5-1.85.492-2.573,1.924-2.889,2-1.768.423-6.853-.877-6.26,1-42.798,2.952-79.348,24.273-99.2,42.999l-1.926-.25c.345-7.536,3.214-6.932,3.852-7.75,12.603-16.155,46.027-37.36,71.752-48.498,7.65-3.312,14.413-4.157,16.854-6.5,4.55-.749,6.807-1.064,11.557-1.5,7.627-.7,14.345-1.237,22.152-1Z" fill="#f7d875" stroke-width="0"/>
                <path d="M915.931,11.684c29.826,10.903,52.956,26.042,69.344,42.999-5.535-2.762-25.457-21.183-29.375-21.999-1.312-.273-23.854,3.35-27.449,3.5-21.634-8.2-45.455-12.796-72.233-12.5-4.307.048-7.335.209-11.557.5-.593-1.877,4.493-.577,6.26-1,.316-.076,1.039-1.508,2.889-2,19.236-5.111,40.916-7.683,62.121-9.5Z" fill="#edad1b" stroke-width="0"/>
                <path d="M856.218,23.684c-4.791,3.703,18.191.351,38.043,5l-.482,1c-70.61-12.696-119.925,15.832-152.171,44.499-2.638,2.345-5.615,6.19-8.668,6.5,4.18-3.886,7.509-8.135,11.557-12,.073-.069-.151-.449.963-1.5,19.852-18.726,56.403-40.047,99.2-42.999,4.223-.291,7.25-.452,11.557-.5Z" fill="#edad1b" stroke-width="0"/>
                <path d="M747.387,59.183c-.638.818-3.507.214-3.852,7.75l1.926.25c-1.114,1.051-.89,1.43-.963,1.5-6.323,2.325-4.557,3.536-4.816,3.75-5.316,4.389-12.203,8.566-17.336,13-.767.663-2.32,4.933-13.484,13.5-5.294,4.062-20.507,12.225-21.188,13-.293.333,2.832,5.3-2.408,1.25-4.309,2.696-5.96,2.367-6.26,2.5-5.722-2.679,10.062-8.836,18.299-15.25,3.459-2.694,5.392-6.143,5.779-6.5,2.009-1.853,8.406-5.172,8.668-5.5,1.598-2.002-1.442-4.012,3.371-7.25.213-.144,2.738.468,4.334-.75,6.757-5.156,3.505-7.135,3.852-7.5.197-.207,3.917.025,6.742-3,.214-.229.435-3.411,1.926-5,4.343-4.627,18.1-19.308,21.188-21.999,3.447-3.005,6.497-2.808,6.742-3,.619-.485-.801-2.514,11.076-9.75.647-.394,1.856.543,1.926.5,9.798-5.977,17.037-11.272,29.375-16.499-9.867,8.734-26.516,16.394-37.561,25.249-4.367,3.501-19.493,16.885-17.336,19.749Z" fill="#ffec81" stroke-width="0"/>
                <path d="M732.94,80.682c-.158.147.362,1.507-.963,2.75-5.175,4.852-15.286,13.464-21.188,18.249-4.679,3.794-10.47,7.277-15.41,11-10.38,4.072-19.302,9.023-29.856,13-3.097-1.36,2.027-2.874,3.852-4,2.63-1.622,7.734-5.158,9.631-6,.3-.133,1.951.196,6.26-2.5,5.24,4.05,2.115-.917,2.408-1.25.681-.775,15.895-8.937,21.188-13,11.163-8.567,12.716-12.837,13.484-13.5,5.133-4.434,12.02-8.61,17.336-13,.259-.214-1.508-1.425,4.816-3.75-4.048,3.865-7.377,8.114-11.557,12Z" fill="#f7d875" stroke-width="0"/>
                <path d="M835.993,4.184c-2.441,2.343-9.204,3.187-16.854,6.5-25.725,11.139-59.149,32.344-71.752,48.498-2.157-2.864,12.969-16.248,17.336-19.749,11.045-8.855,27.694-16.515,37.561-25.249,10.903-4.62,20.111-7.763,33.709-10Z" fill="#ffe241" stroke-width="0"/>
                <path d="M747.387,41.683l1.926.5c-7.923,7.006-13.176,14.999-20.225,22.249-5.003,1.83,2.122-7.234,2.889-8.25,2.136-2.828,9.619-10.91,12.52-13.75,1.005-.984,2.812-.676,2.889-.75Z" fill="#ffec81" stroke-width="0"/>
                <path d="M720.901,72.182c3.125.248-4.214,6.691-4.816,6.5-2.459-.781,4.249-5.173,4.816-6.5Z" fill="#fdfcfb" stroke-width="0"/>
              </g>
              <path d="M890.89,103.181c-.388,4.283-16.674-3.043-18.781-3.5-.832-.18-6.931,1.083-14.447-3-20.857,1.303-32.986.103-52.971,5.5-36.481,9.851-73.506,48.058-94.385,54.998-3.652,1.214-17.448,3.227-21.188,2.5-9.245-2.735,9.129-7.803,21.67-15.75,23.178-14.686,49.337-42.96,83.79-50.748,25.805-5.833,57.538-3.079,81.383,4,1.722.511,10.01,4.192,14.928,6Z" fill="#f1be14" stroke-width="0"/>
              <path d="M641.445,156.68c4.921-.372,17.694-2.386,22.152-3.5-3.24,7.229,9.137,2.525,10.594,4.75-10.184,7.876-31.307,4.728-7.705,11l-2.408,1.75c-35.945,1.327-57.216-6.236-77.53-20.999-.107-.476.561-.605,1.445-.5,5.806.693,16.219,10.311,53.453,7.5Z" fill="#edad1b" stroke-width="0"/>
              <path d="M697.305,118.181c-8.929,6.163-12.006,8.901-23.115,15-6.557,2.422-13.139,4.503-20.225,6.5,8.961-3.13,14.86-7.184,21.188-11.5,4.199-2.863,3.596-3.82,3.852-4,5.593-3.928,10.978-7.434,16.373-11.5,4.94-3.722,10.73-7.206,15.41-11,6.892,2.731-12.865,10.48-13.484,16.499Z" fill="#af0032" stroke-width="0"/>
              <path d="M632.777,147.18c-5.385.646-9.051-.846-13.484-2,8.797.66,11.839-.502,18.299-1.5,1.333-.206,4.533-.753,5.779-1,4.297-.851,3.656-.954,3.852-1,1.465-.339,4.552-1.383,6.742-2,7.087-1.997,13.669-4.078,20.225-6.5-6.276,3.445-10.679,6.931-18.781,9.5-10.912,3.459-17.407,3.469-22.633,4.5Z" fill="#e82e00" stroke-width="0"/>
              <path d="M585.585,119.681l-.482,1c-.432-2.42-3.12-.634-6.26-2.75-.618-.416-6.558-7.738-8.668-9.5-1.29-1.077-7.266-3.589-7.705-4-3.751-3.511-10.96-13.578-10.594-17.249,5.282-.65.652-5.865,4.816-7.5,2.613,3.467,6.065,6.818,8.668,10.25,3.275,4.319,5.197,11.376,8.668,15.999,2.824,3.761,8.161,9.853,11.557,13.75Z" fill="#edad1b" stroke-width="0"/>
              <path d="M675.154,128.181c-14.433,6.884-31.502,14.274-52.489,13.5-3.608-.133-13.748-2.776-16.854-1.5-5.805-2.382-11.458-7.237-12.52-11,18.076,16.696,66.482,6.325,85.717-5-.256.18.346,1.137-3.852,4Z" fill="#a82b3b" stroke-width="0"/>
              <path d="M546.097,65.683c4.006,4.524,7.098,9.36,10.594,14-4.164,1.635.467,6.85-4.816,7.5.121-1.215,1.733-1.449,0-1.5,1.658-4.467-1.681-3.996-11.076-9.5l-1.445,1c-.055-.065-1.869-.936-1.926-1-2.524-2.835-9.795-7.704-10.594-10.5-.044-.153-.016-.343,0-.5.011-.103,1.461.288.963-2,3.595,2.263,4.568,1.383,4.816,1.5,3.262,1.536,6.949,2.962,10.594,4.25q-1.926-5.375-3.852-10.75c2.611,2.523,4.464,4.928,6.742,7.5Z" fill="#ca0000" stroke-width="0"/>
              <path d="M653.965,139.68c-2.189.617-5.277,1.661-6.742,2l-3.852,1c-1.246.247-4.445.794-5.779,1-9.171,1.091-19.569.218-27.93-2-.263-.169,1.051-1.31-2.889-1-1.108-.382-.91-.478-.963-.5,3.106-1.276,13.247,1.367,16.854,1.5,20.988.775,38.056-6.615,52.489-13.5-6.329,4.316-12.228,8.37-21.188,11.5Z" fill="#6285d6" stroke-width="0"/>
              <path d="M551.876,85.682c-.613,1.651-1.804,4.172-4.816,2.5-2.573-3.588-4.718-7.526-7.705-11l1.445-1c9.395,5.503,12.733,5.033,11.076,9.5Z" fill="#e82e00" stroke-width="0"/>
              <path d="M637.592,143.68c-6.46.998-9.502,2.16-18.299,1.5-3.448-.897-7.16-1.909-9.631-3.5,8.361,2.218,18.759,3.091,27.93,2Z" fill="#9d00a7" stroke-width="0"/>
              <path d="M609.662,141.68c-2.222-.589-2.08-.721-2.889-1,3.94-.31,2.626.831,2.889,1Z" fill="#c10057" stroke-width="0"/>
              <path d="M522.019,47.683c1.454,1.196,7.954,9.073,8.668,10.5.719,1.436.431,4.482,1.926,6.5-.247-.117-1.221.763-4.816-1.5-2.029-1.277-10.977-11.385-12.52-12.5,5.707-.575.419-2.423-5.779-6,.085-5.662,8.338-.439,12.52,3Z" fill="#db6508" stroke-width="0"/>
              <path d="M539.355,58.183q1.926,5.375,3.852,10.75c-3.645-1.288-7.333-2.714-10.594-4.25-1.495-2.017-1.207-5.064-1.926-6.5l7.705-1c.334.309.639.686.963,1Z" fill="#edad1b" stroke-width="0"/>
              <path d="M538.392,57.183l-7.705,1c-.714-1.426-7.214-9.304-8.668-10.5-2.481-6.461,10.954,4.495,16.373,9.5Z" fill="#f1be14" stroke-width="0"/>
              <g>
                <path d="M551.876,68.682c16.565,13.95,39.894,53.182,74.159,56.998,17.06,9.705,5.414,6.627-12.52,5.25-.347.377,11.319,2.713,12.039,2.75,16.297.842,27.616-3.345,39.969-8,10.555-3.977,19.477-8.928,29.856-13-5.395,4.066-10.78,7.571-16.373,11.5-19.235,11.325-67.64,21.696-85.717,5-2.978-2.75-5.102-6.514-7.705-9.5-3.397-3.897-8.733-9.989-11.557-13.75-3.471-4.623-5.393-11.681-8.668-15.999-2.603-3.432-6.055-6.782-8.668-10.25-3.497-4.64-6.588-9.476-10.594-14,2.27.015,4.746,2.131,5.779,3Z" fill="#00cbce" stroke-width="0"/>
                <path d="M587.992,118.181q9.39,3.875,18.781,7.75c2.451,7.211-21.42-6.872-18.781-7.75Z" fill="#c8bb36" stroke-width="0"/>
              </g>
              <path d="M647.224,141.68c-.197.046.444.149-3.852,1l3.852-1Z" fill="#9d00a7" stroke-width="0"/>
            </g>
          </g>
          <path d="M473.864,46.183c13.006,3.08,14.638,2.192,15.891,2.5,6.017,1.477,22.509,14.349,17.818,5.5,7.064,4.802,9.183,9.534,19.262,11.5.799,2.795,8.071,7.665,10.594,10.5-3.017,8.504-25.63-16.363-39.006-21.499-1.225-.47-2.764.545-2.889.5-5.972-2.138-11.932-4.291-17.818-6.5-2.527-.948-5.321-1.472-7.705-2.5,1.223.095,2.599-.061,3.852,0Z" fill="#002db7" stroke-width="0"/>
          <path d="M526.835,65.183c-.016.157-.044.347,0,.5-10.079-1.966-12.199-6.697-19.262-11.5-3.274-2.226-8.089-3.906-10.594-6.5,4.533,1.671,9.311,3.571,14.447,4.75,6.896,3.962,8.221,9.111,15.41,12.75Z" fill="#b41f68" stroke-width="0"/>
          <path d="M496.979,47.683c2.506,2.594,7.32,4.274,10.594,6.5,4.692,8.849-11.801-4.023-17.818-5.5-1.253-.308-2.885.58-15.891-2.5-17.259-4.087-24.774-7.088-51.526-8-7.207-.246-16.542,1.779-18.781-.5,36.368-6.978,63.897-.881,93.422,10Z" fill="#7f0065" stroke-width="0"/>
        </g>
        <g>
          <path d="M492.163,164.679c-6.418,6.999-15.026,7.329-13.965,9.5-10.953,1.547-7.847.644-13.965-.5.099.066,2.943.086,2.889-.25-.086-.538-3.64-.248-2.889.25-3.635-.68-7.339-1.403-10.594-2.5-15.656-17.556,33.593-23.92,38.524-6.5Z" fill="#00b1b1" stroke-width="0"/>
          <path d="M453.639,171.179c3.255,1.097,6.959,1.82,10.594,2.5,6.118,1.144,3.012,2.047,13.965.5-1.061-2.171,7.547-2.5,13.965-9.5,4.003,14.141-28.458,17.788-38.524,6.5Z" fill="#0a3289" stroke-width="0"/>
          <path d="M464.233,173.679c-.751-.498,2.803-.788,2.889-.25.054.336-2.79.316-2.889.25Z" fill="#0a3289" stroke-width="0"/>
        </g>
      </g>
    </g>
  </g>
</svg>